<svg width="103.306396" height="99.286133" viewBox="0 0 103.306 99.2861" fill="none" xmlns="http://www.w3.org/2000/svg" xmlns:xlink="http://www.w3.org/1999/xlink">
	<desc>
			Created with Pixso.
	</desc>
	<defs/>
	<path d="M88.3716 83.2883C88.5408 83.2795 88.7012 83.1721 88.7637 83.0112C90.894 77.7979 94.0852 62.2383 94.103 58.1338C94.1833 40.4102 92.4629 35.8765 86.7849 20.8713L85.8132 18.3049C85.7241 18.0723 85.4656 17.9473 85.2339 18.0366C85.002 18.126 84.8772 18.3853 84.9663 18.6179L85.938 21.1843C91.5715 36.0732 93.2742 40.571 93.1938 58.1248C93.176 62.1667 90.0205 77.5117 87.917 82.6624C87.8188 82.895 87.9348 83.1631 88.1665 83.2527C88.2378 83.2795 88.3 83.2883 88.3716 83.2883Z" fill="#094235" fill-opacity="1.000000" fill-rule="nonzero"/>
	<path d="M93.1851 63.0967C93.2295 63.0967 93.2742 63.0876 93.3188 63.0698C93.5505 62.9805 93.6753 62.7209 93.5862 62.4885C92.6235 59.8596 90.2881 57.4719 88.7371 55.8801L88.4072 55.5403C87.5515 54.6641 85.5549 52.3123 84.9753 51.248C84.708 50.7563 84.4495 50.3003 84.2 49.8621C82.4885 46.8306 81.4634 44.9976 81.0444 39.9897C81.0266 39.7395 80.8127 39.5427 80.5542 39.5784C80.3047 39.5964 80.1174 39.8198 80.144 40.0703C80.5808 45.2747 81.7041 47.2778 83.4155 50.3091C83.6562 50.7383 83.9148 51.1943 84.1821 51.6863C84.8149 52.8308 86.8562 55.2454 87.7654 56.1753L88.0952 56.5151C89.6819 58.1335 91.8479 60.3513 92.7393 62.7925C92.8105 62.9893 92.9978 63.1055 93.1851 63.0967Z" fill="#094235" fill-opacity="1.000000" fill-rule="nonzero"/>
	<path d="M93.5327 45.6147C93.6843 45.6057 93.8357 45.5164 93.907 45.3643C95.2441 42.7263 96.5723 40.0347 97.8381 37.3699C99.2107 34.4727 100.494 31.3965 99.7456 28.3472C99.6831 28.1057 99.4426 27.9536 99.2019 28.0164C98.9612 28.0789 98.8096 28.3203 98.8721 28.5618C99.5496 31.325 98.3284 34.2312 97.0269 36.9766C95.7612 39.6323 94.4419 42.3149 93.1047 44.9441C92.989 45.1675 93.0781 45.4448 93.301 45.552C93.3811 45.6057 93.4524 45.6147 93.5327 45.6147Z" fill="#094235" fill-opacity="1.000000" fill-rule="nonzero"/>
	<path d="M86.7236 9.4165C89.1353 11.564 89.355 15.2659 87.2146 17.6853C85.0742 20.1045 81.384 20.3252 78.9724 18.1777C76.5608 16.0305 76.3408 12.3286 78.4814 9.90918C80.6218 7.48975 84.312 7.26929 86.7236 9.4165Z" fill="#094235" fill-opacity="1.000000" fill-rule="evenodd"/>
	<path d="M93.8535 24.9937C93.9961 27.4529 96.0999 29.3396 98.5513 29.1965C101.002 29.0535 102.883 26.9431 102.741 24.4839C102.598 22.0249 100.494 20.1379 98.043 20.281C95.5828 20.4241 93.7109 22.5344 93.8535 24.9937Z" fill="#094235" fill-opacity="1.000000" fill-rule="nonzero"/>
	<path d="M75.9277 36.5835C76.0703 39.0427 78.1741 40.9294 80.6343 40.7864C83.0854 40.6433 84.9663 38.533 84.8237 36.0737C84.6812 33.6147 82.5774 31.7278 80.1262 31.8708C77.666 32.0051 75.7852 34.1155 75.9277 36.5835Z" fill="#094235" fill-opacity="1.000000" fill-rule="nonzero"/>
	<path d="M81.3652 33.1133C81.5793 33.1042 81.7576 32.9434 81.7842 32.7288C81.9092 31.897 82.3369 30.2249 82.6936 29.4199C82.7915 29.1875 82.6936 28.9192 82.4617 28.8208C82.23 28.7224 81.9626 28.8208 81.8645 29.0535C81.4724 29.9475 81.0178 31.6914 80.8928 32.6035C80.8572 32.8538 81.0266 33.0864 81.2761 33.1221C81.303 33.1133 81.3386 33.1221 81.3652 33.1133Z" fill="#094235" fill-opacity="1.000000" fill-rule="nonzero"/>
	<path d="M79.0388 33.48C79.1816 33.4709 79.3242 33.3906 79.4043 33.2654C79.5293 33.0508 79.4668 32.7737 79.2529 32.6394C79.2261 32.6125 79.03 32.3892 78.8784 31.1372C78.8428 30.7974 78.8784 30.4844 78.9231 30.1536C78.9587 29.8584 79.0032 29.5632 78.9944 29.2234C78.9854 28.9731 78.7805 28.7764 78.5308 28.7764C78.3081 28.7764 78.0852 28.991 78.0852 29.2415C78.094 29.5276 78.0583 29.7869 78.0227 30.0371C77.9783 30.4128 77.9248 30.7974 77.9783 31.2444C78.1296 32.5142 78.3704 33.167 78.7805 33.4175C78.8606 33.4622 78.9497 33.48 79.0388 33.48Z" fill="#094235" fill-opacity="1.000000" fill-rule="nonzero"/>
	<path d="M78.1741 34.2676C78.2454 34.2676 78.3257 34.2407 78.3882 34.196C78.6021 34.0618 78.6643 33.7847 78.5308 33.5701C77.47 31.8711 76.5874 30.8159 75.8389 30.333C75.6248 30.1987 75.3484 30.2615 75.2148 30.4761C75.0811 30.6907 75.1436 30.9678 75.3574 31.1021C75.9814 31.5044 76.7925 32.4971 77.7642 34.053C77.8533 34.196 78.0137 34.2764 78.1741 34.2676Z" fill="#094235" fill-opacity="1.000000" fill-rule="nonzero"/>
	<path d="M99.6118 21.9089C99.8081 21.8999 99.9685 21.7478 100.004 21.5513C100.111 20.7822 100.512 19.2441 100.842 18.4929C100.931 18.2783 100.842 18.0369 100.628 17.9385C100.414 17.8491 100.174 17.9385 100.075 18.1531C99.7188 18.9758 99.2998 20.5854 99.175 21.426C99.1394 21.6584 99.2998 21.8643 99.5317 21.8999C99.5496 21.9089 99.5762 21.9089 99.6118 21.9089Z" fill="#094235" fill-opacity="1.000000" fill-rule="nonzero"/>
	<path d="M98.3728 22.1858C98.5063 22.1768 98.6311 22.1052 98.7026 21.9802C98.8184 21.7834 98.7561 21.5242 98.5598 21.4077C98.5332 21.3811 98.355 21.1753 98.2122 20.0217C98.1677 19.6284 98.2034 19.2795 98.2478 18.7966C98.2747 18.5642 98.2925 18.3049 98.3193 17.9919C98.3372 17.7593 98.1587 17.5627 97.927 17.5447C97.6953 17.5359 97.4993 17.7058 97.4814 17.9382C97.4634 18.2334 97.4368 18.4927 97.4099 18.7163C97.3564 19.2258 97.3208 19.6372 97.3743 20.1201C97.5081 21.2915 97.731 21.8906 98.1143 22.1233C98.2034 22.1768 98.2925 22.1948 98.3728 22.1858Z" fill="#094235" fill-opacity="1.000000" fill-rule="nonzero"/>
	<path d="M97.5706 22.9104C97.6418 22.9104 97.7043 22.8835 97.7668 22.8479C97.9629 22.7227 98.0251 22.4634 97.9004 22.2666C96.9287 20.7017 96.1177 19.7271 95.4224 19.2888C95.2263 19.1636 94.9678 19.2261 94.843 19.4141C94.7183 19.6106 94.7805 19.8701 94.9678 19.9951C95.5471 20.3618 96.2959 21.283 97.1873 22.7136C97.2764 22.8479 97.4192 22.9194 97.5706 22.9104Z" fill="#094235" fill-opacity="1.000000" fill-rule="nonzero"/>
	<path d="M80.135 9.56836C80.2153 9.55933 80.2866 9.5415 80.3579 9.49683C80.563 9.35376 80.6252 9.07642 80.4827 8.87085C80.0103 8.16431 79.2258 6.64429 78.9495 5.80371C78.8694 5.56226 78.6108 5.43701 78.3792 5.51758C78.1384 5.5979 78.0137 5.85742 78.0938 6.08984C78.397 7.01074 79.2258 8.61157 79.7339 9.38062C79.823 9.50586 79.9746 9.57739 80.135 9.56836Z" fill="#094235" fill-opacity="1.000000" fill-rule="nonzero"/>
	<path d="M79.4487 10.4448C79.4844 10.4448 79.52 10.436 79.5557 10.427C79.8052 10.3823 79.9658 10.1409 79.9124 9.89941C79.8677 9.64893 79.6182 9.48804 79.3862 9.54175C79.3418 9.54175 79.0476 9.50586 78.1028 8.67432C77.8442 8.45068 77.666 8.19141 77.4788 7.91431C77.3093 7.67285 77.1401 7.42236 76.9082 7.17212C76.739 6.98413 76.4536 6.97534 76.2666 7.15405C76.0793 7.32397 76.0703 7.61011 76.2488 7.79785C76.4448 8.00366 76.5874 8.21826 76.739 8.43286C76.9529 8.74585 77.1758 9.06787 77.5144 9.36279C78.397 10.1318 78.9941 10.4717 79.4487 10.4448Z" fill="#094235" fill-opacity="1.000000" fill-rule="nonzero"/>
	<path d="M79.3774 11.6069C79.5647 11.5979 79.7341 11.4727 79.7876 11.2759C79.8589 11.0344 79.7163 10.7842 79.4756 10.7126C77.5591 10.167 76.1953 9.97046 75.3218 10.1135C75.072 10.1582 74.9116 10.3906 74.9473 10.6411C74.9919 10.8914 75.2236 11.0613 75.4731 11.0166C76.2041 10.8914 77.47 11.0881 79.2349 11.5889C79.2795 11.5979 79.324 11.6069 79.3774 11.6069Z" fill="#094235" fill-opacity="1.000000" fill-rule="nonzero"/>
	<path d="M91.1526 71.0195C90.1008 70.9839 88.2112 70.322 87.5249 69.3384C87.3821 69.1328 86.6602 68.0598 86.5085 67.2549C86.3394 66.325 86.3394 65.5469 86.5085 64.4648C86.7493 62.9626 86.8027 62.9001 87.0613 62.8018C87.2217 62.739 87.4177 62.6675 88.8174 63.6423C90.4841 64.7959 92.053 67.6125 91.8035 70.322C91.7944 70.4563 91.7231 70.5725 91.6252 70.644C91.5896 70.8586 91.4202 71.0195 91.2063 71.0286C91.1794 71.0195 91.1704 71.0195 91.1526 71.0195ZM87.3999 64.6079C87.2395 65.5916 87.2395 66.2622 87.3911 67.085C87.4712 67.541 87.8901 68.2832 88.2646 68.8198C88.6746 69.4011 89.9851 69.9644 90.9031 70.0896C91.0547 67.7915 89.6909 65.3591 88.3003 64.3933C88.2021 64.3218 87.8279 64.0894 87.5249 63.9016C87.4802 64.1519 87.4268 64.447 87.3999 64.6079Z" fill="#094235" fill-opacity="1.000000" fill-rule="nonzero"/>
	<path d="M81.9358 54.396C81.7129 54.3782 80.572 54.2439 79.9302 53.8774C79.2083 53.457 78.6733 53.001 78.0493 52.2588C77.2026 51.2483 77.158 51.1768 77.2471 50.9175C77.3005 50.7744 77.363 50.6045 78.8337 50.2109C80.5898 49.7461 83.3977 50.3184 85.0735 52.062C85.1538 52.1514 85.1895 52.2588 85.1895 52.3662C85.323 52.5181 85.323 52.7507 85.1804 52.9026C84.6011 53.5376 83.2729 54.3423 82.23 54.396C82.1318 54.405 82.0339 54.405 81.9358 54.396ZM79.0479 50.998C78.9407 51.0247 78.5664 51.1411 78.2634 51.2393C78.3792 51.3826 78.5217 51.5522 78.6733 51.7312C79.2439 52.4109 79.6985 52.7954 80.3491 53.1709C80.7058 53.3765 81.4456 53.5286 82.0249 53.5823C82.6577 53.6538 83.7898 53.0815 84.4138 52.5271C82.9431 51.0962 80.5095 50.6135 79.0479 50.998Z" fill="#094235" fill-opacity="1.000000" fill-rule="nonzero"/>
	<path d="M84.6543 52.1335C84.5564 52.0889 84.4761 51.9993 84.4492 51.8831C83.7898 49.5491 84.7256 46.8308 86.0093 45.543C87.0789 44.4609 87.2749 44.4968 87.4177 44.5237C87.6672 44.5684 87.7207 44.6221 88.1665 45.8918C88.4873 46.8127 88.6121 47.5015 88.6121 48.342C88.6121 49.0752 88.1396 50.1304 88.0505 50.3362C87.6047 51.3108 86.0537 52.196 85.1357 52.3928C85.1179 52.4019 85.0911 52.4019 85.0732 52.4019C84.8772 52.4197 84.7078 52.3035 84.6543 52.1335ZM86.5708 46.1152C85.5012 47.1885 84.6899 49.5403 85.1892 51.5344C85.9824 51.2749 87.0432 50.5686 87.3018 49.9963C87.5425 49.4688 87.792 48.7534 87.792 48.342C87.792 47.5908 87.6851 47.0007 87.3909 46.1689C87.3284 45.9902 87.2483 45.7666 87.168 45.5608C86.9363 45.7756 86.6421 46.0437 86.5708 46.1152Z" fill="#094235" fill-opacity="1.000000" fill-rule="nonzero"/>
	<path d="M93.7556 54.4858C93.5505 54.45 93.4167 54.2622 93.4258 54.0566C93.3545 53.9761 93.3188 53.8599 93.3367 53.7437C93.6575 51.3469 95.5918 49.2188 97.2764 48.5481C98.6938 47.9846 98.8452 48.092 98.9702 48.1726C99.1841 48.3157 99.2107 48.3872 99.1216 49.7285C99.0503 50.7031 98.8987 51.3828 98.5601 52.1519C98.2749 52.8047 97.4905 53.5469 97.2498 53.7615C96.7061 54.2444 95.7166 54.4946 94.8518 54.5393C94.4419 54.5662 94.0496 54.5483 93.7556 54.4858ZM97.5796 49.2993C96.1711 49.8538 94.4954 51.6958 94.1655 53.7256C94.9946 53.7971 96.2424 53.5825 96.7148 53.1533C97.1428 52.76 97.6597 52.2056 97.8203 51.821C98.1233 51.1323 98.2571 50.5513 98.3193 49.6658C98.3284 49.478 98.3462 49.2366 98.355 49.022C98.043 49.1294 97.6775 49.2634 97.5796 49.2993Z" fill="#094235" fill-opacity="1.000000" fill-rule="nonzero"/>
	<path d="M96.7505 38.9702C96.5811 38.8718 96.5186 38.6663 96.5989 38.4963C96.5632 38.3979 96.5632 38.2908 96.6167 38.1924C97.615 36.2161 99.906 34.9463 101.573 34.8569C101.591 34.8569 101.608 34.8569 101.626 34.8569C103.026 34.7942 103.142 34.9373 103.222 35.0447C103.373 35.2415 103.355 35.3218 102.883 36.4485C102.527 37.2803 102.188 37.8257 101.662 38.3889C101.198 38.8899 100.227 39.3101 100.04 39.3906C99.8257 39.48 99.5762 39.5337 99.2998 39.5425C98.3994 39.6052 97.3208 39.3101 96.7505 38.9702ZM101.644 35.6079C100.218 35.6885 98.2302 36.7615 97.3298 38.4338C98.0339 38.7556 99.1929 38.9434 99.7275 38.7109C100.218 38.5054 100.833 38.1655 101.092 37.8882C101.564 37.3787 101.858 36.9136 102.179 36.1536C102.268 35.939 102.348 35.751 102.402 35.6079C102.099 35.5991 101.742 35.5991 101.644 35.6079Z" fill="#094235" fill-opacity="1.000000" fill-rule="nonzero"/>
	<path d="M96.3047 38.738C95.449 38.5859 93.9783 37.8438 93.5237 36.9673C93.4255 36.7795 92.9531 35.8318 92.9175 35.1521C92.8818 34.374 92.9619 33.7393 93.2205 32.8718C93.5771 31.6824 93.6216 31.6289 93.8533 31.5752C93.9871 31.5393 94.1565 31.5037 95.1995 32.4514C96.4385 33.5781 97.4099 36.0552 96.9019 38.2371C96.8752 38.3445 96.8127 38.4338 96.7236 38.4785C96.679 38.6306 96.5454 38.738 96.385 38.7468C96.3672 38.738 96.3315 38.738 96.3047 38.738ZM93.9426 33.0774C93.7107 33.8645 93.6306 34.4099 93.6663 35.0984C93.6841 35.4739 93.9426 36.1267 94.1831 36.6096C94.4507 37.1284 95.4578 37.7363 96.1978 37.9421C96.572 36.082 95.7253 33.9448 94.6914 32.9971C94.6199 32.9343 94.3438 32.6929 94.1118 32.5142C94.0583 32.7019 93.9961 32.9165 93.9426 33.0774Z" fill="#094235" fill-opacity="1.000000" fill-rule="nonzero"/>
	<path d="M85.0645 27.0505C84.8059 26.9253 83.9236 26.4604 83.5046 25.9507C83.0144 25.3516 82.7024 24.7881 82.3992 23.9387C81.9802 22.7583 81.9893 22.6958 82.1406 22.5168C82.23 22.4094 82.3457 22.2754 83.7451 22.4275C85.4121 22.5974 87.6584 24.0103 88.5408 26.0669C88.5854 26.1653 88.5764 26.2727 88.5408 26.3708C88.6033 26.5498 88.532 26.7466 88.3538 26.8359C87.917 27.0596 87.2126 27.2383 86.5173 27.283C85.9827 27.292 85.4568 27.2383 85.0645 27.0505ZM83.665 23.1606C83.5669 23.1519 83.2014 23.125 82.9072 23.116C82.9607 23.2859 83.0322 23.4915 83.0945 23.6794C83.3708 24.4485 83.6382 24.9312 84.075 25.4678C84.3157 25.7629 84.9041 26.1384 85.3853 26.3708C85.9114 26.6304 87.0789 26.5142 87.792 26.2368C87.0076 24.52 85.0557 23.3037 83.665 23.1606Z" fill="#094235" fill-opacity="1.000000" fill-rule="nonzero"/>
	<path d="M88.0417 26.0493C87.9614 25.9868 87.8992 25.8972 87.8901 25.79C87.6406 23.5632 88.8887 21.2205 90.2434 20.2458C91.3755 19.4231 91.5627 19.4856 91.6785 19.5303C91.9104 19.6108 91.937 19.6914 92.1599 20.8896C92.3203 21.7749 92.3293 22.4187 92.2046 23.1877C92.0974 23.8406 91.5627 24.6812 91.3933 24.9226C90.8406 25.7454 89.2986 26.3176 88.4338 26.3623C88.229 26.3713 88.0686 26.2371 88.0417 26.0493ZM90.6802 20.845C89.5481 21.6675 88.4517 23.6885 88.6211 25.5842C89.3789 25.468 90.4485 24.9851 90.7783 24.4934C91.0813 24.0461 91.4111 23.4292 91.4736 23.0537C91.5894 22.365 91.5806 21.8196 91.429 21.0059C91.3845 20.7822 91.3489 20.5854 91.322 20.4246C91.0635 20.5945 90.7605 20.7913 90.6802 20.845Z" fill="#094235" fill-opacity="1.000000" fill-rule="nonzero"/>
	<path d="M91.6162 70.4832C91.438 70.3401 91.3933 70.0808 91.5181 69.884C91.4915 69.7678 91.5181 69.6338 91.5894 69.5264C93.1672 67.3176 96.1978 66.2268 98.2034 66.4592C99.8972 66.647 100.004 66.8438 100.084 66.9868C100.218 67.2373 100.209 67.3267 99.4158 68.6055C98.8364 69.5354 98.3284 70.1255 97.5884 70.7068C96.9465 71.2166 95.6987 71.5474 95.458 71.6101C95.3333 71.6458 95.1907 71.6636 95.0481 71.6726C93.8982 71.7263 92.3472 71.0735 91.6162 70.4832ZM98.1143 67.3535C96.4207 67.1658 93.8 68.0957 92.4185 69.9377C93.1938 70.4475 94.5576 70.8945 95.2441 70.7158C95.877 70.5547 96.6704 70.2686 97.0359 69.9824C97.6953 69.4639 98.1321 68.9541 98.6582 68.1135C98.7561 67.9614 98.8987 67.7112 99.0325 67.4966C98.667 67.4338 98.2302 67.3713 98.1143 67.3535Z" fill="#094235" fill-opacity="1.000000" fill-rule="nonzero"/>
	<path d="M49.4895 99.2861C63.0205 99.2861 75.6604 93.9119 85.0732 84.147L83.5669 82.6804C74.5549 92.0339 62.459 97.1758 49.4983 97.1758C23.3721 97.1758 2.11255 75.8484 2.11255 49.6387C2.11255 23.4287 23.3542 2.10132 49.4895 2.10132C56.353 2.10132 62.9761 3.54126 69.1621 6.37573L70.0356 4.47119C63.5732 1.5022 56.656 0 49.4895 0C22.1953 0 0 22.2664 0 49.6475C0 77.0288 22.1953 99.2861 49.4895 99.2861Z" fill="#FFB774" fill-opacity="1.000000" fill-rule="nonzero"/>
	<path d="M18.9507 34.9731C18.2732 34.5974 17.7385 34.0698 17.3462 33.3901C16.9541 32.7107 16.749 31.9504 16.749 31.1099C16.749 30.2693 16.9451 29.5093 17.3462 28.8386C17.7385 28.168 18.2732 27.6404 18.9507 27.2649C19.6282 26.8892 20.3679 26.7014 21.1702 26.7014C21.9814 26.7014 22.7212 26.8892 23.3899 27.2649C24.0671 27.6404 24.5933 28.168 24.9854 28.8386C25.3777 29.5093 25.5647 30.2693 25.5647 31.1099C25.5647 31.9504 25.3687 32.7107 24.9766 33.3901C24.5842 34.0698 24.0493 34.5886 23.3809 34.9731C22.7124 35.3486 21.9724 35.5364 21.1614 35.5364C20.3591 35.5364 19.6194 35.3486 18.9507 34.9731ZM22.8193 32.9341C23.2292 32.478 23.4343 31.8701 23.4343 31.1189C23.4343 30.3589 23.2292 29.7507 22.8193 29.2947C22.4092 28.8386 21.8567 28.615 21.1702 28.615C20.4751 28.615 19.9224 28.8386 19.5122 29.2947C19.1023 29.7417 18.8972 30.3589 18.8972 31.1279C18.8972 31.8879 19.1023 32.4961 19.5122 32.9521C19.9224 33.4082 20.4751 33.6316 21.1702 33.6316C21.8567 33.6228 22.4092 33.3901 22.8193 32.9341Z" fill="#37393F" fill-opacity="1.000000" fill-rule="nonzero"/>
	<path d="M37.2417 35.4561L35.4502 32.2009L34.9509 32.2009L34.9509 35.4561L32.8562 35.4561L32.8562 26.8267L36.3682 26.8267C37.0457 26.8267 37.625 26.9429 38.0974 27.1843C38.5789 27.4258 38.9353 27.7478 39.1672 28.1592C39.3989 28.5703 39.5237 29.0354 39.5237 29.5452C39.5237 30.1174 39.3633 30.6272 39.0425 31.0833C38.7214 31.5393 38.2402 31.8523 37.6162 32.04L39.604 35.4561L37.2417 35.4561ZM34.9509 30.7075L36.2524 30.7075C36.6357 30.7075 36.9209 30.6091 37.1169 30.4214C37.3042 30.2336 37.4023 29.9653 37.4023 29.6255C37.4023 29.2947 37.3042 29.0444 37.1169 28.8477C36.9209 28.6599 36.6357 28.5615 36.2524 28.5615L34.9509 28.5615L34.9509 30.7075Z" fill="#37393F" fill-opacity="1.000000" fill-rule="nonzero"/>
	<path d="M52.6716 29.5535C52.52 29.2673 52.2974 29.0439 52.0032 28.8918C51.709 28.7397 51.3701 28.6682 50.978 28.6682C50.3005 28.6682 49.7568 28.8918 49.3467 29.3389C48.9368 29.7861 48.7317 30.3853 48.7317 31.1274C48.7317 31.9233 48.9456 32.5403 49.3735 32.9873C49.8013 33.4346 50.3896 33.658 51.1475 33.658C51.6643 33.658 52.1011 33.5239 52.4487 33.2646C52.8054 33.0054 53.0637 32.6296 53.2244 32.1379L50.5679 32.1379L50.5679 30.5908L55.1228 30.5908L55.1228 32.5493C54.9714 33.0769 54.7039 33.5596 54.3296 34.0156C53.9553 34.4629 53.4827 34.8296 52.9124 35.1067C52.3418 35.3838 51.6912 35.5271 50.978 35.5271C50.1311 35.5271 49.3735 35.3391 48.7051 34.9636C48.0364 34.5881 47.5195 34.0693 47.145 33.4077C46.7708 32.7458 46.5835 31.9858 46.5835 31.1362C46.5835 30.2869 46.7708 29.5266 47.145 28.856C47.5195 28.1853 48.0364 27.6667 48.696 27.2913C49.3557 26.9155 50.1133 26.7278 50.9602 26.7278C51.9854 26.7278 52.8589 26.9783 53.563 27.479C54.2671 27.9797 54.7397 28.6682 54.9624 29.5535L52.6716 29.5535Z" fill="#37393F" fill-opacity="1.000000" fill-rule="nonzero"/>
	<path d="M22.4539 49.9961L19.2449 49.9961L18.728 51.5164L16.5352 51.5164L19.646 42.887L22.0706 42.887L25.1816 51.5164L22.9619 51.5164L22.4539 49.9961ZM21.9192 48.3774L20.8494 45.2209L19.7976 48.3774L21.9192 48.3774Z" fill="#37393F" fill-opacity="1.000000" fill-rule="nonzero"/>
	<path d="M39.9517 51.5249L37.8569 51.5249L34.3538 46.2041L34.3538 51.5249L32.259 51.5249L32.259 42.8955L34.3538 42.8955L37.8569 48.2429L37.8569 42.8955L39.9517 42.8955L39.9517 51.5249Z" fill="#37393F" fill-opacity="1.000000" fill-rule="nonzero"/>
	<path d="M49.6855 42.8955L49.6855 51.5249L47.5908 51.5249L47.5908 42.8955L49.6855 42.8955Z" fill="#37393F" fill-opacity="1.000000" fill-rule="nonzero"/>
	<path d="M17.3018 60.9856C17.6672 60.3149 18.1841 59.7964 18.835 59.4209C19.4856 59.0452 20.2344 58.8574 21.0723 58.8574C22.0974 58.8574 22.9709 59.1257 23.6929 59.6711C24.4238 60.2078 24.905 60.95 25.1548 61.8799L22.855 61.8799C22.6855 61.5222 22.4448 61.2451 22.124 61.0571C21.812 60.8694 21.4556 60.771 21.0544 60.771C20.4126 60.771 19.8867 60.9946 19.4856 61.4507C19.0845 61.8977 18.8884 62.5059 18.8884 63.2571C18.8884 64.0081 19.0845 64.6162 19.4856 65.0635C19.8867 65.5105 20.4126 65.7429 21.0544 65.7429C21.4556 65.7429 21.812 65.6536 22.124 65.4568C22.436 65.269 22.6768 64.9919 22.855 64.634L25.1548 64.634C24.9141 65.5642 24.4238 66.3064 23.6929 66.8428C22.9619 67.3794 22.0884 67.6477 21.0723 67.6477C20.2432 67.6477 19.4944 67.46 18.835 67.0842C18.1753 66.7087 17.6672 66.1902 17.3018 65.5283C16.9363 64.8667 16.749 64.1064 16.749 63.2571C16.749 62.4165 16.9363 61.6562 17.3018 60.9856Z" fill="#37393F" fill-opacity="1.000000" fill-rule="nonzero"/>
	<path d="M37.9192 66.0654L34.7102 66.0654L34.1934 67.5857L32.0005 67.5857L35.1113 58.9563L37.5359 58.9563L40.647 67.5857L38.4272 67.5857L37.9192 66.0654ZM37.3755 64.4468L36.3059 61.2903L35.2539 64.4468L37.3755 64.4468Z" fill="#37393F" fill-opacity="1.000000" fill-rule="nonzero"/>
	<path d="M49.8103 65.967L52.5557 65.967L52.5557 67.5857L47.7156 67.5857L47.7156 58.9563L49.8103 58.9563L49.8103 65.967Z" fill="#37393F" fill-opacity="1.000000" fill-rule="nonzero"/>
	<path d="M18.8972 75.5452C19.022 75.697 19.0845 75.876 19.0845 76.0728C19.0845 76.2427 19.0398 76.3857 18.9507 76.5198C18.8616 76.6541 18.7368 76.7612 18.5764 76.8328C18.416 76.9133 18.2197 76.949 18.0059 76.949L16.6956 76.949L16.6956 73.6672L17.9436 73.6672C18.1663 73.6672 18.3625 73.7031 18.5229 73.7834C18.6833 73.864 18.8081 73.9624 18.8884 74.0876C18.9685 74.2126 19.0132 74.3557 19.0132 74.5168C19.0132 74.7046 18.9597 74.8655 18.8616 74.9907C18.7637 75.116 18.6299 75.2144 18.4604 75.2678C18.6299 75.2947 18.7725 75.3843 18.8972 75.5452ZM17.2305 75.0444L17.8989 75.0444C18.0771 75.0444 18.2109 75.0085 18.3088 74.9282C18.407 74.8477 18.4604 74.7314 18.4604 74.5793C18.4604 74.4272 18.407 74.3201 18.3088 74.2307C18.2109 74.1501 18.0684 74.1055 17.8989 74.1055L17.2305 74.1055L17.2305 75.0444ZM18.3892 76.3767C18.4961 76.2874 18.5408 76.1621 18.5408 76.01C18.5408 75.8491 18.4873 75.7239 18.3713 75.6255C18.2644 75.5273 18.1128 75.4824 17.9346 75.4824L17.2305 75.4824L17.2305 76.511L17.9524 76.511C18.1396 76.511 18.2822 76.4661 18.3892 76.3767Z" fill="#37393F" fill-opacity="1.000000" fill-rule="nonzero"/>
	<path d="M22.6768 76.77C22.4182 76.627 22.2219 76.4302 22.0706 76.1709C21.9189 75.9116 21.8477 75.6255 21.8477 75.3035C21.8477 74.9814 21.9189 74.6953 22.0706 74.436C22.2219 74.1768 22.4182 73.98 22.6768 73.8369C22.9351 73.6938 23.2114 73.6223 23.5146 73.6223C23.8264 73.6223 24.1028 73.6938 24.3613 73.8369C24.6199 73.98 24.8159 74.1768 24.9675 74.436C25.1191 74.6953 25.1904 74.9814 25.1904 75.3035C25.1904 75.6255 25.1191 75.9116 24.9675 76.1709C24.8159 76.4302 24.6199 76.627 24.3613 76.77C24.1028 76.9131 23.8264 76.9846 23.5146 76.9846C23.2114 76.9846 22.9263 76.9131 22.6768 76.77ZM24.094 76.3677C24.2632 76.2693 24.397 76.1262 24.4951 75.9385C24.593 75.7505 24.6377 75.5449 24.6377 75.2944C24.6377 75.053 24.593 74.8384 24.4951 74.6597C24.397 74.4807 24.2632 74.3376 24.094 74.2393C23.9246 74.1409 23.7285 74.0962 23.5146 74.0962C23.3005 74.0962 23.1045 74.1409 22.9351 74.2393C22.7659 74.3376 22.6321 74.4807 22.5339 74.6597C22.436 74.8384 22.3914 75.053 22.3914 75.2944C22.3914 75.5359 22.436 75.7505 22.5339 75.9385C22.6321 76.1262 22.7659 76.2603 22.9351 76.3677C23.1045 76.4661 23.3005 76.5195 23.5146 76.5195C23.7285 76.5195 23.9246 76.4661 24.094 76.3677Z" fill="#37393F" fill-opacity="1.000000" fill-rule="nonzero"/>
	<path d="M30.1821 73.6672L30.1821 74.1055L29.3086 74.1055L29.3086 76.949L28.7737 76.949L28.7737 74.1055L27.9001 74.1055L27.9001 73.6672L30.1821 73.6672Z" fill="#37393F" fill-opacity="1.000000" fill-rule="nonzero"/>
	<path d="M35.0579 76.2786L33.6851 76.2786L33.4534 76.9492L32.8918 76.9492L34.0684 73.6584L34.6924 73.6584L35.8691 76.9492L35.3074 76.9492L35.0579 76.2786ZM34.9062 75.8403L34.3716 74.3113L33.8367 75.8403L34.9062 75.8403Z" fill="#37393F" fill-opacity="1.000000" fill-rule="nonzero"/>
	<path d="M41.4136 76.9492L40.8787 76.9492L39.2654 74.499L39.2654 76.9492L38.7305 76.9492L38.7305 73.6584L39.2654 73.6584L40.8787 76.1086L40.8787 73.6584L41.4136 73.6584L41.4136 76.9492Z" fill="#37393F" fill-opacity="1.000000" fill-rule="nonzero"/>
	<path d="M45.0149 73.6672L45.0149 76.949L44.48 76.949L44.48 73.6672L45.0149 73.6672Z" fill="#37393F" fill-opacity="1.000000" fill-rule="nonzero"/>
	<path d="M48.1167 74.436C48.2683 74.1768 48.4644 73.98 48.7229 73.8369C48.9814 73.6938 49.2578 73.6223 49.5608 73.6223C49.9084 73.6223 50.2205 73.7117 50.4878 73.8816C50.7554 74.0515 50.9602 74.293 51.0762 74.615L50.4343 74.615C50.3542 74.4451 50.2292 74.3108 50.0779 74.2305C49.9263 74.1409 49.7568 74.1052 49.552 74.1052C49.3379 74.1052 49.1418 74.1499 48.9724 74.2483C48.8032 74.3467 48.6694 74.4897 48.5713 74.6685C48.4734 74.8474 48.4287 75.062 48.4287 75.3035C48.4287 75.5449 48.4734 75.7595 48.5713 75.9385C48.6694 76.1172 48.8032 76.2603 48.9724 76.3586C49.1418 76.457 49.3379 76.5107 49.552 76.5107C49.748 76.5107 49.9263 76.4661 50.0779 76.3855C50.2292 76.2961 50.3452 76.1709 50.4343 76.001L51.0762 76.001C50.9514 76.314 50.7554 76.5554 50.4878 76.7253C50.2114 76.8953 49.9084 76.9846 49.5608 76.9846C49.2488 76.9846 48.9724 76.9131 48.7141 76.77C48.4556 76.627 48.2593 76.4302 48.1079 76.1709C47.9563 75.9116 47.885 75.6255 47.885 75.3035C47.885 74.9814 47.9653 74.6865 48.1167 74.436Z" fill="#37393F" fill-opacity="1.000000" fill-rule="nonzero"/>
	<path d="M56.05 76.2786L54.6772 76.2786L54.4456 76.9492L53.884 76.9492L55.0605 73.6584L55.6846 73.6584L56.8613 76.9492L56.2996 76.9492L56.05 76.2786ZM55.8984 75.8403L55.3638 74.3113L54.8289 75.8403L55.8984 75.8403Z" fill="#37393F" fill-opacity="1.000000" fill-rule="nonzero"/>
	<path d="M60.2485 76.511L61.3538 76.511L61.3538 76.949L59.7136 76.949L59.7136 73.6672L60.2485 73.6672L60.2485 76.511Z" fill="#37393F" fill-opacity="1.000000" fill-rule="nonzero"/>
	<path d="M55.0786 44.7925L55.0786 45.7583L56.2107 45.7583L56.2107 46.1963L55.0786 46.1963L55.0786 47.2068L56.3533 47.2068L56.3533 47.645L54.5437 47.645L54.5437 44.3542L56.3533 44.3542L56.3533 44.7925L55.0786 44.7925Z" fill="#37393F" fill-opacity="1.000000" fill-rule="nonzero"/>
	<path d="M58.9114 47.5642C58.7332 47.4836 58.5994 47.3765 58.5015 47.2334C58.4033 47.0903 58.3499 46.9292 58.3499 46.7415L58.9204 46.7415C58.9292 46.8845 58.9917 47.0007 59.0896 47.0903C59.1877 47.1797 59.3303 47.2244 59.5085 47.2244C59.6958 47.2244 59.8384 47.1797 59.9453 47.0903C60.0525 47.0007 60.0969 46.8845 60.0969 46.7415C60.0969 46.6343 60.0613 46.5447 59.999 46.4731C59.9365 46.4016 59.8562 46.3479 59.7583 46.3123C59.6602 46.2764 59.5264 46.2317 59.3572 46.187C59.1431 46.1333 58.9739 46.0708 58.8401 46.0171C58.7063 45.9634 58.5906 45.8652 58.5015 45.7488C58.4033 45.6238 58.3589 45.4626 58.3589 45.2571C58.3589 45.0693 58.4033 44.8994 58.5015 44.7563C58.5994 44.6133 58.7241 44.5059 58.8936 44.4343C59.063 44.3628 59.259 44.3181 59.4819 44.3181C59.8027 44.3181 60.0613 44.3987 60.2664 44.5596C60.4714 44.7205 60.5784 44.9351 60.605 45.2124L60.0078 45.2124C59.999 45.0962 59.9453 44.9888 59.8384 44.9082C59.7314 44.8279 59.5979 44.7832 59.4285 44.7832C59.2769 44.7832 59.1521 44.8188 59.054 44.8994C58.9561 44.9797 58.9114 45.0872 58.9114 45.2393C58.9114 45.3376 58.9382 45.427 59.0005 45.4895C59.063 45.5522 59.1431 45.6057 59.2324 45.6416C59.3303 45.6772 59.4551 45.7222 59.6157 45.7668C59.8296 45.8293 60.0078 45.8831 60.1416 45.9456C60.2751 46.0083 60.3911 46.0977 60.4893 46.2229C60.5872 46.3479 60.6318 46.509 60.6318 46.7236C60.6318 46.8936 60.5872 47.0454 60.498 47.1975C60.4089 47.3496 60.2751 47.4658 60.106 47.5552C59.9365 47.6445 59.7314 47.6895 59.4998 47.6895C59.2859 47.6804 59.0896 47.6357 58.9114 47.5642Z" fill="#37393F" fill-opacity="1.000000" fill-rule="nonzero"/>
	<path d="M64.8035 44.363L64.8035 44.8013L63.9299 44.8013L63.9299 47.6448L63.395 47.6448L63.395 44.8013L62.5215 44.8013L62.5215 44.363L64.8035 44.363Z" fill="#37393F" fill-opacity="1.000000" fill-rule="nonzero"/>
	<path d="M54.7754 52.5806C55.0784 52.3213 55.3103 52.1067 55.4885 51.9368C55.6667 51.7668 55.8093 51.5881 55.9253 51.4092C56.041 51.2302 56.1035 51.0425 56.1035 50.8638C56.1035 50.676 56.0588 50.5239 55.9697 50.4165C55.8806 50.3093 55.738 50.2556 55.5508 50.2556C55.3638 50.2556 55.2209 50.3181 55.123 50.4346C55.0161 50.5508 54.9626 50.7117 54.9626 50.9084L54.4456 50.9084C54.4546 50.5508 54.5615 50.2734 54.7664 50.0857C54.9714 49.8979 55.23 49.7996 55.5508 49.7996C55.8896 49.7996 56.157 49.8979 56.353 50.0857C56.5493 50.2734 56.6472 50.5239 56.6472 50.8457C56.6472 51.0693 56.5938 51.293 56.4778 51.4985C56.3621 51.7043 56.2283 51.8921 56.0679 52.062C55.9075 52.2319 55.7114 52.4197 55.4617 52.6343L55.2478 52.822L56.7363 52.822L56.7363 53.2693L54.4456 53.2693L54.4456 52.8757L54.7754 52.5806Z" fill="#37393F" fill-opacity="1.000000" fill-rule="nonzero"/>
	<path d="M58.8845 50.2734C59.0718 49.9692 59.3835 49.8083 59.8381 49.8083C60.293 49.8083 60.6047 49.9604 60.7832 50.2734C60.9702 50.5774 61.0596 51.0066 61.0596 51.552C61.0596 52.1064 60.9702 52.5356 60.7832 52.8486C60.5959 53.1616 60.2839 53.3137 59.8381 53.3137C59.3926 53.3137 59.0718 53.1616 58.8845 52.8486C58.6973 52.5356 58.6082 52.1064 58.6082 51.552C58.6082 51.0066 58.6973 50.5774 58.8845 50.2734ZM60.48 50.8994C60.4443 50.7205 60.3821 50.5774 60.2839 50.47C60.1858 50.3628 60.0344 50.3003 59.8381 50.3003C59.6421 50.3003 59.4907 50.3538 59.3926 50.47C59.2944 50.5864 59.2231 50.7295 59.1965 50.8994C59.1697 51.0691 59.1431 51.2927 59.1431 51.5432C59.1431 51.8115 59.1609 52.0261 59.1875 52.2139C59.2144 52.4016 59.2856 52.5356 59.3835 52.6521C59.4817 52.7593 59.6333 52.8218 59.8293 52.8218C60.0254 52.8218 60.177 52.7683 60.2751 52.6521C60.373 52.5447 60.4443 52.3926 60.4712 52.2139C60.4978 52.0349 60.5156 51.8115 60.5156 51.5432C60.5247 51.2927 60.5068 51.0781 60.48 50.8994Z" fill="#37393F" fill-opacity="1.000000" fill-rule="nonzero"/>
	<path d="M63.3325 52.5806C63.6355 52.3213 63.8674 52.1067 64.0457 51.9368C64.2239 51.7668 64.3665 51.5881 64.4824 51.4092C64.5981 51.2302 64.6606 51.0425 64.6606 50.8638C64.6606 50.676 64.616 50.5239 64.5269 50.4165C64.4377 50.3093 64.2952 50.2556 64.1079 50.2556C63.9209 50.2556 63.7781 50.3181 63.6802 50.4346C63.5732 50.5508 63.5198 50.7117 63.5198 50.9084L63.0027 50.9084C63.0117 50.5508 63.1187 50.2734 63.3235 50.0857C63.5286 49.8979 63.7871 49.7996 64.1079 49.7996C64.4468 49.7996 64.7141 49.8979 64.9102 50.0857C65.1064 50.2734 65.2043 50.5239 65.2043 50.8457C65.2043 51.0693 65.1509 51.293 65.0349 51.4985C64.9192 51.7043 64.7854 51.8921 64.625 52.062C64.4646 52.2319 64.2686 52.4197 64.0188 52.6343L63.8049 52.822L65.2935 52.822L65.2935 53.2693L63.0027 53.2693L63.0027 52.8757L63.3325 52.5806Z" fill="#37393F" fill-opacity="1.000000" fill-rule="nonzero"/>
	<path d="M67.4509 50.2734C67.6382 49.9692 67.95 49.8083 68.4045 49.8083C68.8594 49.8083 69.1711 49.9604 69.3496 50.2734C69.5366 50.5774 69.626 51.0066 69.626 51.552C69.626 52.1064 69.5366 52.5356 69.3496 52.8486C69.1624 53.1616 68.8503 53.3137 68.4045 53.3137C67.959 53.3137 67.6382 53.1616 67.4509 52.8486C67.2637 52.5356 67.1746 52.1064 67.1746 51.552C67.1746 51.0066 67.2637 50.5774 67.4509 50.2734ZM69.0464 50.8994C69.0107 50.7205 68.9485 50.5774 68.8503 50.47C68.7522 50.3628 68.6008 50.3003 68.4045 50.3003C68.2085 50.3003 68.0571 50.3538 67.959 50.47C67.8608 50.5864 67.7896 50.7295 67.7629 50.8994C67.7361 51.0691 67.7095 51.2927 67.7095 51.5432C67.7095 51.8115 67.7273 52.0261 67.7539 52.2139C67.7808 52.4016 67.8521 52.5356 67.95 52.6521C68.0481 52.7593 68.1997 52.8218 68.3958 52.8218C68.5918 52.8218 68.7434 52.7683 68.8416 52.6521C68.9395 52.5447 69.0107 52.3926 69.0376 52.2139C69.0642 52.0349 69.082 51.8115 69.082 51.5432C69.0911 51.2927 69.0732 51.0781 69.0464 50.8994Z" fill="#37393F" fill-opacity="1.000000" fill-rule="nonzero"/>
</svg>
