<svg width="136.964111" height="43.897949" viewBox="0 0 136.964 43.8979" fill="none" xmlns="http://www.w3.org/2000/svg" xmlns:xlink="http://www.w3.org/1999/xlink">
	<desc>
			Created with Pixso.
	</desc>
	<defs/>
	<path id="Vector" d="M12.1372 0L12.1372 0.192383L11.333 0.384521L11.333 8.90381L12.1372 9.09619L12.1372 9.28833L8.32471 9.28833L8.32471 9.09619L9.12891 8.90381L9.12891 1.64185L5.97192 9.42139L5.56958 9.42139L1.47437 1.64185L1.47437 8.69678L2.54663 9.09619L2.54663 9.28833L0 9.28833L0 9.09619L1.07227 8.69678L1.07227 0.384521L0.268066 0.192383L0.268066 0L1.93604 0C2.18921 0 2.4126 0.029541 2.59131 0.088623C2.77002 0.147949 2.94873 0.221924 3.08276 0.325439C3.23169 0.428955 3.35083 0.547363 3.45508 0.68042C3.55933 0.813477 3.64868 0.976074 3.73804 1.13892L6.65674 6.6853L8.89062 1.13892C8.96509 0.946533 9.03955 0.783936 9.1438 0.650879C9.23315 0.517578 9.35229 0.399414 9.48633 0.295898C9.62036 0.192383 9.78418 0.118408 9.97778 0.0739746C10.1714 0.029541 10.4097 0 10.7075 0L12.1372 0Z" fill="#094235" fill-opacity="1.000000" fill-rule="nonzero"/>
	<path id="Vector" d="M16.9028 2.46973C17.4539 2.46973 17.9602 2.5437 18.3921 2.7063C18.824 2.86914 19.196 3.10571 19.5088 3.40161C19.8215 3.71216 20.0449 4.08179 20.2087 4.51074C20.3726 4.9397 20.447 5.44263 20.447 5.98975C20.447 6.53711 20.3726 7.04004 20.2087 7.46899C20.0449 7.89771 19.8066 8.26758 19.5088 8.57812C19.196 8.88867 18.824 9.1106 18.3921 9.27344C17.9602 9.43604 17.4539 9.51001 16.9028 9.51001C16.3518 9.51001 15.8455 9.43604 15.4136 9.27344C14.9817 9.1106 14.6094 8.87402 14.2966 8.57812C13.9839 8.26758 13.7605 7.89771 13.5967 7.46899C13.4329 7.04004 13.3584 6.53711 13.3584 5.98975C13.3584 5.44263 13.4329 4.9397 13.5967 4.51074C13.7605 4.08179 13.9988 3.71216 14.2966 3.40161C14.6094 3.09082 14.9817 2.86914 15.4136 2.7063C15.8455 2.5437 16.3369 2.46973 16.9028 2.46973ZM16.9028 9.25854C17.0518 9.25854 17.2007 9.21411 17.3645 9.1106C17.5134 9.00708 17.6475 8.84448 17.7666 8.59302C17.8857 8.34155 17.99 8.01611 18.0645 7.60205C18.1389 7.1731 18.1833 6.64062 18.1833 6.00464C18.1833 5.35376 18.1389 4.82129 18.0645 4.40723C17.99 3.99316 17.8857 3.65308 17.7666 3.41626C17.6475 3.17969 17.5134 3.0022 17.3645 2.89868C17.2156 2.79517 17.0667 2.75073 16.9028 2.75073C16.7539 2.75073 16.605 2.79517 16.4412 2.89868C16.2922 3.0022 16.1582 3.16479 16.0391 3.41626C15.9199 3.66772 15.8157 3.99316 15.7412 4.40723C15.6667 4.83618 15.6221 5.36865 15.6221 6.00464C15.6221 6.65552 15.6667 7.18799 15.7412 7.60205C15.8157 8.01611 15.9199 8.3562 16.0391 8.59302C16.1582 8.82959 16.2922 9.00708 16.4412 9.1106C16.5901 9.19946 16.739 9.25854 16.9028 9.25854Z" fill="#094235" fill-opacity="1.000000" fill-rule="nonzero"/>
	<path id="Vector" d="M26.9553 0C27.7593 0 28.1614 0.399414 28.1614 1.198L28.1614 8.9187L28.9656 9.11084L28.9656 9.30322L27.7595 9.30322C27.4319 9.30322 27.1785 9.25879 26.9849 9.15527C26.7913 9.05176 26.6277 8.93335 26.5234 8.81519C26.3894 8.66724 26.2852 8.48975 26.2256 8.31226C26.1064 8.54883 25.9575 8.74121 25.7788 8.9187C25.6299 9.06665 25.4214 9.19971 25.1682 9.33276C24.915 9.46582 24.6172 9.52515 24.2747 9.52515C23.8875 9.52515 23.53 9.45117 23.2024 9.30322C22.8599 9.15527 22.5769 8.93335 22.3386 8.6377C22.1003 8.3418 21.8918 7.97192 21.7578 7.54321C21.6089 7.09937 21.5493 6.59644 21.5493 6.00488C21.5493 5.41333 21.6238 4.9104 21.7578 4.4668C21.9067 4.02295 22.1003 3.66797 22.3684 3.37231C22.6216 3.07642 22.9343 2.85449 23.2917 2.70654C23.6492 2.55884 24.0513 2.48486 24.498 2.48486C24.7363 2.48486 24.9448 2.5144 25.1384 2.55884C25.332 2.61792 25.4958 2.677 25.6299 2.75098C25.7937 2.82495 25.9277 2.91382 26.0469 3.01733L26.0469 0.428955L25.2427 0.236572L25.2427 0.0444336L26.9553 0.0444336L26.9553 0ZM26.0171 3.40186C25.9128 3.29834 25.8235 3.20947 25.7043 3.1355C25.6001 3.06152 25.4958 3.00244 25.3767 2.94336C25.2576 2.88403 25.1384 2.86938 25.0044 2.86938C24.8406 2.86938 24.6768 2.91382 24.5278 3.00244C24.3789 3.09131 24.2598 3.23901 24.1406 3.46094C24.0364 3.68286 23.947 4.0083 23.8875 4.40747C23.8279 4.82178 23.7981 5.33936 23.7981 5.99023C23.7981 6.62622 23.8279 7.12891 23.8875 7.52832C23.947 7.92773 24.0215 8.23828 24.1257 8.46021C24.2151 8.68188 24.3193 8.84473 24.4534 8.9187C24.5725 8.99268 24.6917 9.03687 24.8108 9.03687C25.0193 9.03687 25.198 8.97778 25.3469 8.87427C25.4958 8.77075 25.615 8.6377 25.7192 8.50439C25.8384 8.3418 25.9426 8.16431 26.032 7.97192L26.032 3.40186L26.0171 3.40186Z" fill="#094235" fill-opacity="1.000000" fill-rule="nonzero"/>
	<path id="Vector" d="M33.448 9.52466C32.3013 9.52466 31.4077 9.21411 30.7822 8.59277C30.1418 7.97168 29.8291 7.09888 29.8291 6.00439C29.8291 5.45728 29.9036 4.95435 30.0674 4.52539C30.2312 4.09644 30.4546 3.72681 30.7375 3.41626C31.0205 3.10547 31.363 2.88379 31.78 2.72095C32.1821 2.55835 32.6289 2.48438 33.1204 2.48438C33.6267 2.48438 34.0735 2.55835 34.4607 2.69141C34.8628 2.83936 35.1904 3.03174 35.4734 3.26831C35.7563 3.50488 35.9646 3.78589 36.1135 4.11133C36.2625 4.43677 36.3369 4.77686 36.3369 5.14673C36.3369 5.26489 36.3369 5.3833 36.322 5.47192C36.3071 5.56079 36.2925 5.64941 36.2776 5.72339C36.2478 5.81226 36.2327 5.88623 36.2029 5.94531C35.8157 6.01929 35.3987 6.09326 34.9521 6.1377C34.5798 6.19678 34.1479 6.24121 33.6565 6.27075C33.165 6.30029 32.6587 6.32983 32.1226 6.32983C32.1226 6.8772 32.1672 7.33569 32.2417 7.70532C32.3162 8.0752 32.4353 8.37085 32.5693 8.57812C32.7183 8.7998 32.8821 8.94775 33.0757 9.03662C33.2693 9.12524 33.4927 9.16968 33.7161 9.16968C33.9841 9.16968 34.2373 9.12524 34.4756 9.02173C34.7139 8.91821 34.9224 8.7998 35.0862 8.63721C35.2646 8.47461 35.3987 8.28223 35.5029 8.0752C35.6072 7.86816 35.6519 7.66113 35.6519 7.43921L35.9795 7.43921C35.9795 7.70532 35.9199 7.95679 35.801 8.20825C35.6819 8.45972 35.5029 8.68164 35.2798 8.87378C35.0564 9.06616 34.7883 9.21411 34.4756 9.33228C34.1777 9.46533 33.8352 9.52466 33.448 9.52466ZM32.1077 5.98975C32.4055 5.98975 32.6736 5.98975 32.9119 5.97485C33.1501 5.96021 33.3438 5.94531 33.5076 5.93066C33.7012 5.91577 33.8501 5.88623 33.9841 5.87134C33.999 5.78271 34.0288 5.6792 34.0437 5.57568C34.0586 5.47192 34.0735 5.36841 34.0884 5.25024C34.1033 5.13184 34.1033 4.99878 34.1033 4.86572C34.1033 4.46631 34.0735 4.12622 34.0139 3.85986C33.9543 3.59375 33.8799 3.37183 33.7756 3.19434C33.6863 3.03174 33.582 2.89844 33.448 2.83936C33.314 2.78027 33.2097 2.73584 33.0906 2.73584C32.9714 2.73584 32.8523 2.78027 32.7332 2.8689C32.614 2.95776 32.5098 3.12036 32.4055 3.34229C32.3162 3.57886 32.2268 3.9043 32.1672 4.33325C32.1077 4.76221 32.1077 5.30933 32.1077 5.98975Z" fill="#094235" fill-opacity="1.000000" fill-rule="nonzero"/>
	<path id="Vector" d="M41.9663 2.92847C41.6985 2.92847 41.4602 2.98755 41.2517 3.09106C41.0432 3.19458 40.8645 3.32764 40.7156 3.46094C40.5518 3.62354 40.4177 3.80103 40.2837 3.99341L40.2837 8.91846L41.0879 9.11084L41.0879 9.30298L37.335 9.30298L37.335 9.11084L38.1392 8.91846L38.1392 3.06152L37.335 2.86914L37.335 2.677L38.5413 2.677C38.854 2.677 39.1072 2.73608 39.3157 2.8396C39.5093 2.94312 39.6731 3.06152 39.7922 3.17993C39.9263 3.32764 40.0305 3.49048 40.0901 3.66797C40.2241 3.47559 40.3879 3.2981 40.5815 3.1355C40.7454 3.00244 40.9539 2.88403 41.207 2.76562C41.4602 2.64746 41.7432 2.60303 42.0857 2.60303C42.5623 2.60303 42.9197 2.72144 43.1577 2.92847C43.396 3.15039 43.5002 3.46094 43.5002 3.86011C43.5002 4.15601 43.4109 4.40747 43.2322 4.58496C43.0535 4.76245 42.8003 4.85107 42.5027 4.85107C42.4282 4.85107 42.3684 4.85107 42.2939 4.85107C42.2195 4.85107 42.175 4.83643 42.1304 4.83643C42.0708 4.82153 42.011 4.82153 41.9663 4.79199L41.9663 2.92847Z" fill="#094235" fill-opacity="1.000000" fill-rule="nonzero"/>
	<path id="Vector" d="M49.2634 4.65894C49.2634 4.36304 49.2336 4.09692 49.1741 3.875C49.1145 3.65308 49.0403 3.47559 48.936 3.34253C48.8467 3.19458 48.7424 3.09106 48.6084 3.03198C48.4893 2.97266 48.3699 2.92847 48.2507 2.92847C48.0422 2.92847 47.8638 2.98755 47.7148 3.09106C47.5659 3.19458 47.4319 3.32764 47.3425 3.46094C47.2234 3.62354 47.134 3.80103 47.0447 3.99316L47.0447 8.91846L47.8489 9.11084L47.8489 9.30298L44.0959 9.30298L44.0959 9.11084L44.9001 8.91846L44.9001 3.06152L44.0959 2.86914L44.0959 2.677L45.3022 2.677C45.615 2.677 45.8682 2.73608 46.0767 2.8396C46.2703 2.94312 46.4341 3.06152 46.5532 3.17969C46.6873 3.32764 46.7915 3.49048 46.8511 3.66797C46.9702 3.44604 47.1191 3.23901 47.2979 3.06152C47.4468 2.91357 47.6553 2.78052 47.8936 2.64746C48.1318 2.51416 48.4443 2.45508 48.8018 2.45508C49.189 2.45508 49.5464 2.51416 49.8591 2.64746C50.1868 2.76562 50.4548 2.94312 50.6782 3.1355C50.9016 3.34253 51.0803 3.56445 51.2144 3.83057C51.3484 4.09692 51.408 4.36304 51.408 4.64404L51.408 8.90381L52.2122 9.09595L52.2122 9.28833L50.4697 9.28833C49.6655 9.28833 49.2634 8.88892 49.2634 8.09033L49.2634 4.65894Z" fill="#094235" fill-opacity="1.000000" fill-rule="nonzero"/>
	<path id="Vector" d="M1.41479 18.6506L1.41479 18.1033L11.7649 18.1033L11.7649 18.6506L9.59058 19.1978L9.59058 30.3645L17.394 30.3645L17.394 19.1978L15.22 18.6506L15.22 18.1033L25.5701 18.1033L25.5701 18.6506L23.3958 19.1978L23.3958 42.2708L25.5701 42.8181L25.5701 43.3652L15.22 43.3652L15.22 42.8032L17.394 42.2561L17.394 31.2668L9.59058 31.2668L9.59058 42.2561L11.7649 42.8032L11.7649 43.3506L1.41479 43.3506L1.41479 42.8032L3.58911 42.2561L3.58911 19.1829L1.41479 18.6506Z" fill="#37393F" fill-opacity="1.000000" fill-rule="nonzero"/>
	<path id="Vector" d="M38.4368 24.7739C39.9409 24.7739 41.2812 24.9958 42.4727 25.4248C43.6641 25.8535 44.6616 26.4895 45.4956 27.3179C46.3296 28.1462 46.97 29.1519 47.4019 30.3352C47.8337 31.5183 48.0571 32.8496 48.0571 34.3433C48.0571 35.8372 47.8337 37.1682 47.4019 38.3516C46.97 39.5347 46.3296 40.5256 45.4956 41.354C44.6616 42.1821 43.6492 42.8184 42.4727 43.2471C41.2812 43.676 39.9409 43.8979 38.4368 43.8979C36.9326 43.8979 35.5923 43.676 34.4009 43.2471C33.2097 42.8184 32.2119 42.1821 31.3779 41.354C30.5439 40.5256 29.9036 39.52 29.4717 38.3516C29.0398 37.1682 28.8164 35.8372 28.8164 34.3433C28.8164 32.8496 29.0398 31.5183 29.4717 30.3352C29.9036 29.1519 30.5439 28.1609 31.3779 27.3179C32.2119 26.4749 33.2246 25.8535 34.4009 25.4248C35.5923 24.9958 36.9326 24.7739 38.4368 24.7739ZM38.4368 43.1584C38.8538 43.1584 39.2559 43.0254 39.6729 42.759C40.0898 42.4929 40.4473 42.0344 40.7749 41.3689C41.1025 40.7031 41.3706 39.801 41.5791 38.6621C41.7876 37.5232 41.8918 36.0737 41.8918 34.3137C41.8918 32.5537 41.7876 31.1042 41.5791 29.9653C41.3706 28.8264 41.1025 27.9243 40.7749 27.2588C40.4473 26.5933 40.075 26.1348 39.6729 25.8684C39.2708 25.6023 38.8538 25.469 38.4368 25.469C38.0198 25.469 37.6177 25.6023 37.2007 25.8684C36.7837 26.1348 36.4263 26.5933 36.0986 27.2588C35.771 27.9243 35.5029 28.8264 35.2944 29.9653C35.0859 31.1042 34.9817 32.5537 34.9817 34.3137C34.9817 36.0737 35.0859 37.5232 35.2944 38.6621C35.5029 39.801 35.771 40.7031 36.0986 41.3689C36.4263 42.0344 36.7986 42.4929 37.2007 42.759C37.6177 43.0254 38.0198 43.1584 38.4368 43.1584Z" fill="#37393F" fill-opacity="1.000000" fill-rule="nonzero"/>
	<path id="Vector" d="M75.2654 30.72C75.2654 29.8621 75.1909 29.1226 75.042 28.5457C74.8931 27.969 74.7144 27.481 74.4761 27.1111C74.2378 26.7415 73.9846 26.4751 73.7166 26.2976C73.4336 26.135 73.1655 26.0461 72.8975 26.0461C72.4358 26.0461 72.0337 26.1941 71.6763 26.49C71.3188 26.7856 71.021 27.126 70.7529 27.481C70.47 27.9097 70.2019 28.3979 69.9934 28.9155L69.9934 42.2566L72.1826 42.8037L72.1826 43.3511L62.0261 43.3511L62.0261 42.8037L64.2004 42.2566L64.2004 30.72C64.2004 29.8621 64.126 29.1226 63.9771 28.5457C63.8281 27.969 63.6494 27.481 63.4111 27.1111C63.1729 26.7415 62.9197 26.4751 62.6516 26.2976C62.3687 26.135 62.1006 26.0461 61.8325 26.0461C61.3708 26.0461 60.9688 26.1941 60.6113 26.49C60.2539 26.7856 59.9561 27.126 59.688 27.481C59.3901 27.9097 59.137 28.3979 58.9285 28.9155L58.9285 42.2566L61.1028 42.8037L61.1028 43.3511L50.9463 43.3511L50.9463 42.8037L53.1206 42.2566L53.1206 26.4011L50.9463 25.854L50.9463 25.3066L54.2078 25.3066C55.0566 25.3066 55.7566 25.4546 56.2925 25.7356C56.8435 26.0166 57.2607 26.342 57.5884 26.6675C57.9456 27.0815 58.2136 27.5251 58.3923 27.9985C58.7051 27.3921 59.0923 26.8596 59.554 26.3716C59.9709 25.9575 60.4773 25.5876 61.073 25.2476C61.6836 24.9072 62.4133 24.7446 63.292 24.7446C64.7366 24.7446 66.0024 25.0701 67.0447 25.7061C68.1021 26.342 68.9062 27.1702 69.4573 28.176C69.77 27.5547 70.1572 26.9927 70.6189 26.4751C71.0359 26.0461 71.5422 25.6467 72.1379 25.292C72.7485 24.937 73.4783 24.7446 74.3569 24.7446C75.3547 24.7446 76.2483 24.9072 77.0823 25.218C77.9014 25.5286 78.6162 25.9575 79.2117 26.5046C79.8074 27.052 80.269 27.6731 80.5967 28.3979C80.9243 29.1226 81.0881 29.8916 81.0881 30.7051L81.0881 42.2417L83.2625 42.7891L83.2625 43.3362L78.5415 43.3362C76.3674 43.3362 75.2803 42.2566 75.2803 40.0972L75.2803 30.72L75.2654 30.72Z" fill="#37393F" fill-opacity="1.000000" fill-rule="nonzero"/>
	<path id="Vector" d="M95.2358 43.8835C92.1382 43.8835 89.7258 43.0405 88.0132 41.3396C86.3005 39.6387 85.4368 37.3167 85.4368 34.3289C85.4368 32.8352 85.6602 31.5039 86.092 30.3208C86.5239 29.1375 87.1345 28.1465 87.9089 27.3035C88.6833 26.4751 89.6216 25.8391 90.7236 25.4104C91.8257 24.9814 93.0317 24.7595 94.3274 24.7595C95.6826 24.7595 96.9038 24.9519 97.9761 25.3364C99.0483 25.7209 99.9717 26.2385 100.716 26.8894C101.461 27.54 102.042 28.3093 102.444 29.1819C102.846 30.0544 103.039 30.9863 103.039 31.9773C103.039 32.3174 103.024 32.6133 102.98 32.8647C102.935 33.1162 102.905 33.3379 102.846 33.5303C102.771 33.7668 102.712 33.9739 102.667 34.1367C101.595 34.3584 100.478 34.5359 99.2866 34.6838C98.2739 34.8318 97.0974 34.9502 95.772 35.0684C94.4465 35.1719 93.0466 35.2312 91.6023 35.2312C91.6023 36.7249 91.7065 37.9673 91.9297 38.9583C92.1531 39.9492 92.4509 40.748 92.8381 41.3396C93.2253 41.9312 93.687 42.3452 94.2231 42.5967C94.7593 42.8481 95.3401 42.9812 95.9656 42.9812C96.6953 42.9812 97.3804 42.8481 98.0208 42.582C98.6611 42.3157 99.2122 41.9607 99.6887 41.5171C100.165 41.0732 100.538 40.5706 100.821 40.0085C101.104 39.4463 101.238 38.8696 101.238 38.2927L102.146 38.2927C102.146 39.0176 101.982 39.7126 101.655 40.3782C101.327 41.0586 100.865 41.6501 100.255 42.1677C99.644 42.6855 98.9292 43.0996 98.0803 43.4102C97.2166 43.7209 96.2634 43.8835 95.2358 43.8835ZM91.6023 34.3289C92.4211 34.3289 93.1509 34.3142 93.7764 34.2698C94.4019 34.2253 94.938 34.1958 95.3699 34.1514C95.8762 34.1072 96.3081 34.0479 96.6804 33.9739C96.7251 33.7373 96.7847 33.4712 96.8591 33.1753C96.9038 32.9089 96.9485 32.6133 96.9783 32.2878C97.0081 31.9624 97.0378 31.6223 97.0378 31.2673C97.0378 30.1875 96.9485 29.2854 96.7847 28.5459C96.6208 27.8064 96.3975 27.2148 96.1443 26.7563C95.8911 26.2976 95.5933 25.9724 95.2805 25.78C94.9529 25.5879 94.6252 25.4841 94.3125 25.4841C93.9998 25.4841 93.6721 25.6025 93.3445 25.8245C93.0168 26.061 92.7339 26.49 92.4807 27.126C92.2275 27.762 92.019 28.6643 91.8406 29.8179C91.6917 30.9714 91.6023 32.4802 91.6023 34.3289Z" fill="#37393F" fill-opacity="1.000000" fill-rule="nonzero"/>
	<path id="Vector" d="M120.865 42.981L120.865 28.353L107.85 18.1182L107.85 42.981L120.865 42.981Z" fill="#FFB774" fill-opacity="1.000000" fill-rule="nonzero"/>
	<path id="Vector" d="M136.964 42.981L136.964 28.353L124.157 18.1182L124.157 42.981L136.964 42.981Z" fill="#FFB774" fill-opacity="1.000000" fill-rule="nonzero"/>
</svg>
