<svg width="170.449707" height="44.322021" viewBox="0 0 170.45 44.322" fill="none" xmlns="http://www.w3.org/2000/svg" xmlns:xlink="http://www.w3.org/1999/xlink">
	<desc>
			Created with Pixso.
	</desc>
	<defs/>
	<path d="M36.303 44.322L8.32422 44.322C3.72632 44.322 0 40.6211 0 36.0547L0 8.26733C0 3.70093 3.72632 0 8.32422 0L36.303 0C40.9009 0 44.627 3.70093 44.627 8.26733L44.627 36.0547C44.627 40.6211 40.9009 44.322 36.303 44.322Z" fill="#094235" fill-opacity="1.000000" fill-rule="nonzero"/>
	<path d="M30.3533 22.5688C31.1492 23.5598 31.5535 24.7141 31.5535 26.0188C31.5535 27.938 30.9092 29.4436 29.6208 30.5098C28.3323 31.5762 26.488 32.1282 24.0881 32.1282L13.604 32.1282L13.604 9.73511L23.8354 9.73511C26.1345 9.73511 27.9028 10.2368 29.1533 11.228C30.4038 12.219 31.0354 13.6367 31.0354 15.4683C31.0354 16.823 30.6692 17.9397 29.9492 18.8428C29.2292 19.7461 28.2817 20.3232 27.1072 20.5991C28.4839 20.9253 29.5576 21.5776 30.3533 22.5688ZM19.0481 18.8931L22.6228 18.8931C24.5176 18.8931 25.4648 18.0901 25.4648 16.4844C25.4648 14.8787 24.4924 14.0757 22.5598 14.0757L19.0481 14.0757L19.0481 18.8931ZM25.9702 25.2659C25.9702 24.4631 25.7051 23.8359 25.1746 23.3843C24.644 22.9326 23.886 22.7068 22.9133 22.7068L19.0608 22.7068L19.0608 27.7373L22.9514 27.7373C24.9597 27.7249 25.9702 26.9094 25.9702 25.2659Z" fill="#FFFFFF" fill-opacity="1.000000" fill-rule="nonzero"/>
	<path d="M70.4839 32.1282L65.6079 23.6729L64.3701 23.6729L64.3701 32.1282L58.9133 32.1282L58.9133 9.73511L68.2227 9.73511C70.0037 9.73511 71.5195 10.0361 72.7449 10.6509C73.9827 11.2656 74.9048 12.1062 75.5237 13.1724C76.1426 14.2388 76.4458 15.4558 76.4458 16.8357C76.4458 18.4666 75.9912 19.8464 75.0942 20.988C74.1848 22.1296 72.8838 22.9075 71.1533 23.334L76.509 32.1406L70.4839 32.1406L70.4839 32.1282ZM64.3701 19.9719L67.7427 19.9719C68.8291 19.9719 69.6248 19.7336 70.1301 19.2568C70.6353 18.7803 70.9006 18.0776 70.9006 17.1492C70.9006 16.2585 70.6353 15.5686 70.1174 15.0542C69.5996 14.5525 68.8037 14.2891 67.7427 14.2891L64.3701 14.2891L64.3701 19.9719Z" fill="#37393F" fill-opacity="1.000000" fill-rule="nonzero"/>
	<path d="M101.128 28.0508L92.6775 28.0508L91.2754 32.1404L85.5408 32.1404L93.8018 9.9104L100.08 9.9104L108.341 32.1404L102.543 32.1404L101.128 28.0508ZM99.7261 23.9233L96.9219 15.6936L94.0796 23.9233L99.7261 23.9233Z" fill="#37393F" fill-opacity="1.000000" fill-rule="nonzero"/>
	<path d="M138.441 32.1282L132.984 32.1282L123.865 18.3787L123.865 32.1282L118.408 32.1282L118.408 9.73511L123.865 9.73511L132.984 23.6101L132.984 9.73511L138.441 9.73511L138.441 32.1282Z" fill="#37393F" fill-opacity="1.000000" fill-rule="nonzero"/>
	<path d="M169.035 26.7336C168.087 28.4272 166.723 29.7571 164.955 30.7104C163.174 31.6638 161.09 32.1406 158.69 32.1406L150.176 32.1406L150.176 9.74756L158.69 9.74756C161.115 9.74756 163.212 10.2117 164.968 11.1401C166.736 12.0684 168.087 13.373 169.035 15.0667C169.982 16.7603 170.449 18.6921 170.449 20.9001C170.449 23.083 169.969 25.0276 169.035 26.7336ZM163.161 25.6045C164.336 24.488 164.93 22.9075 164.93 20.8877C164.93 18.8552 164.336 17.2871 163.161 16.1707C161.987 15.0542 160.332 14.4895 158.197 14.4895L155.62 14.4895L155.62 27.2856L158.197 27.2856C160.332 27.2856 161.987 26.7336 163.161 25.6045Z" fill="#37393F" fill-opacity="1.000000" fill-rule="nonzero"/>
</svg>
