<svg width="150.962646" height="45.655029" viewBox="0 0 150.963 45.655" fill="none" xmlns="http://www.w3.org/2000/svg" xmlns:xlink="http://www.w3.org/1999/xlink">
	<desc>
			Created with Pixso.
	</desc>
	<defs/>
	<path d="M21.1172 9.14795L22.2339 8.91138C22.5168 8.91138 22.7551 8.97046 22.9189 9.08887C23.0828 9.20728 23.1721 9.32544 23.1721 9.42896C23.1721 9.53271 23.1423 9.69531 23.0977 9.88745C23.053 10.0798 22.636 12.0618 21.8616 15.8037C21.0874 19.5457 20.5215 22.3411 20.1641 24.175C21.8914 21.8381 23.9167 18.969 26.2251 15.5522C28.5334 12.1357 29.8887 9.8728 30.2759 8.74878C30.395 8.3938 30.5588 8.12744 30.7524 7.9353C30.946 7.74292 31.1248 7.62451 31.2737 7.59497C31.4226 7.56543 31.6609 7.53589 31.9736 7.53589C32.2864 7.53589 32.6584 7.60986 33.0903 7.74292C33.5222 7.87598 33.7456 8.0979 33.7456 8.42334C33.7456 9.01489 32.8521 10.7454 31.0801 13.5852C29.3079 16.425 27.2676 19.4421 24.9741 22.637C22.6807 25.8315 20.7747 28.3608 19.2407 30.2244C18.9727 30.5498 18.6301 30.7273 18.2429 30.7273C17.8557 30.7273 17.4387 30.6533 17.0068 30.5203C16.575 30.3872 16.3516 30.1504 16.3516 29.7954C16.3516 28.6863 17.3345 23.332 19.3003 13.7627C17.6174 15.9221 15.5771 18.9392 13.1794 22.7996C10.6775 26.793 9.26294 29.2778 8.9353 30.2244C8.75659 30.8013 8.5481 31.1414 8.30981 31.2302C8.146 31.3042 7.96729 31.3337 7.78857 31.3337L6.58228 31.4668C6.34399 31.4668 6.1355 31.4077 5.927 31.2744C5.7334 31.1414 5.62915 31.0083 5.62915 30.8604C5.62915 30.4609 6.19507 29.2483 7.31201 27.2368C8.42896 25.2253 9.75439 23.0361 11.2583 20.6697C12.7625 18.3032 14.3262 16.0107 15.9644 13.7773C17.6025 11.5442 18.8684 10.0354 19.762 9.28125C19.9407 9.11841 20.1492 9.04443 20.3875 9.04443L21.1172 9.14795Z" fill="#37393F" fill-opacity="1.000000" fill-rule="nonzero"/>
	<path d="M39.0173 19.176C39.7917 19.176 40.179 19.4424 40.179 19.96C40.179 20.241 40.1194 20.448 39.9854 20.5813C39.8513 20.7144 39.5684 21.1433 39.1365 21.8975C38.7046 22.6372 38.228 23.5837 37.7068 24.7522C37.1855 25.9058 36.843 26.8967 36.6941 27.7102C36.6643 27.8137 36.6494 27.9468 36.6494 28.1392C36.6494 28.7012 36.7983 28.9673 37.1111 28.9673C37.4238 28.9673 37.7812 28.8196 38.1982 28.5386C38.6152 28.2427 38.9875 27.9468 39.3152 27.6067C39.6428 27.2812 39.9556 26.9412 40.2683 26.6008C40.5811 26.2607 40.7598 26.0537 40.8193 26.0093C40.8789 25.9648 40.9683 25.9353 41.0874 25.9353C41.281 25.9353 41.4001 26.0833 41.4448 26.3792C41.4895 26.6748 41.5044 26.9707 41.5044 27.2961C41.5044 27.6216 41.4746 27.8286 41.415 27.9468C41.1172 28.5237 40.4768 29.2188 39.4641 30.0322C38.4663 30.8457 37.543 31.2451 36.7239 31.2451C35.9048 31.2451 35.2942 30.9937 34.9219 30.5056C34.5496 30.0176 34.3411 29.4556 34.3411 28.8638C34.3411 28.2576 34.4453 27.7397 34.6538 27.2812C33.8049 28.3757 32.8369 29.2927 31.75 30.062C30.6479 30.8162 29.7693 31.2007 29.0693 31.2007C28.3694 31.2007 27.8184 30.9937 27.3716 30.5796C26.8057 30.062 26.5376 29.3521 26.5376 28.4351C26.5376 27.5178 26.7461 26.6008 27.1631 25.6692C27.5801 24.7522 28.1162 23.8943 28.7864 23.1399C29.4565 22.3708 30.2012 21.6758 31.0054 21.0544C32.688 19.7383 34.2517 19.0874 35.6814 19.0874C36.2324 19.0874 36.6792 19.176 37.0217 19.3535C37.3643 19.531 37.5876 19.7678 37.677 20.0339C37.9153 19.6643 38.1238 19.4424 38.3025 19.3389C38.4365 19.2205 38.6897 19.176 39.0173 19.176ZM36.9919 20.8623C35.2495 20.8623 33.4475 21.8237 31.5862 23.7463C30.9309 24.4417 30.3203 25.2551 29.7544 26.2163C29.1885 27.1777 28.9204 27.8286 28.9204 28.1836C28.9204 28.5386 29.0247 28.7161 29.2332 28.7161C29.5161 28.7161 30.3054 28.1541 31.616 27.0447C32.9263 25.9353 33.79 25.1072 34.207 24.5747C34.6836 23.9829 35.6069 22.7407 36.9919 20.8623Z" fill="#37393F" fill-opacity="1.000000" fill-rule="nonzero"/>
	<path d="M50.6038 11.1597L51.2292 11.3076C51.3186 11.3076 51.408 11.3521 51.4675 11.4407C51.542 11.5295 51.5718 11.6182 51.5718 11.6921C51.5718 11.7661 51.4675 11.988 51.2441 12.343C51.0208 12.6978 50.7825 13.0972 50.4846 13.541C50.1868 13.9846 50.0378 14.2361 50.0229 14.2805C50.8123 14.2212 51.3782 14.1917 51.7058 14.1917C52.0334 14.1917 52.2568 14.2212 52.3909 14.2656C52.51 14.3101 52.6589 14.4431 52.8079 14.6501C52.9717 14.8572 53.1057 15.02 53.2397 15.1235C53.3738 15.2271 53.4333 15.3896 53.4333 15.5967C53.4333 15.804 53.2993 15.9961 53.0461 16.1292C52.793 16.2771 52.51 16.366 52.2122 16.3955C49.8442 16.6321 48.5486 16.7505 48.3103 16.7651C47.4912 18.0225 46.3296 19.9749 44.8552 22.6223C43.3811 25.2698 42.5918 26.9412 42.5024 27.6067C42.4578 27.9172 42.4429 28.1538 42.4429 28.3462C42.4429 28.7454 42.6514 28.9377 43.0684 28.9377C43.4854 28.9377 43.947 28.7751 44.4534 28.4644C44.9595 28.1392 45.436 27.7988 45.853 27.4292C46.9998 26.4233 47.6104 25.9058 47.6848 25.9058C47.9529 25.9058 48.0869 26.3643 48.0869 27.2664C48.0869 27.7546 47.8635 28.1982 47.4019 28.5977C46.3743 29.4702 45.5105 30.1357 44.8108 30.5796C44.1108 31.0232 43.4109 31.2451 42.696 31.2451C42.5471 31.2451 42.3982 31.2302 42.2642 31.2007C41.4451 31.0527 40.8494 30.7571 40.4771 30.3132C40.0898 29.8696 39.9111 29.2778 39.9111 28.5383C39.9111 27.7988 40.1345 26.8818 40.5813 25.8169C41.0281 24.752 41.5791 23.6133 42.2493 22.4153C43.3513 20.448 44.4534 18.614 45.5403 16.8984L44.9597 16.9724C43.7832 17.1055 43.0981 17.1646 42.9045 17.1646L42.7705 17.1646C42.4727 17.1646 42.1897 17.1055 41.9216 16.9871C41.6536 16.8687 41.5046 16.7209 41.5046 16.5581C41.5046 16.3806 41.5791 16.218 41.728 16.0552C41.877 15.8926 41.9663 15.7595 41.9961 15.6707C42.0706 15.449 42.3386 15.1975 42.8003 14.9312C43.262 14.665 43.6045 14.5171 43.8428 14.5022C44.0811 14.4875 44.3044 14.4727 44.5278 14.458C44.751 14.4431 44.9895 14.4431 45.2573 14.4285C45.5254 14.4136 45.7339 14.4136 45.8828 14.3987L47.2529 14.3396C48.1018 13.0676 48.6975 12.2393 49.0103 11.8843C49.3379 11.5146 49.5166 11.3223 49.5613 11.2927C49.606 11.2632 49.7102 11.2336 49.874 11.2336L50.6038 11.1597Z" fill="#37393F" fill-opacity="1.000000" fill-rule="nonzero"/>
	<path d="M59.7622 25.9348C59.9558 25.9348 60.075 26.0828 60.1196 26.3787C60.1643 26.6743 60.1792 26.9702 60.1792 27.2957C60.1792 27.6211 60.1494 27.8281 60.0898 27.9463C59.792 28.5085 59.1516 29.2036 58.1538 30.0171C57.156 30.8306 56.2029 31.2446 55.3093 31.2446C54.7583 31.2446 54.252 31.082 53.7754 30.7566C53.3137 30.4312 53.0754 29.8542 53.0754 29.0408C53.0754 28.2275 53.2988 27.4141 53.7307 26.6301C51.1992 29.7805 49.2334 31.3481 47.7888 31.3481C47.2229 31.3481 46.7612 31.1411 46.4038 30.7417C46.0464 30.3425 45.8826 29.9282 45.8826 29.4846C45.8826 29.0557 45.9421 28.6121 46.0613 28.1536C46.1804 27.6951 46.3145 27.2808 46.4485 26.9111C46.5825 26.5413 46.791 26.0977 47.0591 25.5652C47.3271 25.0327 47.5356 24.6482 47.6548 24.3967C47.7739 24.1453 47.9973 23.7903 48.2952 23.3022C48.593 22.8142 48.9653 22.1484 49.4419 21.3203C49.9185 20.4919 50.3057 19.8708 50.6184 19.4714C50.9309 19.0723 51.2288 18.865 51.5266 18.865C51.8245 18.865 52.0776 18.9834 52.301 19.22C52.5244 19.4568 52.6436 19.6638 52.6436 19.8118C52.6436 19.9595 52.301 20.6399 51.6162 21.8528C49.6057 25.4763 48.593 27.5767 48.593 28.1831C48.593 28.3311 48.6526 28.4048 48.7568 28.4048C49.2483 28.4048 50.4695 27.3547 52.4053 25.2546C54.3413 23.1543 55.4731 21.8083 55.7859 21.2168C56.0986 20.6252 56.3816 20.1223 56.6794 19.7229C56.9624 19.3235 57.1858 19.0723 57.3347 18.9834C57.7666 18.7024 58.3325 18.5544 59.0325 18.5249C59.1516 18.5249 59.2261 18.5249 59.2856 18.5398C59.3452 18.5544 59.4197 18.6433 59.4941 18.791C59.5686 18.939 59.6133 19.0723 59.6133 19.1758C59.5239 19.4568 59.1218 20.2109 58.3921 21.4387C57.6772 22.6663 57.2751 23.3613 57.2007 23.5093C55.9944 25.9792 55.3987 27.5916 55.3987 28.3311C55.3987 28.7598 55.5625 28.967 55.8901 28.967C56.4858 28.8931 57.2007 28.4197 58.0347 27.5618C58.3474 27.2512 58.6453 26.9258 58.9431 26.6006C59.241 26.2751 59.4346 26.0828 59.4941 26.0383C59.5686 25.9646 59.658 25.9348 59.7622 25.9348Z" fill="#37393F" fill-opacity="1.000000" fill-rule="nonzero"/>
	<path d="M64.1851 22.4299C66.5828 19.7231 68.6379 18.3625 70.3208 18.3625C70.7378 18.3625 71.0803 18.4807 71.3484 18.7322C71.6165 18.9836 71.7505 19.2942 71.7505 19.6936C71.7505 20.093 71.4675 20.7437 70.9016 21.6755C70.3357 22.5925 69.8145 23.3765 69.3379 24.0125C69.0847 24.3379 68.8018 24.5005 68.4741 24.5005C68.1614 24.5005 67.9082 24.3821 67.7295 24.1455C67.5508 23.9089 67.4614 23.6426 67.4614 23.332C67.4614 22.637 67.8337 21.8381 68.5933 20.9656L68.5635 20.936C68.2209 20.9656 67.4019 21.6311 66.0615 22.9031C64.7361 24.1899 63.6042 25.3435 62.6663 26.3494C61.7429 27.3699 60.7302 28.5974 59.6282 30.0618C59.3154 30.4907 59.0474 30.7124 58.824 30.7124C58.6006 30.7124 58.3176 30.6384 57.9602 30.5054C57.6028 30.3723 57.3794 30.2688 57.3049 30.2097C57.2305 30.1504 57.1858 30.0469 57.1858 29.8989C57.1858 29.7659 57.2305 29.5884 57.3049 29.4109C57.3794 29.2188 57.5432 28.9524 57.7517 28.6123C57.9602 28.272 58.3027 27.71 58.7495 26.9409C59.1963 26.1719 59.8813 25.0034 60.8196 23.4504C61.7578 21.8975 62.3088 20.9509 62.5024 20.6255C62.8896 19.96 63.2021 19.4717 63.4553 19.176C63.917 18.5991 64.6914 18.3181 65.7786 18.3181C66.0168 18.3181 66.1509 18.4661 66.1509 18.7766C66.1509 19.25 65.7041 20.1521 64.8254 21.4536L64.1851 22.4299Z" fill="#37393F" fill-opacity="1.000000" fill-rule="nonzero"/>
	<path d="M80.6116 19.3538C80.6116 20.0193 80.3435 20.6108 79.7925 21.1138C79.2415 21.6167 78.6309 21.8682 77.9309 21.8682C77.7075 21.8682 77.5586 21.8091 77.4841 21.7056C77.4097 21.6018 77.3799 21.4541 77.3799 21.2913C77.3799 21.1287 77.3948 20.9512 77.4395 20.7883C77.0671 20.9067 76.665 21.0991 76.2183 21.3506C75.7715 21.6018 75.2205 21.9717 74.5652 22.4746C73.9102 22.9775 73.5825 23.3325 73.5825 23.5837C73.5825 23.6577 73.7017 23.7021 73.9399 23.7021C74.1782 23.7021 74.5505 23.6135 75.0417 23.4507C75.5332 23.2881 75.8906 23.1992 76.0842 23.1992C76.2778 23.1992 76.4119 23.2141 76.4714 23.2288C76.6055 23.3027 76.7395 23.4507 76.9033 23.6873C77.0522 23.9241 77.1267 24.1162 77.1267 24.2495C77.1267 24.3826 76.9927 24.5601 76.7246 24.7817C76.4565 25.0037 76.1587 25.1665 75.8311 25.2847C75.4885 25.4031 75.2651 25.4917 75.1609 25.551C73.0166 26.749 71.9443 27.5625 71.9443 28.0061C71.9443 28.79 72.6145 29.1895 73.9697 29.1895C74.8335 29.1895 75.7119 28.9231 76.5757 28.376C77.3203 27.9175 77.9905 27.4441 78.5862 26.9561C79.1819 26.4827 79.5542 26.187 79.718 26.0686C79.8818 25.9502 80.001 25.906 80.0754 25.906C80.3435 25.906 80.4775 26.2017 80.4775 26.7935C80.4775 27.385 80.4478 27.7695 80.3733 27.947C80.2988 28.1394 80.1052 28.3611 79.7627 28.6421C77.5884 30.4021 75.5183 31.2896 73.5825 31.2896C72.54 31.2896 71.7209 31.1418 71.0955 30.8608C69.9487 30.343 69.3828 29.5591 69.3828 28.4941C69.3828 27.104 70.3508 26.0391 72.3018 25.3291C71.9146 25.1516 71.6614 24.9446 71.5571 24.6636C71.438 24.3972 71.3933 23.9685 71.3933 23.3767C71.3933 22.7852 71.6763 22.1641 72.2273 21.4983C72.7783 20.8328 73.4634 20.2856 74.2676 19.8713C76.0544 18.9102 77.6628 18.4368 79.0627 18.4368C79.4053 18.4368 79.7329 18.5107 80.0903 18.6733C80.4478 18.8362 80.6116 19.0579 80.6116 19.3538Z" fill="#37393F" fill-opacity="1.000000" fill-rule="nonzero"/>
	<path d="M115.37 9.05908L115.563 9.05908C115.623 9.05908 115.667 9.05908 115.682 9.07397C115.697 9.08862 115.712 9.08862 115.742 9.10352C115.772 9.10352 115.787 9.11841 115.816 9.14795C115.861 9.19214 115.936 9.23657 116.025 9.28101C116.144 9.36963 116.204 9.47339 116.204 9.59155C116.204 9.70996 116.084 9.96143 115.846 10.3459C115.608 10.7305 114.998 11.6624 114 13.1709C111.721 16.6318 109.681 19.8562 107.879 22.8142C104.766 27.9612 103.188 30.5496 103.158 30.5791C103.128 30.6089 103.114 30.6384 103.099 30.668C103.084 30.7271 103.054 30.7566 102.979 30.7566L102.771 30.7124L102.354 30.8159L102.116 30.7715L101.863 30.8159L101.773 30.8159L100.924 30.9341C100.418 30.9341 100.165 30.7566 100.165 30.4165C100.165 30.2686 100.209 30.0911 100.299 29.884C100.612 29.1445 102.205 26.4675 105.064 21.8232C103.188 21.8677 101.326 21.8972 99.4946 21.8972L96.2183 21.8823C95.6821 22.7402 94.9375 23.9531 93.9993 25.5356C91.9741 28.9819 90.9019 30.7124 90.7678 30.7419C90.6338 30.7715 90.5295 30.801 90.4402 30.801C90.3508 30.801 90.2764 30.7566 90.2168 30.6531C90.1423 30.5645 90.0977 30.5051 90.0679 30.5051C90.0381 30.5051 89.9934 30.52 89.9041 30.5645C89.8296 30.6089 89.7104 30.6235 89.5466 30.6235L89.1892 30.6089L89.0552 30.52C89.0403 30.52 89.0254 30.5349 89.0105 30.5645C88.9956 30.594 88.9509 30.6089 88.8914 30.6089C88.4595 30.6089 88.2361 30.4314 88.2361 30.0615C88.2361 29.825 88.3254 29.4995 88.4893 29.1001C88.668 28.7009 88.8914 28.272 89.1743 27.8135C89.4573 27.355 90.1721 26.2456 91.3486 24.5151C92.5103 22.7847 93.0911 21.9121 93.0911 21.8972C92.8975 21.8823 92.6741 21.8823 92.4209 21.8677C91.8997 21.8677 91.5422 21.8528 91.3188 21.8086C90.738 21.7048 90.3359 21.2317 90.1274 20.3887C90.0083 19.9744 89.9636 19.7083 89.9785 19.5752C89.9785 19.3088 90.0977 19.1609 90.3359 19.1609L90.738 19.2646C90.9465 19.2793 91.4231 19.2942 92.1975 19.3384C92.9719 19.3828 93.5227 19.3977 93.8652 19.3977L94.729 19.3682C96.0544 17.3123 97.6331 14.9753 99.4797 12.3723C98.1394 13.4668 96.6501 14.0139 95.012 14.0139C94.2375 14.0139 93.5674 13.8364 93.0166 13.4668C92.4507 13.0969 92.1826 12.6235 92.1826 12.0615C92.1826 11.4995 92.3911 11.0559 92.823 10.7156C93.2549 10.3904 93.6567 10.2275 94.0439 10.2275C94.4312 10.2275 94.6248 10.2869 94.6248 10.405C94.6248 10.4495 94.5652 10.4939 94.4609 10.5381C94.3567 10.5974 94.2971 10.6416 94.2971 10.686C94.2971 10.8489 94.4758 10.9966 94.8333 11.115C95.1907 11.2334 95.5928 11.3074 96.0396 11.3074C96.4863 11.3074 97.0225 11.1741 97.6777 10.9229C98.333 10.6714 99.0032 10.3311 99.7031 9.93188C100.686 9.36963 101.46 8.89648 102.026 8.52661C102.354 8.36401 102.652 8.29004 102.95 8.29004C103.248 8.29004 103.441 8.31958 103.575 8.39355C103.709 8.45264 103.798 8.52661 103.858 8.58594C103.917 8.64502 103.992 8.73364 104.052 8.8374C104.126 8.94092 104.186 9.02954 104.26 9.07397C104.32 9.13306 104.365 9.19214 104.365 9.26611C104.365 9.34009 104.32 9.4436 104.245 9.60645C104.171 9.75439 103.784 10.3755 103.084 11.4551C102.384 12.5349 101.475 13.9104 100.373 15.5818C99.2712 17.2529 98.467 18.4807 97.9607 19.2793C100.686 19.2793 103.62 19.2349 106.777 19.1313C110.619 13.1118 112.645 9.96143 112.853 9.66553C113.062 9.36963 113.255 9.17749 113.434 9.08862C113.613 9 113.821 8.95557 114.074 8.95557L115.37 9.05908Z" fill="#37393F" fill-opacity="1.000000" fill-rule="nonzero"/>
	<path d="M120.344 19.1465C120.657 19.1465 120.97 19.2795 121.282 19.5605C121.61 19.8416 121.759 20.2556 121.759 20.8176C121.759 21.3799 121.565 22.1045 121.163 23.0068C120.761 23.894 120.225 24.8113 119.525 25.7429C118.84 26.6599 118.066 27.5327 117.247 28.3459C116.413 29.1594 115.519 29.8252 114.566 30.3428C113.598 30.8604 112.734 31.1267 111.945 31.1267C111.156 31.1267 110.53 30.8752 110.054 30.3872C109.577 29.8992 109.339 29.2188 109.339 28.3459C109.339 27.4734 109.562 26.4973 109.994 25.4473C110.426 24.3823 110.977 23.4504 111.662 22.637C112.347 21.8235 113.077 21.0989 113.881 20.448C115.534 19.1169 116.993 18.4661 118.244 18.4661C118.81 18.4661 119.227 18.5991 119.51 18.8801C119.615 18.969 119.659 19.0576 119.659 19.1169L119.659 19.2056C119.823 19.1465 120.046 19.1465 120.344 19.1465ZM118.81 21.158L118.706 21.158C118.349 21.158 118.17 20.9065 118.17 20.3889C117.425 20.6255 116.651 21.0544 115.832 21.6609C115.013 22.2671 114.283 22.9919 113.643 23.8203C112.332 25.4768 111.677 26.8818 111.662 28.0208C111.662 28.5828 111.871 28.8638 112.288 28.8638C112.705 28.8638 113.33 28.5828 114.149 28.0503C114.968 27.5178 115.787 26.7339 116.606 25.7134C117.41 24.7075 118.021 23.8203 118.423 23.0806C118.825 22.3411 119.034 21.8384 119.034 21.5574C119.019 21.291 118.944 21.158 118.81 21.158Z" fill="#37393F" fill-opacity="1.000000" fill-rule="nonzero"/>
	<path d="M121.431 30.7864L120.686 30.7568L120.418 30.7568C120.314 30.7271 120.21 30.668 120.091 30.5793C119.971 30.4905 119.882 30.4165 119.823 30.387C119.763 30.3574 119.733 30.2686 119.733 30.165C119.733 30.0615 119.778 29.8694 119.852 29.6179C121.833 25.2842 123.754 21.8086 125.615 19.2202C125.824 18.9392 126.152 18.7173 126.598 18.5693C127.045 18.4216 127.492 18.3477 127.924 18.3477C128.177 18.3477 128.311 18.5398 128.311 18.9392C128.311 19.0576 128.266 19.2053 128.192 19.3828C128.117 19.5752 127.909 19.8711 127.581 20.2998C127.254 20.7288 126.866 21.2168 126.42 21.7493C125.973 22.2817 125.72 22.6072 125.66 22.696C127.06 21.2612 128.311 20.1963 129.443 19.4863C130.575 18.7913 131.379 18.4363 131.885 18.4363C132.392 18.4363 132.779 18.5842 133.047 18.8652C133.315 19.1462 133.449 19.4568 133.449 19.7822C133.449 20.1077 133.419 20.3887 133.375 20.5957C133.33 20.8176 133.24 21.0393 133.121 21.2761C133.002 21.5127 132.898 21.7197 132.809 21.8826C132.719 22.0452 132.57 22.2671 132.377 22.5332C132.168 22.7996 132.034 22.9917 131.96 23.0952C131.885 23.1987 131.721 23.3911 131.483 23.6721C131.245 23.9531 131.111 24.1157 131.096 24.1455C131.379 23.8645 131.781 23.4502 132.287 22.8882C132.794 22.3262 133.226 21.8677 133.583 21.498C133.94 21.1282 134.372 20.6992 134.908 20.2258C135.445 19.7527 135.936 19.3682 136.383 19.0872C137.485 18.4067 138.602 18.0518 139.733 18.0518C140.121 18.0518 140.448 18.1702 140.716 18.4216C140.984 18.6729 141.118 18.9539 141.118 19.2942C141.118 19.6343 140.701 20.4478 139.882 21.7197C139.063 22.9917 138.229 24.2786 137.41 25.5652C136.591 26.8521 136.174 27.6655 136.174 28.0056C136.174 28.4641 136.264 28.7451 136.427 28.834C136.606 28.9226 136.814 28.9524 137.053 28.9375C137.291 28.9226 137.648 28.76 138.08 28.4641C138.527 28.1685 138.914 27.8726 139.257 27.5471C139.823 27.0444 140.329 26.5562 140.821 26.083C140.925 25.9941 141.029 25.95 141.163 25.95C141.357 25.95 141.476 26.0977 141.521 26.3936C141.565 26.6895 141.58 26.9851 141.58 27.3105C141.58 27.636 141.55 27.843 141.491 27.9614C141.193 28.5234 140.538 29.2185 139.54 30.0469C138.527 30.8604 137.559 31.2744 136.636 31.2744C136.517 31.2744 136.442 31.2744 136.397 31.2595C135.355 31.156 134.625 30.875 134.223 30.4019C133.821 29.9285 133.628 29.3665 133.628 28.7305C133.628 28.0945 133.851 27.2957 134.298 26.3787C134.745 25.4617 135.221 24.6187 135.757 23.8792C136.293 23.1396 136.77 22.4592 137.217 21.8528C137.663 21.2466 137.887 20.9211 137.887 20.8767C137.887 20.8323 137.842 20.8027 137.768 20.8027C137.455 20.8027 136.755 21.3057 135.653 22.3262C133.792 24.0566 132.183 25.728 130.828 27.3254C130.47 27.7544 129.622 28.8191 128.296 30.5496C128.147 30.7568 127.894 30.8604 127.566 30.8604C127.239 30.8604 126.896 30.801 126.539 30.668C126.181 30.5349 126.003 30.3721 126.003 30.1799C126.003 30.0764 126.807 28.6565 128.43 25.9202C130.053 23.1841 130.858 21.6902 130.858 21.4536C130.858 21.2021 130.709 21.0837 130.411 21.0837C130.113 21.0837 129.488 21.5276 128.549 22.415C125.973 24.8555 123.978 27.2957 122.563 29.7065C122.473 29.8545 122.295 30.0764 122.027 30.3721C121.759 30.668 121.52 30.7864 121.431 30.7864Z" fill="#37393F" fill-opacity="1.000000" fill-rule="nonzero"/>
	<path d="M150.963 19.3538C150.963 20.0193 150.695 20.6108 150.144 21.1138C149.593 21.6167 148.982 21.8682 148.282 21.8682C148.059 21.8682 147.91 21.8091 147.835 21.7056C147.761 21.6018 147.731 21.4541 147.731 21.2913C147.731 21.1287 147.746 20.9512 147.791 20.7883C147.418 20.9067 147.016 21.0991 146.569 21.3506C146.123 21.6018 145.572 21.9717 144.916 22.4746C144.261 22.9775 143.934 23.3325 143.934 23.5837C143.934 23.6577 144.053 23.7021 144.291 23.7021C144.529 23.7021 144.902 23.6135 145.393 23.4507C145.884 23.2881 146.242 23.1992 146.435 23.1992C146.629 23.1992 146.763 23.2141 146.823 23.2288C146.957 23.3027 147.091 23.4507 147.254 23.6873C147.403 23.9241 147.478 24.1162 147.478 24.2495C147.478 24.3826 147.344 24.5601 147.076 24.7817C146.808 25.0037 146.51 25.1665 146.182 25.2847C145.84 25.4031 145.616 25.4917 145.512 25.551C143.368 26.749 142.295 27.5625 142.295 28.0061C142.295 28.79 142.966 29.1895 144.321 29.1895C145.185 29.1895 146.063 28.9231 146.927 28.376C147.671 27.9175 148.342 27.4441 148.937 26.9561C149.533 26.4827 149.905 26.187 150.069 26.0686C150.233 25.9502 150.352 25.906 150.427 25.906C150.695 25.906 150.829 26.2017 150.829 26.7935C150.829 27.385 150.799 27.7695 150.724 27.947C150.65 28.1394 150.456 28.3611 150.114 28.6421C147.939 30.4021 145.869 31.2896 143.934 31.2896C142.891 31.2896 142.072 31.1418 141.447 30.8608C140.3 30.343 139.734 29.5591 139.734 28.4941C139.734 27.104 140.702 26.0391 142.653 25.3291C142.266 25.1516 142.012 24.9446 141.908 24.6636C141.789 24.3972 141.744 23.9685 141.744 23.3767C141.744 22.7852 142.027 22.1641 142.578 21.4983C143.129 20.8328 143.814 20.2856 144.619 19.8713C146.406 18.9102 148.014 18.4368 149.414 18.4368C149.756 18.4368 150.084 18.5107 150.441 18.6733C150.799 18.8362 150.963 19.0579 150.963 19.3538Z" fill="#37393F" fill-opacity="1.000000" fill-rule="nonzero"/>
	<path d="M0 34.8831C3.91675 36.51 7.90771 37.7673 11.9734 38.7288C16.009 39.7344 20.1194 40.4443 24.2297 40.8879C26.2849 41.1689 28.3547 41.1987 30.395 41.3909C32.4651 41.4058 34.5203 41.5684 36.5754 41.4502L39.658 41.3762C40.6855 41.3613 41.7131 41.2283 42.7407 41.1689C43.7683 41.0803 44.7959 41.0359 45.8086 40.9028L48.8613 40.4739C52.9568 40.0303 56.9331 39.0835 60.8943 37.9448C64.9004 36.8503 68.6831 35.4009 72.689 33.8921C76.7844 32.3984 81.2222 31.4221 85.7197 31.8955C87.9387 32.1765 90.1726 32.8865 91.9893 34.188C93.821 35.4749 95.1316 37.3088 95.9656 39.2314C94.7146 37.5159 93.1509 36.1108 91.3489 35.238C89.5471 34.3655 87.5664 34.0105 85.6006 34.0696C81.6243 34.1289 77.7078 35.4451 74.0293 37.1018C70.2913 38.9358 66.2407 40.5923 62.1602 41.9678C58.05 43.2842 53.8057 44.3342 49.5017 44.8667C40.9387 45.9907 32.1672 46.0056 23.7085 44.3047C19.4641 43.5356 15.3242 42.3374 11.3181 40.8142C7.3418 39.2314 3.45508 37.3828 0 34.8831Z" fill="#094235" fill-opacity="1.000000" fill-rule="nonzero"/>
	<path d="M142.414 10.2573C139.094 8.85229 135.713 7.75781 132.288 6.8999C128.877 5.9978 125.422 5.36182 121.952 4.91797C120.225 4.65186 118.468 4.59253 116.74 4.3855C114.998 4.34131 113.27 4.16382 111.528 4.23755C110.664 4.25244 109.786 4.25244 108.922 4.23755C108.058 4.23755 107.179 4.32642 106.316 4.35596C105.452 4.41504 104.573 4.42993 103.709 4.51855L101.118 4.82935C97.6484 5.11035 94.2827 5.82031 90.917 6.69287C87.5068 7.50635 84.2751 8.65991 80.835 9.81372C77.3057 10.9822 73.4783 11.6921 69.636 11.1597C67.7446 10.8489 65.8386 10.1833 64.3345 9.00024C62.8005 7.83179 61.7581 6.23438 61.1177 4.56299C62.175 6.02734 63.4856 7.22534 64.9897 7.96484C66.4939 8.70435 68.1467 9.01489 69.7998 9.00024C73.1357 9.00024 76.4419 7.9353 79.5691 6.604C82.7561 5.09546 86.2559 3.7644 89.7405 2.66992C93.2551 1.61963 96.9187 0.821045 100.582 0.436523C107.894 -0.33252 115.37 -0.155029 122.533 1.53101C126.122 2.2854 129.622 3.43896 132.973 4.85889C136.338 6.30835 139.585 7.99438 142.414 10.2573Z" fill="#FFB774" fill-opacity="1.000000" fill-rule="nonzero"/>
</svg>
