<svg width="119.778809" height="71.714355" viewBox="0 0 119.779 71.7144" fill="none" xmlns="http://www.w3.org/2000/svg" xmlns:xlink="http://www.w3.org/1999/xlink">
	<desc>
			Created with Pixso.
	</desc>
	<defs/>
	<path d="M61.4836 61.0581C47.7671 75.0789 25.2405 75.2944 11.2644 61.5251C10.6555 60.9233 10.0645 60.3035 9.50049 59.6658L10.8435 58.4802C11.3806 59.082 11.9358 59.6838 12.5178 60.2498C25.7866 73.3184 47.1851 73.1208 60.2122 59.8005L61.4836 61.0581Z" fill="#094235" fill-opacity="1.000000" fill-rule="nonzero"/>
	<path d="M63.4712 13.3555L62.0925 14.5051C61.3582 13.6248 60.5703 12.7627 59.7556 11.9541C46.4868 -1.1145 25.0884 -0.907959 12.0613 12.4033C11.1748 13.3105 10.3242 14.2805 9.54541 15.2776L8.13965 14.1729C8.95435 13.1218 9.84985 12.1069 10.7898 11.1458C24.5063 -2.875 47.033 -3.09058 61.009 10.6697C61.8774 11.5232 62.7012 12.4302 63.4712 13.3555Z" fill="#094235" fill-opacity="1.000000" fill-rule="nonzero"/>
	<path d="M110.888 12.0798L109.545 13.2654C109.008 12.6636 108.453 12.0618 107.871 11.4958C95.6497 -0.531006 76.3911 -1.48291 63.0864 9.29541L61.9583 7.89429C75.9702 -3.45898 96.2405 -2.46191 109.115 10.2114C109.733 10.8223 110.324 11.4421 110.888 12.0798Z" fill="#094235" fill-opacity="1.000000" fill-rule="nonzero"/>
	<path d="M109.59 60.6094C97.7087 72.7532 78.8352 74.7739 64.7068 65.4148L65.6917 63.9148C79.1038 72.7979 97.0283 70.8757 108.31 59.3521C109.196 58.4448 110.046 57.4749 110.825 56.4778L112.231 57.5825C111.416 58.6335 110.53 59.6484 109.59 60.6094Z" fill="#094235" fill-opacity="1.000000" fill-rule="nonzero"/>
	<path d="M4.80029 54.592L5.22119 54.3315L6.05371 55.679L6.98486 55.095L6.3313 54.0442L6.7522 53.7837L7.40576 54.8345L8.79346 53.9724L9.11572 54.4932L5.94629 56.4692L4.80029 54.592Z" fill="#37393F" fill-opacity="1.000000" fill-rule="nonzero"/>
	<path d="M5.90137 49.4636L5.41797 48.2961L5.87451 48.1074L6.59985 49.8408L3.15259 51.2781L2.91992 50.7122L5.90137 49.4636Z" fill="#37393F" fill-opacity="1.000000" fill-rule="nonzero"/>
	<path d="M4.54053 44.5322C4.44189 44.8557 4.27173 45.134 4.02124 45.3586C3.77051 45.592 3.4751 45.7449 3.11694 45.8257C2.75879 45.9065 2.41846 45.8975 2.10522 45.7898C1.79175 45.6819 1.51416 45.5112 1.29028 45.2598C1.06665 45.0083 0.914307 44.7119 0.842773 44.3706C0.762207 44.0293 0.770996 43.697 0.869629 43.3735C0.968018 43.0503 1.13818 42.7808 1.37988 42.5474C1.63062 42.3228 1.92603 42.1699 2.28418 42.0891C2.64233 42.0083 2.98267 42.0173 3.30493 42.125C3.6272 42.2239 3.89575 42.3945 4.11963 42.646C4.34351 42.8975 4.49561 43.1938 4.56738 43.5352C4.64795 43.8765 4.62988 44.209 4.54053 44.5322ZM3.74365 43.0413C3.59131 42.8796 3.40332 42.7629 3.17065 42.7C2.93774 42.637 2.69604 42.637 2.42749 42.7C2.15894 42.7629 1.93506 42.8706 1.75586 43.0232C1.5769 43.176 1.45166 43.3557 1.38892 43.5713C1.32617 43.7869 1.31714 44.0112 1.37085 44.2539C1.4248 44.4963 1.52319 44.7029 1.67529 44.8645C1.82764 45.0264 2.01562 45.1431 2.2395 45.2058C2.46338 45.2688 2.71387 45.2688 2.98267 45.2058C3.25122 45.1431 3.4751 45.0352 3.65405 44.8826C3.83325 44.73 3.9585 44.5503 4.03003 44.3347C4.10181 44.1191 4.10181 43.8945 4.0481 43.6521C3.99438 43.4094 3.89575 43.2119 3.74365 43.0413Z" fill="#37393F" fill-opacity="1.000000" fill-rule="nonzero"/>
	<path d="M3.70776 36.6011L2.24829 37.5171L2.26636 37.9841L3.76147 37.9304L3.77954 38.541L0.0458984 38.6667L0.0012207 37.3826C-0.0078125 37.095 0.0368652 36.8525 0.126465 36.646C0.216064 36.4395 0.350342 36.2866 0.511475 36.1877C0.672607 36.0801 0.860596 36.0261 1.06665 36.0171C1.30835 36.0083 1.53223 36.071 1.73804 36.2058C1.94409 36.3406 2.08716 36.5562 2.16772 36.8435L3.68091 35.8645L3.70776 36.6011ZM1.77393 38.0022L1.74707 37.3196C1.73804 37.0859 1.67529 36.9153 1.55908 36.8076C1.44263 36.6909 1.28149 36.646 1.09351 36.646C0.905518 36.655 0.753174 36.7178 0.645752 36.8345C0.53833 36.9514 0.493652 37.1309 0.502441 37.3645L0.529297 38.0381L1.77393 38.0022Z" fill="#37393F" fill-opacity="1.000000" fill-rule="nonzero"/>
	<path d="M3.40332 30.2605L3.18848 31.8142L3.90479 32.1914L3.81519 32.8291L0.296631 30.979L0.39502 30.2783L4.28076 29.47L4.19141 30.1077L3.40332 30.2605ZM2.88403 30.3591L1.08447 30.7185L2.7229 31.5627L2.88403 30.3591Z" fill="#37393F" fill-opacity="1.000000" fill-rule="nonzero"/>
	<path d="M4.72852 25.6792L5.0957 24.4666L5.57031 24.6104L5.02393 26.4067L1.45166 25.3198L1.63062 24.7361L4.72852 25.6792Z" fill="#37393F" fill-opacity="1.000000" fill-rule="nonzero"/>
	<path d="M6.8147 21.2061C6.64453 21.3496 6.46533 21.4395 6.27734 21.4753C6.08032 21.5115 5.89233 21.4844 5.69531 21.3855L5.98193 20.7927C6.13403 20.8467 6.27734 20.8467 6.42065 20.7927C6.56396 20.739 6.68018 20.613 6.76978 20.4336C6.85938 20.2449 6.88623 20.0742 6.84155 19.9216C6.80566 19.7688 6.70703 19.6611 6.56396 19.5891C6.44751 19.5354 6.34009 19.5264 6.24146 19.5532C6.14307 19.5891 6.04468 19.6431 5.95508 19.7239C5.87451 19.8047 5.76709 19.9216 5.63281 20.0742C5.47168 20.2629 5.32837 20.4155 5.20288 20.5234C5.07764 20.6311 4.92554 20.7029 4.75537 20.739C4.58521 20.7749 4.38818 20.739 4.18237 20.6401C3.98535 20.5503 3.84204 20.4155 3.74365 20.2539C3.64502 20.0833 3.60034 19.8945 3.60034 19.688C3.60938 19.4724 3.66309 19.2568 3.77051 19.0234C3.92261 18.7 4.13745 18.4666 4.39722 18.3318C4.65674 18.197 4.93433 18.197 5.22974 18.3047L4.93433 18.9155C4.80908 18.8706 4.68359 18.8796 4.54053 18.9426C4.40625 19.0054 4.28979 19.1311 4.20923 19.3018C4.13745 19.4634 4.1106 19.6072 4.14648 19.751C4.18237 19.8945 4.27173 19.9934 4.42407 20.0652C4.53149 20.1191 4.62988 20.1282 4.71948 20.0923C4.81812 20.0652 4.90747 20.0024 4.98804 19.9304C5.0686 19.8496 5.17603 19.7419 5.30151 19.5891C5.47168 19.3916 5.61475 19.239 5.74902 19.1311C5.87451 19.0234 6.02661 18.9426 6.20581 18.9065C6.38477 18.8706 6.57275 18.8977 6.78784 19.0054C6.95776 19.0862 7.10107 19.2119 7.2085 19.3735C7.31592 19.5354 7.36963 19.7329 7.37866 19.9485C7.3877 20.1731 7.33398 20.3977 7.21753 20.6401C7.1189 20.8735 6.98462 21.0623 6.8147 21.2061Z" fill="#37393F" fill-opacity="1.000000" fill-rule="nonzero"/>
	<path d="M115.472 17.8015L115.042 18.053L114.246 16.6787L113.296 17.2356L113.914 18.3044L113.485 18.5559L112.867 17.4871L111.452 18.3135L111.148 17.7834L114.38 15.9062L115.472 17.8015Z" fill="#37393F" fill-opacity="1.000000" fill-rule="nonzero"/>
	<path d="M114.228 22.8936L114.675 24.0793L114.219 24.259L113.547 22.4985L117.03 21.1602L117.245 21.7351L114.228 22.8936Z" fill="#37393F" fill-opacity="1.000000" fill-rule="nonzero"/>
	<path d="M115.445 27.8694C115.553 27.5461 115.732 27.2766 115.982 27.061C116.233 26.8455 116.547 26.6929 116.905 26.6208C117.263 26.5491 117.603 26.5759 117.917 26.6838C118.23 26.8005 118.498 26.9802 118.713 27.2407C118.928 27.5012 119.072 27.7976 119.134 28.1389C119.197 28.4802 119.179 28.8125 119.072 29.1357C118.964 29.4502 118.785 29.7197 118.534 29.9443C118.283 30.1687 117.979 30.3125 117.621 30.3752C117.263 30.4473 116.923 30.4202 116.609 30.3125C116.287 30.2046 116.027 30.0161 115.812 29.7646C115.598 29.5042 115.454 29.2078 115.392 28.8574C115.32 28.5161 115.338 28.1838 115.445 27.8694ZM116.198 29.3784C116.35 29.5491 116.529 29.6658 116.761 29.7375C116.994 29.8096 117.236 29.8096 117.505 29.7646C117.773 29.7107 117.997 29.6118 118.185 29.4683C118.364 29.3245 118.498 29.1448 118.57 28.9292C118.642 28.7136 118.651 28.4893 118.606 28.2466C118.561 28.0042 118.463 27.7976 118.319 27.627C118.176 27.4563 117.988 27.3394 117.764 27.2676C117.54 27.1958 117.29 27.1958 117.021 27.2407C116.752 27.2947 116.52 27.3933 116.341 27.5371C116.162 27.6807 116.027 27.8604 115.956 28.0759C115.884 28.2915 115.866 28.5161 115.911 28.7585C115.956 29.0012 116.054 29.2078 116.198 29.3784Z" fill="#37393F" fill-opacity="1.000000" fill-rule="nonzero"/>
	<path d="M116.045 35.8191L117.531 34.948L117.531 34.481L116.036 34.4897L116.036 33.8792L119.77 33.8611L119.779 35.1545C119.779 35.4419 119.734 35.6843 119.635 35.8821C119.537 36.0796 119.403 36.2324 119.232 36.3311C119.062 36.4299 118.874 36.4839 118.668 36.4839C118.427 36.4839 118.203 36.4119 118.006 36.2773C117.809 36.1426 117.666 35.918 117.594 35.6216L116.054 36.5557L116.045 35.8191ZM118.015 34.4719L118.015 35.1545C118.015 35.3879 118.077 35.5586 118.194 35.6755C118.31 35.7922 118.462 35.8462 118.659 35.8462C118.856 35.8462 119 35.7832 119.116 35.6755C119.223 35.5586 119.277 35.3879 119.277 35.1545L119.277 34.4719L118.015 34.4719Z" fill="#37393F" fill-opacity="1.000000" fill-rule="nonzero"/>
	<path d="M116.162 42.1602L116.421 40.6152L115.714 40.22L115.821 39.5823L119.286 41.5312L119.17 42.2319L115.257 42.9326L115.365 42.2949L116.162 42.1602ZM116.69 42.0793L118.499 41.7649L116.887 40.8667L116.69 42.0793Z" fill="#37393F" fill-opacity="1.000000" fill-rule="nonzero"/>
	<path d="M114.711 46.7056L114.308 47.9089L113.843 47.7473L114.434 45.96L117.979 47.1455L117.782 47.7295L114.711 46.7056Z" fill="#37393F" fill-opacity="1.000000" fill-rule="nonzero"/>
	<path d="M112.5 51.1155C112.67 50.9807 112.849 50.8909 113.046 50.8638C113.243 50.8369 113.431 50.8728 113.628 50.9717L113.332 51.5554C113.18 51.4927 113.037 51.4927 112.894 51.5466C112.75 51.6003 112.634 51.7173 112.535 51.8967C112.437 52.0854 112.41 52.2561 112.446 52.4087C112.482 52.5615 112.571 52.6782 112.715 52.75C112.822 52.804 112.929 52.822 113.037 52.7949C113.144 52.7681 113.234 52.7141 113.323 52.6333C113.413 52.5525 113.52 52.4448 113.655 52.292C113.825 52.1033 113.968 51.9597 114.102 51.8518C114.228 51.7441 114.38 51.6812 114.55 51.6453C114.72 51.6094 114.917 51.6543 115.123 51.762C115.311 51.8608 115.454 51.9956 115.553 52.1663C115.651 52.3369 115.687 52.5256 115.678 52.7412C115.669 52.9568 115.597 53.1724 115.481 53.3967C115.32 53.7202 115.096 53.9446 114.836 54.0706C114.568 54.1963 114.29 54.1963 113.995 54.0706L114.308 53.4688C114.434 53.5225 114.568 53.5137 114.711 53.4597C114.854 53.3967 114.962 53.28 115.051 53.1094C115.132 52.9568 115.159 52.804 115.132 52.6602C115.105 52.5166 115.015 52.4087 114.863 52.3369C114.765 52.283 114.666 52.2742 114.568 52.301C114.469 52.3279 114.38 52.3818 114.29 52.4536C114.201 52.5256 114.093 52.6423 113.968 52.7861C113.798 52.9746 113.646 53.1274 113.511 53.2351C113.377 53.343 113.225 53.4148 113.055 53.4507C112.876 53.4866 112.688 53.4417 112.473 53.334C112.303 53.2441 112.168 53.1184 112.07 52.9478C111.962 52.7771 111.918 52.5884 111.909 52.3638C111.909 52.1394 111.971 51.9148 112.088 51.6812C112.186 51.4387 112.33 51.259 112.5 51.1155Z" fill="#37393F" fill-opacity="1.000000" fill-rule="nonzero"/>
	<path d="M33.54 28.0496C34.6145 28.0496 35.4292 27.9238 35.9934 27.6814C36.5486 27.4299 36.9155 27.2412 37.0857 27.1155C37.0857 27.376 37.032 27.6904 36.9246 28.0496C36.8171 28.418 36.6201 28.7681 36.3425 29.1184C36.0649 29.4597 35.698 29.7561 35.2502 29.9897C34.8025 30.2231 34.2295 30.3489 33.54 30.3489C32.6628 30.3489 31.8123 30.1782 30.9973 29.8459C30.1826 29.5137 29.377 29.1543 28.5801 28.7593C27.7832 28.373 27.0042 28.0137 26.2253 27.6724C25.4463 27.3311 24.6584 27.1694 23.8438 27.1694C22.9663 27.1694 22.1873 27.313 21.5249 27.5916C20.8623 27.8699 20.2981 28.2473 19.8325 28.7053C19.3669 29.1724 18.991 29.6934 18.6865 30.2861C18.3821 30.8789 18.1404 31.4807 17.9614 32.1003C17.7822 32.7112 17.657 33.313 17.5942 33.8967C17.5315 34.4807 17.4958 34.9927 17.4958 35.4507C17.4958 36.0793 17.5496 36.5645 17.657 36.9238C17.7644 37.283 17.8359 37.5076 17.8809 37.6155L17.8809 37.6514C17.4331 37.5256 17.0212 37.3369 16.6541 37.1035C16.3499 36.8879 16.0811 36.6003 15.8306 36.2322C15.5798 35.864 15.4634 35.3879 15.4634 34.813C15.4634 33.9058 15.6604 32.9717 16.0632 32.0017C16.4573 31.0315 17.0122 30.1514 17.7197 29.3521C18.427 28.5525 19.2864 27.897 20.2981 27.376C21.3098 26.855 22.429 26.6035 23.6467 26.6035C24.354 26.6035 25.1418 26.6753 26.0015 26.8281C26.8611 26.9807 27.7383 27.1423 28.6248 27.3311C29.52 27.5107 30.3887 27.6814 31.2393 27.834C32.0808 27.9778 32.8508 28.0496 33.54 28.0496ZM21.4172 44.6123C21.4172 44.3967 21.48 44.0374 21.5964 43.5344C21.7129 43.0315 21.874 42.4297 22.0798 41.729C22.2859 41.0286 22.5186 40.2471 22.7871 39.3848C23.0559 38.5225 23.3333 37.6333 23.6108 36.7083C23.0291 36.834 22.5454 36.8967 22.1604 36.8967C21.9009 36.8967 21.686 36.8518 21.5159 36.771C21.3457 36.6902 21.2024 36.5913 21.095 36.4746C20.9875 36.3579 20.916 36.25 20.8711 36.1423C20.8264 36.0347 20.8086 35.9536 20.8086 35.8818C20.8711 35.9448 20.9966 36.0166 21.1755 36.0884C21.3547 36.1604 21.5605 36.2053 21.7754 36.2053C22.0083 36.2053 22.3127 36.1692 22.6797 36.0884C23.0469 36.0166 23.4409 35.9177 23.8706 35.8101C24.0854 35.0286 24.3003 34.2561 24.5151 33.4927C24.73 32.7202 24.9182 32.0107 25.0793 31.364C25.2405 30.7173 25.3657 30.1604 25.4644 29.6934C25.5627 29.2263 25.6074 28.8938 25.6074 28.7053C25.6074 28.6155 25.6074 28.5437 25.6074 28.4807C25.6074 28.418 25.5986 28.3101 25.5718 28.1575C25.7239 28.2024 25.9387 28.2742 26.2163 28.3818C26.4939 28.4897 26.7625 28.6155 27.0222 28.7502C27.2817 28.8938 27.5056 29.0286 27.7026 29.1543C27.8997 29.28 27.989 29.3789 27.989 29.4419C27.989 29.7832 27.8459 30.4658 27.5503 31.4807C27.2639 32.4956 26.8967 33.6902 26.467 35.0735C27.0938 34.9028 27.5952 34.7412 27.9802 34.6064C28.3652 34.4626 28.7231 34.364 29.0457 34.301C29.0457 34.1304 29.0276 33.9956 28.9829 33.9148C29.2605 33.9597 29.5469 34.0046 29.8335 34.0405C30.1199 34.0854 30.3887 34.1394 30.6392 34.2021C30.8899 34.2651 31.0869 34.3459 31.2393 34.4448C31.3914 34.5435 31.4629 34.6514 31.4629 34.7861C31.4629 34.9836 31.4182 35.2083 31.3376 35.4688C31.248 35.7292 31.1587 35.9985 31.051 36.2771C30.9436 36.5554 30.8542 36.834 30.7737 37.1213C30.6931 37.4087 30.675 37.6692 30.6931 37.9297C30.5408 37.9297 30.3259 37.9297 30.0483 37.9297C29.7708 37.9297 29.4932 37.9207 29.2246 37.8938C28.9561 37.8757 28.7231 37.822 28.5173 37.75C28.3115 37.6782 28.2129 37.5525 28.2129 37.3818C28.2129 37.2561 28.2488 37.0854 28.3293 36.8789C28.4009 36.6724 28.4905 36.4568 28.5889 36.2141C28.6875 35.9807 28.7771 35.738 28.8665 35.5046C28.9561 35.271 29.0188 35.0645 29.0635 34.8938C28.6963 35.0017 28.3025 35.1543 27.8728 35.343C27.4429 35.5405 26.9058 35.738 26.261 35.9536C25.9836 36.9058 25.697 37.8669 25.4106 38.8459C25.124 39.825 24.8555 40.759 24.6226 41.6392C24.3899 42.5195 24.1838 43.3188 24.0227 44.0195C23.8616 44.72 23.772 45.2769 23.7451 45.6812C23.6558 45.6631 23.4856 45.6094 23.2258 45.5195C22.9663 45.4297 22.7065 45.3398 22.438 45.241C22.1694 45.1423 21.9365 45.0435 21.7307 44.9355C21.5249 44.8279 21.4172 44.72 21.4172 44.6123Z" fill="#FFB774" fill-opacity="1.000000" fill-rule="nonzero"/>
	<path d="M92.104 41.8464C92.2563 41.2896 92.498 40.4094 92.8293 39.2239C93.1606 38.0381 93.5723 36.7178 94.0559 35.2627C94.5393 33.8076 95.0945 32.3076 95.7302 30.7717C96.3657 29.2268 97.0374 27.8257 97.7625 26.5503C98.4788 25.2749 99.2488 24.2329 100.055 23.4155C100.86 22.5981 101.693 22.1851 102.552 22.1851C102.875 22.1851 103.179 22.2927 103.475 22.5083C103.761 22.7239 104.03 22.9575 104.263 23.218C104.522 23.5234 104.764 23.8647 105.006 24.251C104.943 24.2329 104.863 24.2061 104.782 24.188C104.719 24.1702 104.639 24.1431 104.558 24.1252C104.469 24.1072 104.388 24.0891 104.299 24.0891C103.206 24.0891 102.167 24.4753 101.201 25.2568C100.234 26.0293 99.3293 27.0173 98.4968 28.2119C97.655 29.4065 96.9031 30.7358 96.2227 32.1909C95.542 33.646 94.9512 35.0562 94.4319 36.4124C93.9126 37.7688 93.4829 38.9993 93.1248 40.095C92.7666 41.1909 92.5159 41.9902 92.3638 42.4841C92.489 42.7446 92.6233 42.9065 92.7488 42.9692C92.2742 43.0322 91.8354 43.041 91.4236 42.9873C91.0117 42.9333 90.6536 42.7808 90.3313 42.5381C90.009 42.2866 89.7493 41.9363 89.5613 41.4692C89.3643 41.0022 89.2568 40.4185 89.239 39.7087C89.2209 39.0442 89.1941 38.1909 89.1763 37.167C89.1584 36.1431 89.1316 35.1191 89.1135 34.0952C89.0957 33.071 89.0779 32.155 89.0688 31.3467C89.0598 30.5383 89.051 30.0264 89.051 29.8108L89.051 29.2898C88.8809 29.8108 88.5854 30.637 88.1824 31.7778C87.7705 32.9185 87.2693 34.2029 86.6694 35.6221C86.0696 37.0413 85.3979 38.5051 84.6548 40.0051C83.9116 41.5051 83.1328 42.8794 82.3181 44.1279C81.5032 45.3765 80.6616 46.4004 79.8022 47.1997C78.9426 47.9993 78.092 48.3943 77.2595 48.3943C76.937 48.3943 76.6685 48.2776 76.4536 48.0352C76.2388 47.8015 76.0686 47.532 75.9343 47.2268C75.782 46.8855 75.6567 46.4812 75.5493 46.032C75.6389 46.0769 75.7195 46.104 75.8091 46.1309C75.979 46.1758 76.1313 46.1938 76.2566 46.1938C77.3132 46.1938 78.3337 45.8254 79.3186 45.0979C80.3035 44.3704 81.2346 43.4185 82.1033 42.2686C82.9717 41.1189 83.7864 39.8435 84.5386 38.4514C85.2905 37.0591 85.9622 35.7029 86.553 34.3735C87.1438 33.0442 87.6453 31.8315 88.0662 30.7358C88.4868 29.6401 88.8003 28.8137 89.0151 28.2749C88.9255 28.0144 88.8899 27.8347 88.8899 27.7268C89.1494 27.7268 89.436 27.7358 89.7402 27.7629C90.0537 27.7808 90.3491 27.8706 90.6267 28.0234C90.9043 28.176 91.146 28.3916 91.334 28.688C91.531 28.9753 91.6206 29.3975 91.6206 29.9365C91.6206 30.2148 91.6294 30.6282 91.6562 31.167C91.6743 31.7058 91.6921 32.3076 91.7012 32.9634C91.71 33.6191 91.728 34.3018 91.7458 35.0203C91.7639 35.7297 91.7817 36.4124 91.7908 37.0591C91.7996 37.7058 91.8086 38.2808 91.8264 38.7747C91.8354 39.2688 91.8445 39.637 91.8445 39.8706C91.8713 40.625 91.9519 41.2808 92.104 41.8464Z" fill="#FFB774" fill-opacity="1.000000" fill-rule="nonzero"/>
	<path d="M61.967 29.6306C61.8149 33.4927 60.2393 36.0886 58.4216 36.0166C56.604 35.9448 55.2432 33.2322 55.3955 29.3701C55.5476 25.5078 58.9856 22.0408 58.9856 22.0408C58.9856 22.0408 62.1194 25.7683 61.967 29.6306Z" fill="#37393F" fill-opacity="1.000000" fill-rule="nonzero"/>
	<path d="M66.2917 28.3552C66.2737 28.5078 65.8262 32.1187 63.5876 34.2383C62.5222 35.2532 61.3674 35.9988 60.3467 36.3311C59.2544 36.6904 58.3591 36.5735 57.8218 35.9988C56.7742 34.894 57.6697 32.4329 59.8901 30.3132C62.1284 28.1934 65.7366 27.9419 65.8977 27.9329L66.3455 27.906L66.2917 28.3552ZM58.3679 35.4778C58.6902 35.8281 59.3171 35.873 60.1138 35.6125C61.0271 35.3162 62.0835 34.6335 63.0684 33.6904C64.6533 32.1904 65.262 29.7654 65.459 28.7412C64.4382 28.885 61.9851 29.3611 60.4094 30.8611C58.9946 32.2083 58.1172 33.6904 58.1172 34.7322C58.1172 35.0466 58.2068 35.2981 58.3679 35.4778Z" fill="#37393F" fill-opacity="1.000000" fill-rule="nonzero"/>
	<path d="M58.9856 36.0432C58.6453 36.3486 58.1797 36.5015 57.6426 36.4744C56.3979 36.4116 54.7954 35.4236 53.3718 33.8337C51.3125 31.5344 51.1514 27.9058 51.1423 27.7529L51.1245 27.2949L51.5723 27.3579C51.7244 27.3757 55.3057 27.9236 57.365 30.2141C58.7527 31.759 59.5405 33.3577 59.5405 34.6062C59.5586 35.208 59.3616 35.7109 58.9856 36.0432ZM53.9358 33.3218C55.2163 34.741 56.6487 35.666 57.6873 35.72C58.0276 35.738 58.2961 35.6572 58.4841 35.4863C58.6902 35.2979 58.7976 35.0015 58.7976 34.6152C58.7976 33.5642 58.0544 32.1182 56.8188 30.7261C55.3594 29.1003 52.96 28.4268 51.9482 28.2021C52.0647 29.2261 52.4766 31.687 53.9358 33.3218Z" fill="#37393F" fill-opacity="1.000000" fill-rule="nonzero"/>
	<path d="M59.0303 28.2563C59.0303 28.0945 58.905 27.96 58.7349 27.9509C58.5647 27.9419 58.4304 28.0767 58.4216 28.2383L57.6157 48.313C57.6157 48.3218 57.6157 48.322 57.6157 48.322C57.6157 48.4836 57.741 48.6184 57.9111 48.6272C58.0813 48.6362 58.2156 48.5015 58.2246 48.3308L59.0303 28.2563Z" fill="#37393F" fill-opacity="1.000000" fill-rule="nonzero"/>
	<path d="M70.8757 33.5649C70.8757 33.5381 70.8757 33.52 70.8669 33.4932C70.8311 33.3315 70.6609 33.2327 70.4998 33.2686C70.3745 33.2957 58.0906 36.4033 57.6697 47.1277C57.6697 47.1367 57.6697 47.1367 57.6697 47.1367C57.6697 47.2983 57.7949 47.4331 57.9563 47.4421C58.1262 47.4512 58.2605 47.3164 58.2695 47.1458C58.6814 36.8704 70.5178 33.8794 70.634 33.8525C70.7864 33.8254 70.8757 33.6997 70.8757 33.5649Z" fill="#37393F" fill-opacity="1.000000" fill-rule="nonzero"/>
	<path d="M67.1958 40.0767C67.1958 40.0676 67.1958 40.0496 67.1958 40.0317C67.1689 39.8611 67.0166 39.7441 66.8555 39.7712C66.7661 39.7803 57.9202 41.0647 57.6426 47.9268L57.6426 47.9358C57.6426 48.0974 57.7678 48.2322 57.938 48.2412C58.1082 48.2502 58.2424 48.1155 58.2515 47.9448C58.5022 41.5945 66.8555 40.3821 66.936 40.373C67.0884 40.355 67.1958 40.2292 67.1958 40.0767Z" fill="#37393F" fill-opacity="1.000000" fill-rule="nonzero"/>
	<path d="M58.2874 46.5972C58.2874 36.2859 46.7107 32.3518 46.5942 32.3069C46.4331 32.2529 46.2629 32.3428 46.2092 32.5046C46.1646 32.6663 46.2451 32.8369 46.4062 32.8909C46.5227 32.9268 58.0994 36.8608 57.6785 47.136C57.6785 47.145 57.6785 47.145 57.6785 47.145C57.6785 47.3069 57.804 47.4414 57.9651 47.4504C58.135 47.4595 58.2695 47.3247 58.2783 47.1541C58.2874 46.9653 58.2874 46.7769 58.2874 46.5972Z" fill="#37393F" fill-opacity="1.000000" fill-rule="nonzero"/>
	<path d="M58.2515 47.6392C58.2515 41.0286 49.7996 39.1064 49.71 39.0884C49.5488 39.0525 49.3877 39.1604 49.3518 39.322C49.3162 39.4927 49.4236 39.6453 49.5847 39.6812C49.6653 39.6992 57.8665 41.5586 57.6426 47.9268L57.6426 47.9358C57.6426 48.0974 57.7681 48.2322 57.9382 48.241C58.1082 48.25 58.2424 48.1152 58.2515 47.9446C58.2515 47.8459 58.2515 47.738 58.2515 47.6392Z" fill="#37393F" fill-opacity="1.000000" fill-rule="nonzero"/>
	<path d="M72.738 33.655C72.6934 34.8496 71.6816 35.7837 70.4907 35.7388C69.3269 35.6938 68.4136 34.7417 68.4136 33.4844C68.4583 32.2898 69.47 31.3555 70.6609 31.4004C71.8247 31.4453 72.738 32.3975 72.738 33.5742L72.738 33.655ZM70.5176 34.9033C71.2517 34.9304 71.8696 34.3555 71.9053 33.6189L72.3262 33.5652L71.9053 33.5652C71.9053 32.8467 71.3413 32.2627 70.625 32.2268C69.8909 32.2 69.2732 32.7747 69.2373 33.5652C69.2373 34.2837 69.8013 34.8765 70.5176 34.9033Z" fill="#37393F" fill-opacity="1.000000" fill-rule="nonzero"/>
	<path d="M48.6626 32.6846C48.6357 33.2683 48.3938 33.7983 47.9641 34.1936C47.5435 34.5886 46.9883 34.7864 46.4062 34.7683C45.2424 34.7234 44.3291 33.7712 44.3291 32.5139C44.356 31.9302 44.5977 31.4001 45.0273 31.0049C45.4482 30.6096 46.0034 30.4121 46.5854 30.4302C47.7493 30.4751 48.6626 31.427 48.6626 32.6038L48.6626 32.6846ZM46.4421 33.9331C46.8003 33.9509 47.1404 33.8252 47.4001 33.5828C47.6597 33.3403 47.812 33.0078 47.8298 32.6487L48.2507 32.5947L47.8389 32.5947C47.8389 31.8762 47.2747 31.2922 46.5586 31.2563C46.2004 31.2385 45.8601 31.3643 45.6006 31.6067C45.3408 31.8491 45.1887 32.1816 45.1707 32.5947C45.1619 33.3132 45.7258 33.906 46.4421 33.9331Z" fill="#37393F" fill-opacity="1.000000" fill-rule="nonzero"/>
	<path d="M68.6375 40.1484C68.6018 41.1184 67.7869 41.873 66.8201 41.8281C65.853 41.7922 65.1008 40.9749 65.1458 40.0049C65.1814 39.0347 65.9963 38.2803 66.9631 38.3252C67.9302 38.3611 68.6733 39.1785 68.6375 40.1484Z" fill="#37393F" fill-opacity="1.000000" fill-rule="nonzero"/>
	<path d="M51.3931 39.4568C51.3574 40.4268 50.5425 41.1814 49.5757 41.1365C48.6086 41.1006 47.8564 40.2832 47.9014 39.3132C47.937 38.343 48.752 37.5886 49.7188 37.6335C50.6858 37.6694 51.429 38.4868 51.3931 39.4568Z" fill="#37393F" fill-opacity="1.000000" fill-rule="nonzero"/>
</svg>
