<svg width="18.000000" height="27.000000" viewBox="0 0 18 27" fill="none" xmlns="http://www.w3.org/2000/svg" xmlns:xlink="http://www.w3.org/1999/xlink">
	<desc>
			Created with Pixso.
	</desc>
	<defs/>
	<path id="Icon" d="M1.5 0C0.671387 0 0 0.67157 0 1.5L0 25.5C0 26.3284 0.671387 27 1.5 27C2.32861 27 3 26.3284 3 25.5L3 1.5C3 0.67157 2.32861 0 1.5 0ZM9 0C8.17139 0 7.5 0.67157 7.5 1.5L7.5 16.5C7.5 17.3284 8.17139 18 9 18C9.82861 18 10.5 17.3284 10.5 16.5L10.5 1.5C10.5 0.67157 9.82861 0 9 0ZM15 1.5C15 0.67157 15.6714 0 16.5 0C17.3286 0 18 0.67157 18 1.5L18 7.5C18 8.32843 17.3286 9 16.5 9C15.6714 9 15 8.32843 15 7.5L15 1.5Z" fill="#FFB774" fill-opacity="1.000000" fill-rule="evenodd"/>
</svg>
