<svg width="22.000000" height="32.000000" viewBox="0 0 22 32" fill="none" xmlns="http://www.w3.org/2000/svg" xmlns:xlink="http://www.w3.org/1999/xlink">
	<desc>
			Created with Pixso.
	</desc>
	<defs/>
	<path d="M1 10.8802C1 17.1547 7.66602 27.0977 10.1152 30.532C10.2168 30.677 10.3496 30.7949 10.5039 30.8762C10.6562 30.9576 10.8281 31 11 31C11.1719 31 11.3438 30.9576 11.4961 30.8762C11.6504 30.7949 11.7832 30.677 11.8848 30.532C14.334 27.0991 21 17.1597 21 10.8802C21 5.42737 16.5215 1 11 1C5.47852 1 1 5.42737 1 10.8802Z" stroke="#094235" stroke-opacity="1.000000" stroke-width="2.000000" stroke-linejoin="round"/>
	<path d="M11 16C8.79102 16 7 14.2091 7 12C7 9.79089 8.79102 8 11 8C13.209 8 15 9.79089 15 12C15 14.2091 13.209 16 11 16Z" stroke="#094235" stroke-opacity="1.000000" stroke-width="2.000000" stroke-linejoin="round"/>
</svg>
