<svg width="27.951172" height="27.894409" viewBox="0 0 27.9512 27.8944" fill="none" xmlns="http://www.w3.org/2000/svg" xmlns:xlink="http://www.w3.org/1999/xlink">
	<desc>
			Created with Pixso.
	</desc>
	<defs/>
	<path d="M21.6465 18.2567C20.1289 17.4917 20.0039 17.4292 18.8105 18.316C18.0137 18.908 17.4844 19.4366 16.5527 19.2379C15.6211 19.0392 13.5957 17.9186 11.8223 16.1511C10.0488 14.3838 8.86328 12.3 8.66406 11.3713C8.46484 10.4426 9.00195 9.91956 9.58789 9.12146C10.4141 7.99646 10.3516 7.80896 9.64648 6.29028C9.0957 5.10913 7.59375 2.72803 6.58984 1.74048C5.51562 0.679932 5.51562 0.867432 4.82422 1.15491C4.25977 1.39185 3.7207 1.67993 3.20898 2.0155C2.20898 2.67981 1.6543 3.23169 1.26562 4.06104C0.878906 4.89038 0.703125 6.83472 2.70898 10.4758C4.71289 14.1168 6.11914 15.9786 9.0293 18.881C11.9395 21.7834 14.1777 23.344 17.4512 25.1788C21.498 27.4457 23.0508 27.0038 23.8828 26.6163C24.7148 26.2289 25.2695 25.6788 25.9336 24.679C26.2715 24.1691 26.5586 23.6293 26.7969 23.0665C27.0859 22.3772 27.2734 22.3772 26.209 21.3041C25.2168 20.3041 22.8145 18.8447 21.6465 18.2567Z" stroke="#094235" stroke-opacity="1.000000" stroke-width="2.000000"/>
</svg>
