<svg width="47.797852" height="45.000000" viewBox="0 0 47.7979 45" fill="none" xmlns="http://www.w3.org/2000/svg" xmlns:xlink="http://www.w3.org/1999/xlink">
	<desc>
			Created with Pixso.
	</desc>
	<defs/>
	<rect id="Rectangle 293" rx="22.500000" width="47.797928" height="45.000000" fill="#FFB774" fill-opacity="1.000000"/>
	<path id="Vector" d="M29.1724 12.9377C30.5698 12.9417 31.9087 13.4465 32.897 14.3425C33.8848 15.2383 34.4419 16.4521 34.4463 17.7192L34.4463 27.2808C34.4419 28.5479 33.8848 29.7617 32.897 30.6575C31.9087 31.5535 30.5698 32.0583 29.1724 32.0623L18.6255 32.0623C17.228 32.0583 15.8887 31.5535 14.9009 30.6575C13.9126 29.7617 13.3555 28.5479 13.3516 27.2808L13.3516 17.7192C13.3555 16.4521 13.9126 15.2383 14.9009 14.3425C15.8887 13.4465 17.228 12.9417 18.6255 12.9377L29.1724 12.9377ZM29.1724 11.0256L18.6255 11.0256C14.5645 11.0256 11.2422 14.0376 11.2422 17.7192L11.2422 27.2808C11.2422 30.9624 14.5645 33.9744 18.6255 33.9744L29.1724 33.9744C33.2329 33.9744 36.5552 30.9624 36.5552 27.2808L36.5552 17.7192C36.5552 14.0376 33.2329 11.0256 29.1724 11.0256Z" fill="#FFFFFF" fill-opacity="1.000000" fill-rule="nonzero"/>
	<path id="Vector" d="M30.7539 17.7192C30.4409 17.7192 30.1353 17.635 29.875 17.4775C29.6147 17.3198 29.4121 17.0959 29.2925 16.8337C29.1729 16.5718 29.1411 16.2832 29.2021 16.0051C29.2637 15.7268 29.4141 15.4712 29.6353 15.2708C29.8564 15.0701 30.1387 14.9336 30.4453 14.8782C30.7524 14.8228 31.0703 14.8513 31.3594 14.9597C31.6484 15.0684 31.8955 15.2522 32.0693 15.488C32.2432 15.7239 32.3359 16.0012 32.3359 16.2849C32.3364 16.4734 32.2959 16.6602 32.2168 16.8342C32.1372 17.0085 32.0205 17.1667 31.8735 17.3C31.7266 17.4333 31.5522 17.5388 31.3599 17.6108C31.168 17.6829 30.9619 17.7195 30.7539 17.7192ZM23.8984 18.675C24.7329 18.675 25.5488 18.8994 26.2427 19.3196C26.9365 19.74 27.4771 20.3374 27.7964 21.0361C28.1157 21.7351 28.1992 22.5042 28.0366 23.2463C27.874 23.9883 27.4722 24.6697 26.8818 25.2046C26.292 25.7395 25.54 26.104 24.7217 26.2515C23.9033 26.3992 23.0552 26.3232 22.2842 26.0337C21.5132 25.7444 20.854 25.2542 20.3906 24.625C19.9268 23.9961 19.6797 23.2566 19.6797 22.5C19.6807 21.4858 20.1255 20.5137 20.9165 19.7966C21.7075 19.0793 22.7798 18.676 23.8984 18.675ZM23.8984 16.7627C22.647 16.7627 21.4233 17.0994 20.3828 17.7297C19.3423 18.3601 18.5308 19.2561 18.0522 20.3044C17.5732 21.3528 17.4478 22.5063 17.6919 23.6194C17.936 24.7322 18.5386 25.7544 19.4238 26.5569C20.3091 27.3591 21.4365 27.9055 22.6641 28.127C23.8916 28.3484 25.1641 28.2346 26.3203 27.8005C27.4766 27.3662 28.4648 26.6309 29.1602 25.6875C29.856 24.7439 30.2271 23.6348 30.2271 22.5C30.2271 20.9785 29.5601 19.519 28.3735 18.4431C27.1865 17.3672 25.5771 16.7627 23.8984 16.7627Z" fill="#FFFFFF" fill-opacity="1.000000" fill-rule="nonzero"/>
</svg>
