<svg width="53.108887" height="50.000000" viewBox="0 0 53.1089 50" fill="none" xmlns="http://www.w3.org/2000/svg" xmlns:xlink="http://www.w3.org/1999/xlink">
	<desc>
			Created with Pixso.
	</desc>
	<defs/>
	<rect id="Rectangle 294" rx="25.000000" width="53.108807" height="50.000000" fill="#FFB774" fill-opacity="1.000000"/>
	<path id="Vector" d="M39.2109 25.0688C39.2109 18.7324 33.5439 13.5945 26.5547 13.5945C19.5649 13.5945 13.8979 18.7324 13.8979 25.0688C13.8979 30.7959 18.5254 35.5427 24.5771 36.4045L24.5771 28.3867L21.3623 28.3867L21.3623 25.0688L24.5771 25.0688L24.5771 22.541C24.5771 19.6658 26.4668 18.0762 29.3574 18.0762C30.7427 18.0762 32.1914 18.3005 32.1914 18.3005L32.1914 21.1245L30.5942 21.1245C29.0229 21.1245 28.5317 22.0088 28.5317 22.9175L28.5317 25.0688L32.0415 25.0688L31.481 28.3867L28.5322 28.3867L28.5322 36.4055C34.5835 35.5444 39.2109 30.7974 39.2109 25.0688Z" fill="#FFFFFF" fill-opacity="1.000000" fill-rule="evenodd"/>
</svg>
