<svg width="53.108887" height="50.000000" viewBox="0 0 53.1089 50" fill="none" xmlns="http://www.w3.org/2000/svg" xmlns:xlink="http://www.w3.org/1999/xlink">
	<desc>
			Created with Pixso.
	</desc>
	<defs/>
	<rect id="Rectangle 292" rx="25.000000" width="53.108807" height="50.000000" fill="#FFB774" fill-opacity="1.000000"/>
	<path id="Vector" d="M40.1157 17.2068C39.0986 17.623 38.022 17.8972 36.9204 18.0208C38.0781 17.3826 38.9487 16.3687 39.3687 15.1694C38.2744 15.772 37.0791 16.1946 35.834 16.4194C35.3096 15.9021 34.6792 15.4907 33.981 15.21C33.2822 14.9292 32.5303 14.7852 31.771 14.7864C28.6963 14.7864 26.2075 17.095 26.2075 19.9409C26.2056 20.3369 26.2539 20.7314 26.3511 21.1167C24.1465 21.0193 21.9873 20.4897 20.0122 19.5618C18.0371 18.634 16.2896 17.3281 14.8813 15.728C14.3872 16.5122 14.126 17.4067 14.1245 18.3186C14.1245 20.106 15.1152 21.6858 16.6108 22.6113C15.7246 22.5916 14.8569 22.3708 14.0806 21.9678L14.0806 22.0315C14.0806 24.5317 16.0015 26.6116 18.5444 27.0852C18.0664 27.2051 17.5732 27.2659 17.0786 27.2659C16.7275 27.2666 16.377 27.2344 16.0327 27.1702C16.7397 29.2183 18.7969 30.7078 21.2339 30.7502C19.2534 32.187 16.8223 32.9636 14.3223 32.9578C13.8789 32.9573 13.4355 32.9324 12.9946 32.8833C15.5381 34.4124 18.4941 35.2209 21.5117 35.2134C31.7593 35.2134 37.3574 27.3564 37.3574 20.542C37.3574 20.3186 37.3511 20.0952 37.3398 19.8772C38.4263 19.1494 39.3667 18.2451 40.1157 17.2068Z" fill="#FFFFFF" fill-opacity="1.000000" fill-rule="nonzero"/>
</svg>
