<svg width="27.952881" height="27.894531" viewBox="0 0 27.9529 27.8945" fill="none" xmlns="http://www.w3.org/2000/svg" xmlns:xlink="http://www.w3.org/1999/xlink">
	<desc>
			Created with Pixso.
	</desc>
	<defs/>
	<path d="M21.6484 18.2568C20.1296 17.4917 20.0046 17.4292 18.8108 18.3159C18.0144 18.9077 17.4851 19.4365 16.5532 19.2378C15.6213 19.0391 13.5962 17.9185 11.823 16.1514C10.0498 14.3838 8.86426 12.3003 8.66479 11.3716C8.46558 10.4429 9.00293 9.91943 9.58936 9.12158C10.4155 7.99658 10.353 7.80908 9.64673 6.29053C9.09619 5.10889 7.59424 2.72803 6.59033 1.74072C5.5166 0.680176 5.5166 0.867676 4.82471 1.15479C4.26147 1.39209 3.72119 1.68018 3.21045 2.01562C2.21045 2.67969 1.65527 3.23193 1.26709 4.06104C0.87915 4.89062 0.70459 6.83447 2.70923 10.4756C4.71362 14.1167 6.11987 15.9785 9.03052 18.8809C11.9412 21.7832 14.1794 23.3438 17.4514 25.1787C21.499 27.4458 23.0515 27.0039 23.8833 26.6162C24.7153 26.229 25.2698 25.6787 25.9353 24.6787C26.2717 24.1689 26.5605 23.6294 26.7979 23.0664C27.0859 22.377 27.2734 22.377 26.2109 21.3042C25.2185 20.3042 22.8147 18.8447 21.6484 18.2568Z" stroke="#FFB774" stroke-opacity="1.000000" stroke-width="2.000000"/>
</svg>
