<svg width="190.000000" height="54.115723" viewBox="0 0 190 54.1157" fill="none" xmlns="http://www.w3.org/2000/svg" xmlns:xlink="http://www.w3.org/1999/xlink">
	<desc>
			Created with Pixso.
	</desc>
	<defs/>
	<path id="Vector" d="M185.936 23.875C185.936 25.918 185.144 27.5923 183.561 28.8975C182.074 30.1064 180.285 30.7109 178.194 30.7109C177.492 30.7109 176.822 30.6562 176.181 30.5479C175.818 30.4873 175.033 30.2515 173.824 29.8403C172.76 29.4897 172.023 29.3149 171.612 29.3149C171.007 29.3149 170.639 29.7803 170.506 30.7109L169.835 30.7109L169.835 22.2798L170.506 22.2798C170.784 23.8633 171.14 25.0596 171.575 25.8696C172.144 26.9453 173.026 27.7979 174.223 28.4263C175.311 29.0063 176.507 29.2964 177.813 29.2964C179.118 29.2964 180.236 28.958 181.167 28.2812C182.195 27.5439 182.708 26.5405 182.708 25.2715C182.708 23.9419 182.025 22.7568 180.659 21.7173C179.825 21.0767 178.441 20.2368 176.507 19.1973C174.585 18.1455 173.189 17.2754 172.319 16.5864C170.506 15.1597 169.599 13.4556 169.599 11.4731C169.599 9.56299 170.33 7.9917 171.793 6.75879C173.183 5.58643 174.851 5 176.797 5C178.115 5 179.499 5.32031 180.95 5.96094C181.639 6.26318 182.116 6.41406 182.382 6.41406C183.01 6.41406 183.428 5.94287 183.633 5L184.304 5L184.304 13.5039L183.633 13.5039C183.222 10.4458 182.031 8.37842 180.061 7.30273C179.021 6.73438 177.946 6.45068 176.834 6.45068C175.709 6.45068 174.718 6.78906 173.86 7.46582C172.941 8.20312 172.482 9.12207 172.482 10.2222C172.482 10.9595 172.742 11.6421 173.262 12.271C174.023 13.1772 175.806 14.3862 178.611 15.897C180.557 16.9365 181.802 17.644 182.346 18.0186C183.736 18.9614 184.709 19.9771 185.265 21.0649C185.712 21.9595 185.936 22.896 185.936 23.875Z" fill="#FFFFFF" fill-opacity="1.000000" fill-rule="nonzero"/>
	<path id="Vector" d="M165.828 17.7104C165.828 21.2886 164.716 24.3223 162.491 26.8125C160.183 29.4116 157.263 30.7109 153.734 30.7109C150.144 30.7109 147.225 29.4355 144.976 26.8853C142.825 24.4434 141.749 21.4033 141.749 17.7646C141.749 13.8604 143.078 10.6753 145.738 8.20947C148.047 6.06982 150.809 5 154.024 5C157.421 5 160.261 6.28125 162.546 8.84375C164.734 11.3101 165.828 14.2651 165.828 17.7104ZM161.676 18.1997C161.676 14.8999 161.162 12.2529 160.134 10.2583C158.793 7.63525 156.641 6.32373 153.679 6.32373C151.479 6.32373 149.715 7.13965 148.385 8.77148C146.729 10.8022 145.901 13.7759 145.901 17.6924C145.901 21.7173 146.759 24.8062 148.476 26.9575C149.781 28.6016 151.522 29.4233 153.698 29.4233C156.562 29.4233 158.678 28.2026 160.044 25.7607C161.132 23.8267 161.676 21.3066 161.676 18.1997Z" fill="#FFFFFF" fill-opacity="1.000000" fill-rule="nonzero"/>
	<path id="Vector" d="M140.77 30.1489L134.206 30.1489L125.884 18.6533C125.267 18.6772 124.766 18.6895 124.379 18.6895C124.052 18.6895 123.696 18.6772 123.309 18.6533L123.309 25.7969C123.309 27.332 123.478 28.293 123.817 28.6802C124.288 29.2119 124.977 29.478 125.884 29.478L126.845 29.478L126.845 30.1489L116.31 30.1489L116.31 29.478L117.235 29.478C118.274 29.478 119.018 29.1392 119.465 28.4624C119.719 28.0757 119.846 27.187 119.846 25.7969L119.846 9.91357C119.846 8.36621 119.677 7.40527 119.338 7.03076C118.867 6.49902 118.166 6.23291 117.235 6.23291L116.31 6.23291L116.31 5.56201L125.267 5.56201C127.455 5.56201 129.063 5.6709 130.09 5.88818C131.831 6.26318 133.203 7.04297 134.206 8.22754C135.064 9.25488 135.493 10.4756 135.493 11.8901C135.493 15.1899 133.475 17.2871 129.438 18.1816L134.514 25.2349C135.542 26.6733 136.412 27.6523 137.125 28.1724C138.068 28.8857 139.283 29.3208 140.77 29.478L140.77 30.1489ZM131.414 12.1255C131.414 10.5664 130.93 9.31543 129.963 8.37256C128.996 7.41748 127.727 6.93994 126.156 6.93994C125.455 6.93994 124.506 7.05469 123.309 7.28467L123.309 17.5107L123.817 17.5107C124.046 17.5229 124.216 17.5288 124.324 17.5288C126.295 17.5288 127.908 17.1299 129.166 16.3325C130.664 15.3896 131.414 13.9873 131.414 12.1255Z" fill="#FFFFFF" fill-opacity="1.000000" fill-rule="nonzero"/>
	<path id="Vector" d="M115.131 6.23291L114.261 6.23291C113.222 6.23291 112.484 6.54736 112.049 7.17578C111.783 7.5625 111.65 8.44482 111.65 9.82275L111.65 30.5474L110.997 30.5474L94.7876 10.7476L94.7876 25.8877C94.7876 27.4106 94.9507 28.3535 95.2771 28.7163C95.7244 29.2241 96.4316 29.478 97.3987 29.478L98.2688 29.478L98.2688 30.1489L89.7107 30.1489L89.7107 29.478L90.563 29.478C91.6145 29.478 92.3579 29.1636 92.7932 28.5352C93.0591 28.1479 93.1919 27.2656 93.1919 25.8877L93.1919 8.78955C92.5513 8.04004 92.074 7.54443 91.7595 7.30273C91.3123 6.93994 90.708 6.6377 89.9465 6.396C89.6079 6.28711 89.0762 6.23291 88.3508 6.23291L88.3508 5.56201L95.0234 5.56201L110.054 24.002L110.054 9.82275C110.054 8.31201 109.885 7.36914 109.547 6.99463C109.1 6.48682 108.393 6.23291 107.426 6.23291L106.573 6.23291L106.573 5.56201L115.131 5.56201L115.131 6.23291Z" fill="#FFFFFF" fill-opacity="1.000000" fill-rule="nonzero"/>
	<path id="Vector" d="M88.4053 30.1489L78.7046 30.1489L78.7046 29.478C80.3728 29.3931 81.2068 28.8916 81.2068 27.9731C81.2068 27.4409 80.9651 26.6011 80.4817 25.4526L78.9949 21.917L69.4756 21.917L67.8074 25.7974C67.3965 26.752 67.1909 27.4653 67.1909 27.9365C67.1909 28.8311 68.1399 29.3447 70.0376 29.478L70.0376 30.1489L62.2954 30.1489L62.2954 29.478C63.323 29.2964 63.9878 29.061 64.2898 28.7705C64.8943 28.2026 65.5771 27.0239 66.3389 25.2349L74.9875 5L75.6223 5L84.1804 25.4526C84.7607 26.8306 85.2563 27.7554 85.6672 28.2266C86.3201 28.9883 87.2327 29.4053 88.4053 29.478L88.4053 30.1489ZM78.4871 20.5752L74.3169 10.6392L70.0376 20.5752L78.4871 20.5752Z" fill="#FFFFFF" fill-opacity="1.000000" fill-rule="nonzero"/>
	<path id="Vector" d="M186.679 44.7329C186.679 44.7329 186.914 44.7329 187.384 44.7329C187.403 45.061 187.499 45.3149 187.673 45.4946C187.846 45.6714 188.083 45.7593 188.382 45.7593C188.644 45.7593 188.858 45.6743 189.026 45.5039C189.193 45.3306 189.276 45.1099 189.276 44.8418C189.276 44.5991 189.208 44.4116 189.073 44.2788C188.94 44.1465 188.666 43.9951 188.25 43.8247C187.868 43.6641 187.636 43.563 187.554 43.522C187.476 43.4814 187.381 43.4102 187.271 43.3096C187.006 43.0635 186.873 42.748 186.873 42.3633C186.873 41.9312 187.014 41.5752 187.294 41.2944C187.578 41.0107 187.938 40.8687 188.373 40.8687C188.799 40.8687 189.15 41.001 189.427 41.2661C189.708 41.5308 189.855 41.876 189.867 42.3018L189.139 42.3018C189.12 42.0498 189.043 41.8574 188.907 41.7246C188.775 41.5923 188.594 41.5264 188.363 41.5264C188.152 41.5264 187.971 41.6001 187.819 41.7485C187.671 41.8965 187.597 42.0781 187.597 42.2925C187.597 42.5952 187.763 42.8315 188.094 43.002C188.475 43.1626 188.805 43.3013 189.082 43.418C189.694 43.6733 190 44.1245 190 44.771C190 45.2563 189.85 45.6538 189.551 45.9629C189.251 46.2686 188.862 46.4219 188.382 46.4219C187.868 46.4219 187.457 46.2686 187.148 45.9629C186.842 45.6572 186.686 45.2471 186.679 44.7329Z" fill="#696969" fill-opacity="1.000000" fill-rule="nonzero"/>
	<path id="Vector" d="M185.928 43.8818C185.928 43.8818 184.331 43.8818 181.136 43.8818C181.165 44.4053 181.379 44.8496 181.78 45.2153C182.18 45.5781 182.653 45.7593 183.198 45.7593C183.602 45.7593 183.974 45.6489 184.315 45.4282C184.655 45.2046 184.9 44.9111 185.048 44.5488L185.795 44.5488C185.6 45.1069 185.266 45.5591 184.792 45.9062C184.32 46.25 183.794 46.4219 183.218 46.4219C182.833 46.4219 182.467 46.3491 182.12 46.2041C181.773 46.0591 181.475 45.8618 181.226 45.6128C180.977 45.3638 180.78 45.0659 180.635 44.7188C180.49 44.3721 180.417 44.0063 180.417 43.6216C180.417 43.1172 180.539 42.6533 180.781 42.231C181.024 41.8086 181.355 41.4756 181.775 41.2329C182.194 40.9902 182.656 40.8687 183.161 40.8687C183.684 40.8687 184.165 40.998 184.603 41.2563C185.045 41.5151 185.381 41.8667 185.611 42.3115C185.728 42.5352 185.81 42.7656 185.857 43.002C185.904 43.2354 185.928 43.5283 185.928 43.8818ZM181.155 43.2339L185.213 43.2339C185.094 42.707 184.849 42.291 184.48 41.9849C184.115 41.6792 183.675 41.5264 183.161 41.5264C182.659 41.5264 182.224 41.6836 181.855 41.999C181.486 42.3115 181.253 42.7227 181.155 43.2339Z" fill="#696969" fill-opacity="1.000000" fill-rule="nonzero"/>
	<path id="Vector" d="M178.62 44.7329C178.62 44.7329 178.891 44.7329 179.434 44.7329C179.282 45.02 179.143 45.2456 179.017 45.4097C178.891 45.5703 178.74 45.7168 178.563 45.8496C178.078 46.231 177.502 46.4219 176.837 46.4219C176.301 46.4219 175.812 46.3003 175.37 46.0576C174.929 45.8115 174.582 45.4756 174.33 45.0498C174.078 44.6211 173.951 44.1479 173.951 43.6309C173.951 43.1235 174.076 42.6582 174.325 42.2358C174.577 41.813 174.921 41.4805 175.356 41.2378C175.792 40.9917 176.269 40.8687 176.79 40.8687C177.389 40.8687 177.923 41.0249 178.393 41.3369C178.866 41.6489 179.21 42.0718 179.424 42.6045L178.62 42.6045C178.415 42.2578 178.155 41.9912 177.84 41.8052C177.524 41.6191 177.171 41.5264 176.78 41.5264C176.19 41.5264 175.692 41.731 175.285 42.1411C174.882 42.5508 174.68 43.0537 174.68 43.6499C174.68 44.2397 174.885 44.7393 175.295 45.1494C175.708 45.5562 176.212 45.7593 176.808 45.7593C177.187 45.7593 177.513 45.6807 177.787 45.5229C178.065 45.3652 178.343 45.1021 178.62 44.7329Z" fill="#696969" fill-opacity="1.000000" fill-rule="nonzero"/>
	<path id="Vector" d="M172.022 46.2939C172.022 46.2939 172.022 44.5278 172.022 40.9961C172.022 40.9961 172.261 40.9961 172.741 40.9961C172.741 40.9961 172.741 42.7622 172.741 46.2939C172.741 46.2939 172.501 46.2939 172.022 46.2939ZM172.022 40.3574C172.022 40.3574 172.022 39.9507 172.022 39.1372C172.022 39.1372 172.261 39.1372 172.741 39.1372C172.741 39.1372 172.741 39.5439 172.741 40.3574C172.741 40.3574 172.501 40.3574 172.022 40.3574Z" fill="#696969" fill-opacity="1.000000" fill-rule="nonzero"/>
	<path id="Vector" d="M168.157 46.2939C168.157 46.2939 167.415 44.5278 165.93 40.9961C165.93 40.9961 166.173 40.9961 166.658 40.9961C166.658 40.9961 167.278 42.4814 168.517 45.4517C168.517 45.4517 169.151 43.9663 170.418 40.9961C170.418 40.9961 170.66 40.9961 171.142 40.9961C171.142 40.9961 170.4 42.7622 168.914 46.2939C168.914 46.2939 168.662 46.2939 168.157 46.2939Z" fill="#696969" fill-opacity="1.000000" fill-rule="nonzero"/>
	<path id="Vector" d="M163.044 46.2939C163.044 46.2939 163.044 44.5283 163.044 40.9966C163.044 40.9966 163.284 40.9966 163.763 40.9966C163.763 40.9966 163.763 41.2471 163.763 41.7485C163.902 41.4585 164.09 41.2441 164.326 41.105C164.566 40.9663 164.878 40.8877 165.263 40.8687L165.263 41.5781C164.263 41.6729 163.763 42.2153 163.763 43.2051C163.763 43.2051 163.763 44.2349 163.763 46.2939C163.763 46.2939 163.524 46.2939 163.044 46.2939Z" fill="#696969" fill-opacity="1.000000" fill-rule="nonzero"/>
	<path id="Vector" d="M161.857 43.8818C161.857 43.8818 160.26 43.8818 157.066 43.8818C157.094 44.4053 157.309 44.8496 157.709 45.2153C158.11 45.5781 158.583 45.7593 159.128 45.7593C159.532 45.7593 159.904 45.6489 160.244 45.4282C160.585 45.2046 160.829 44.9111 160.978 44.5488L161.725 44.5488C161.53 45.1069 161.195 45.5591 160.722 45.9062C160.249 46.25 159.724 46.4219 159.147 46.4219C158.762 46.4219 158.396 46.3491 158.05 46.2041C157.703 46.0591 157.405 45.8618 157.156 45.6128C156.907 45.3638 156.709 45.0659 156.564 44.7188C156.419 44.3721 156.347 44.0063 156.347 43.6216C156.347 43.1172 156.468 42.6533 156.711 42.231C156.954 41.8086 157.285 41.4756 157.704 41.2329C158.124 40.9902 158.586 40.8687 159.09 40.8687C159.614 40.8687 160.095 40.998 160.533 41.2563C160.974 41.5151 161.31 41.8667 161.541 42.3115C161.657 42.5352 161.739 42.7656 161.786 43.002C161.834 43.2354 161.857 43.5283 161.857 43.8818ZM157.085 43.2339L161.143 43.2339C161.023 42.707 160.779 42.291 160.41 41.9849C160.044 41.6792 159.604 41.5264 159.09 41.5264C158.589 41.5264 158.154 41.6836 157.785 41.999C157.416 42.3115 157.183 42.7227 157.085 43.2339Z" fill="#696969" fill-opacity="1.000000" fill-rule="nonzero"/>
	<path id="Vector" d="M151.135 44.2886C151.135 44.2886 151.39 44.2886 151.901 44.2886C151.923 44.5156 151.961 44.7031 152.015 44.8516C152.071 44.9966 152.153 45.1318 152.26 45.2583C152.39 45.416 152.554 45.5386 152.752 45.627C152.954 45.7153 153.167 45.7593 153.391 45.7593C153.801 45.7593 154.138 45.6255 154.403 45.3574C154.671 45.0894 154.805 44.749 154.805 44.3359C154.805 43.8818 154.645 43.5396 154.323 43.3096C154.093 43.1519 153.72 42.9971 153.207 42.8457C152.79 42.7163 152.499 42.6123 152.332 42.5337C152.167 42.4517 152.015 42.3428 151.873 42.207C151.712 42.0591 151.587 41.873 151.499 41.6489C151.411 41.4219 151.366 41.1841 151.366 40.9351C151.366 40.3735 151.552 39.9131 151.925 39.5537C152.3 39.1909 152.776 39.0098 153.353 39.0098C153.94 39.0098 154.417 39.188 154.786 39.5444C155.155 39.9004 155.346 40.3687 155.359 40.9492L154.611 40.9492C154.586 40.561 154.457 40.2505 154.223 40.0171C153.993 39.7837 153.697 39.6675 153.334 39.6675C152.975 39.6675 152.678 39.7856 152.445 40.022C152.212 40.2554 152.095 40.5532 152.095 40.916C152.095 41.0801 152.125 41.2358 152.185 41.3843C152.245 41.5322 152.327 41.6538 152.431 41.7485C152.529 41.8306 152.647 41.9014 152.786 41.9614C152.927 42.021 153.162 42.1001 153.49 42.1978C153.85 42.3052 154.123 42.3994 154.309 42.4814C154.498 42.5635 154.67 42.6597 154.824 42.77C155.048 42.9404 155.221 43.1597 155.344 43.4277C155.471 43.6958 155.534 43.9858 155.534 44.2979C155.534 44.9067 155.329 45.4126 154.919 45.8164C154.509 46.2197 153.993 46.4219 153.372 46.4219C152.729 46.4219 152.204 46.228 151.797 45.8398C151.39 45.4487 151.169 44.9316 151.135 44.2886Z" fill="#696969" fill-opacity="1.000000" fill-rule="nonzero"/>
	<path id="Vector" d="M143.269 46.2939C143.269 46.2939 143.884 45.3936 145.114 43.5928C145.114 43.5928 144.499 42.7271 143.269 40.9961C143.269 40.9961 143.54 40.9961 144.083 40.9961C144.083 40.9961 144.562 41.6772 145.521 43.0396C145.521 43.0396 145.995 42.3584 146.944 40.9961C146.944 40.9961 147.219 40.9961 147.767 40.9961C147.767 40.9961 147.149 41.8618 145.913 43.5928C145.913 43.5928 146.531 44.4932 147.767 46.2939C147.767 46.2939 147.493 46.2939 146.944 46.2939C146.944 46.2939 146.47 45.5859 145.521 44.1699C145.521 44.1699 145.041 44.8779 144.083 46.2939C144.083 46.2939 143.812 46.2939 143.269 46.2939Z" fill="#696969" fill-opacity="1.000000" fill-rule="nonzero"/>
	<path id="Vector" d="M142.394 40.9966C142.394 40.9966 142.394 42.7622 142.394 46.2939C142.394 46.2939 142.155 46.2939 141.675 46.2939C141.675 46.2939 141.675 45.9834 141.675 45.3623C141.395 45.7407 141.097 46.0117 140.781 46.1758C140.469 46.3398 140.089 46.4219 139.641 46.4219C139.102 46.4219 138.615 46.3032 138.18 46.0669C137.748 45.8271 137.409 45.4976 137.163 45.0786C136.917 44.6558 136.794 44.1826 136.794 43.6592C136.794 43.1357 136.915 42.6611 137.158 42.2358C137.401 41.8101 137.735 41.4756 138.161 41.2329C138.587 40.9902 139.061 40.8687 139.585 40.8687C140.048 40.8687 140.446 40.9536 140.777 41.124C141.111 41.291 141.41 41.561 141.675 41.9331L141.675 40.9966L142.394 40.9966ZM139.575 41.5264C139.008 41.5264 138.523 41.731 138.123 42.1411C137.723 42.5508 137.522 43.0479 137.522 43.6309C137.522 44.2271 137.727 44.7314 138.137 45.1445C138.547 45.5547 139.045 45.7593 139.632 45.7593C140.209 45.7593 140.693 45.5562 141.084 45.1494C141.478 44.7393 141.675 44.2334 141.675 43.6309C141.675 43.0288 141.475 42.5273 141.075 42.127C140.674 41.7266 140.174 41.5264 139.575 41.5264Z" fill="#696969" fill-opacity="1.000000" fill-rule="nonzero"/>
	<path id="Vector" d="M134.235 46.2939C134.235 46.2939 134.235 44.124 134.235 39.7852C134.235 39.7852 133.689 39.7852 132.598 39.7852C132.598 39.7852 132.598 39.5693 132.598 39.1372C132.598 39.1372 133.929 39.1372 136.591 39.1372C136.591 39.1372 136.591 39.353 136.591 39.7852C136.591 39.7852 136.045 39.7852 134.954 39.7852C134.954 39.7852 134.954 41.9546 134.954 46.2939C134.954 46.2939 134.714 46.2939 134.235 46.2939Z" fill="#696969" fill-opacity="1.000000" fill-rule="nonzero"/>
	<path id="Vector" d="M127.959 41.6348C127.959 41.6348 128.224 41.6348 128.753 41.6348C128.753 41.6348 128.313 42.4771 127.434 44.1606C127.434 44.1606 128.038 44.749 129.245 45.9253C129.245 45.9253 129.081 46.0908 128.753 46.4219C128.753 46.4219 128.201 45.8857 127.098 44.8135C126.817 45.3779 126.505 45.7881 126.161 46.0435C125.821 46.2954 125.412 46.4219 124.936 46.4219C124.293 46.4219 123.755 46.2134 123.323 45.7974C122.894 45.3779 122.68 44.856 122.68 44.2319C122.68 43.5693 122.951 43.0273 123.493 42.6045C123.702 42.4438 123.979 42.2749 124.326 42.0986C124.026 41.7832 123.818 41.5181 123.702 41.3037C123.588 41.0864 123.531 40.8516 123.531 40.5991C123.531 40.1543 123.694 39.7793 124.019 39.4731C124.346 39.1641 124.749 39.0098 125.225 39.0098C125.72 39.0098 126.131 39.166 126.459 39.478C126.787 39.7871 126.951 40.1763 126.951 40.6465C126.951 41.1729 126.726 41.5923 126.275 41.9048C126.187 41.9771 125.947 42.1128 125.556 42.3115L126.913 43.6499L127.959 41.6348ZM126.563 44.2979L124.837 42.6143C124.304 42.8726 123.929 43.1294 123.711 43.3853C123.493 43.6372 123.385 43.9448 123.385 44.3076C123.385 44.7144 123.53 45.0596 123.82 45.3433C124.113 45.627 124.469 45.769 124.889 45.769C125.233 45.769 125.532 45.6572 125.788 45.4331C126.043 45.2095 126.302 44.8311 126.563 44.2979ZM125.031 41.8003C125.457 41.6333 125.77 41.4521 125.972 41.2563C126.174 41.061 126.275 40.8389 126.275 40.5894C126.275 40.3218 126.177 40.0991 125.981 39.9229C125.786 39.7461 125.54 39.6577 125.244 39.6577C124.963 39.6577 124.727 39.7476 124.534 39.9272C124.345 40.104 124.25 40.3218 124.25 40.5801C124.25 40.7632 124.309 40.9473 124.425 41.1338C124.545 41.3198 124.747 41.542 125.031 41.8003Z" fill="#696969" fill-opacity="1.000000" fill-rule="nonzero"/>
	<path id="Vector" d="M118.442 40.9966C118.442 40.9966 118.442 42.4453 118.442 45.3433C118.442 45.8638 118.404 46.2812 118.329 46.5967C118.256 46.9121 118.13 47.1895 117.95 47.4292C117.723 47.7319 117.424 47.9653 117.052 48.1294C116.679 48.2935 116.262 48.375 115.798 48.375C115.13 48.375 114.567 48.2114 114.109 47.8833C113.656 47.5552 113.331 47.0806 113.135 46.4595L113.83 46.4595C113.947 46.6675 114.042 46.8237 114.114 46.9277C114.19 47.0317 114.277 47.1279 114.374 47.2163C114.746 47.5508 115.215 47.7178 115.779 47.7178C116.192 47.7178 116.55 47.6343 116.853 47.4668C117.156 47.2998 117.376 47.0635 117.515 46.7573C117.657 46.458 117.728 46.064 117.728 45.5752L117.728 45.2202C117.52 45.627 117.25 45.9297 116.919 46.1284C116.588 46.3237 116.183 46.4219 115.704 46.4219C115.319 46.4219 114.955 46.3506 114.611 46.209C114.27 46.0669 113.977 45.8745 113.731 45.6318C113.488 45.3857 113.296 45.0928 113.154 44.752C113.012 44.4116 112.941 44.0503 112.941 43.6689C112.941 43.1392 113.058 42.6611 113.291 42.2358C113.524 41.8066 113.846 41.4727 114.256 41.2329C114.669 40.9902 115.131 40.8687 115.642 40.8687C116.093 40.8687 116.487 40.9536 116.824 41.124C117.162 41.2944 117.463 41.564 117.728 41.9331L117.728 40.9966L118.442 40.9966ZM115.633 41.5264C115.074 41.5264 114.608 41.7266 114.232 42.127C113.857 42.5239 113.67 43.019 113.67 43.6123C113.67 44.2271 113.862 44.7393 114.247 45.1494C114.635 45.5562 115.12 45.7593 115.704 45.7593C116.281 45.7593 116.761 45.5527 117.146 45.1396C117.534 44.7236 117.728 44.208 117.728 43.5933C117.728 42.9971 117.529 42.5039 117.132 42.1128C116.735 41.7217 116.235 41.5264 115.633 41.5264Z" fill="#696969" fill-opacity="1.000000" fill-rule="nonzero"/>
	<path id="Vector" d="M107.038 46.2939C107.038 46.2939 107.038 44.5283 107.038 40.9966C107.038 40.9966 107.278 40.9966 107.757 40.9966C107.757 40.9966 107.757 41.2251 107.757 41.6821C108.192 41.1396 108.76 40.8687 109.46 40.8687C109.835 40.8687 110.177 40.9395 110.487 41.0815C110.796 41.2202 111.054 41.4238 111.262 41.6919C111.433 41.9189 111.552 42.168 111.622 42.439C111.691 42.7104 111.726 43.0684 111.726 43.5127L111.726 46.2939L111.011 46.2939C111.011 46.2939 111.011 45.3667 111.011 43.5127C111.011 43.1562 110.982 42.8696 110.922 42.6519C110.865 42.4312 110.769 42.2373 110.633 42.0703C110.333 41.7075 109.914 41.5264 109.375 41.5264C109.085 41.5264 108.818 41.5859 108.576 41.7061C108.336 41.8257 108.147 41.9927 108.008 42.207C107.917 42.3525 107.852 42.5132 107.814 42.6899C107.776 42.8633 107.757 43.0933 107.757 43.3804L107.757 46.2939L107.038 46.2939Z" fill="#696969" fill-opacity="1.000000" fill-rule="nonzero"/>
	<path id="Vector" d="M104.905 46.2939C104.905 46.2939 104.905 44.5278 104.905 40.9961C104.905 40.9961 105.145 40.9961 105.624 40.9961C105.624 40.9961 105.624 42.7622 105.624 46.2939C105.624 46.2939 105.385 46.2939 104.905 46.2939ZM104.905 40.3574C104.905 40.3574 104.905 39.9507 104.905 39.1372C104.905 39.1372 105.145 39.1372 105.624 39.1372C105.624 39.1372 105.624 39.5439 105.624 40.3574C105.624 40.3574 105.385 40.3574 104.905 40.3574Z" fill="#696969" fill-opacity="1.000000" fill-rule="nonzero"/>
	<path id="Vector" d="M102.077 46.2939C102.077 46.2939 102.077 44.7437 102.077 41.644C102.077 41.644 101.697 41.644 100.937 41.644C100.937 41.644 100.937 41.4282 100.937 40.9961C100.937 40.9961 101.317 40.9961 102.077 40.9961C102.077 40.9961 102.077 40.3765 102.077 39.1372C102.077 39.1372 102.317 39.1372 102.796 39.1372C102.796 39.1372 102.796 39.7568 102.796 40.9961C102.796 40.9961 103.193 40.9961 103.988 40.9961C103.988 40.9961 103.988 41.2119 103.988 41.644C103.988 41.644 103.591 41.644 102.796 41.644C102.796 41.644 102.796 43.1938 102.796 46.2939C102.796 46.2939 102.556 46.2939 102.077 46.2939Z" fill="#696969" fill-opacity="1.000000" fill-rule="nonzero"/>
	<path id="Vector" d="M95.3228 46.2939C95.3228 46.2939 95.3228 44.5283 95.3228 40.9966C95.3228 40.9966 95.5625 40.9966 96.0417 40.9966C96.0417 40.9966 96.0417 41.2251 96.0417 41.6821C96.4768 41.1396 97.0444 40.8687 97.7446 40.8687C98.1199 40.8687 98.4619 40.9395 98.771 41.0815C99.0801 41.2202 99.3386 41.4238 99.5466 41.6919C99.717 41.9189 99.8367 42.168 99.9062 42.439C99.9756 42.7104 100.01 43.0684 100.01 43.5127L100.01 46.2939L99.2959 46.2939C99.2959 46.2939 99.2959 45.3667 99.2959 43.5127C99.2959 43.1562 99.2661 42.8696 99.2061 42.6519C99.1494 42.4312 99.0532 42.2373 98.9175 42.0703C98.6179 41.7075 98.1987 41.5264 97.6594 41.5264C97.3694 41.5264 97.1028 41.5859 96.8601 41.7061C96.6204 41.8257 96.4312 41.9927 96.2925 42.207C96.2009 42.3525 96.1362 42.5132 96.0984 42.6899C96.0605 42.8633 96.0417 43.0933 96.0417 43.3804L96.0417 46.2939L95.3228 46.2939Z" fill="#696969" fill-opacity="1.000000" fill-rule="nonzero"/>
	<path id="Vector" d="M93.9038 40.9961C93.9038 40.9961 93.9038 42.7622 93.9038 46.2939C93.9038 46.2939 93.6658 46.2939 93.1897 46.2939C93.1897 46.2939 93.1897 46.0195 93.1897 45.4707C93.01 45.7988 92.783 46.04 92.5085 46.1943C92.2341 46.3457 91.8921 46.4214 91.4822 46.4214C91.0723 46.4214 90.708 46.3457 90.3894 46.1943C90.0742 46.04 89.8186 45.8174 89.6233 45.5273C89.3647 45.1553 89.2354 44.5972 89.2354 43.853L89.2354 40.9961C89.2354 40.9961 89.4751 40.9961 89.9543 40.9961C89.9543 40.9961 89.9543 41.9482 89.9543 43.853C89.9543 44.4331 90.0442 44.8589 90.2239 45.1304C90.3501 45.3286 90.5266 45.4834 90.7537 45.5938C90.9839 45.7041 91.2424 45.7593 91.5293 45.7593C91.8101 45.7593 92.0654 45.7026 92.2957 45.5889C92.5291 45.4756 92.7197 45.313 92.8679 45.1016C93.0825 44.7832 93.1897 44.3213 93.1897 43.7158L93.1897 40.9961L93.9038 40.9961Z" fill="#696969" fill-opacity="1.000000" fill-rule="nonzero"/>
	<path id="Vector" d="M85.3 40.8687C85.8142 40.8687 86.2776 40.9902 86.6907 41.2329C87.1069 41.4727 87.4319 41.8052 87.665 42.231C87.9016 42.6567 88.0198 43.1328 88.0198 43.6592C88.0198 44.4541 87.7644 45.1133 87.2537 45.6367C86.7427 46.1602 86.0979 46.4219 85.3191 46.4219C84.7861 46.4219 84.3037 46.3018 83.8716 46.062C83.4397 45.8228 83.1006 45.4917 82.8547 45.0688C82.6118 44.6465 82.4905 44.1733 82.4905 43.6499C82.4905 42.8457 82.7554 42.1821 83.2852 41.6587C83.8149 41.1318 84.4866 40.8687 85.3 40.8687ZM85.2434 41.5264C84.6631 41.5264 84.1807 41.7295 83.7959 42.1362C83.4114 42.54 83.219 43.0479 83.219 43.6592C83.219 44.2646 83.416 44.7661 83.8101 45.1636C84.2043 45.561 84.7009 45.7593 85.3 45.7593C85.8835 45.7593 86.3613 45.564 86.7334 45.1729C87.1086 44.7788 87.2961 44.2773 87.2961 43.6689C87.2961 43.0444 87.1038 42.5322 86.7192 42.1313C86.3345 41.728 85.8425 41.5264 85.2434 41.5264Z" fill="#696969" fill-opacity="1.000000" fill-rule="nonzero"/>
	<path id="Vector" d="M80.6931 44.7329C80.6931 44.7329 80.9644 44.7329 81.5068 44.7329C81.3555 45.02 81.2166 45.2456 81.0906 45.4097C80.9644 45.5703 80.813 45.7168 80.6365 45.8496C80.1509 46.231 79.5754 46.4219 78.9099 46.4219C78.374 46.4219 77.8853 46.3003 77.4436 46.0576C77.0022 45.8115 76.6553 45.4756 76.4031 45.0498C76.1509 44.6211 76.0247 44.1479 76.0247 43.6309C76.0247 43.1235 76.1492 42.6582 76.3984 42.2358C76.6506 41.813 76.9944 41.4805 77.4294 41.2378C77.8647 40.9917 78.3423 40.8687 78.8628 40.8687C79.4619 40.8687 79.9963 41.0249 80.4661 41.3369C80.9392 41.6489 81.283 42.0718 81.4973 42.6045L80.6931 42.6045C80.4883 42.2578 80.228 41.9912 79.9128 41.8052C79.5974 41.6191 79.2441 41.5264 78.8533 41.5264C78.2634 41.5264 77.7654 41.731 77.3586 42.1411C76.9548 42.5508 76.7532 43.0537 76.7532 43.6499C76.7532 44.2397 76.958 44.7393 77.3679 45.1494C77.781 45.5562 78.2856 45.7593 78.8816 45.7593C79.26 45.7593 79.5864 45.6807 79.8606 45.5229C80.1382 45.3652 80.4158 45.1021 80.6931 44.7329Z" fill="#696969" fill-opacity="1.000000" fill-rule="nonzero"/>
	<path id="Vector" d="M74.2273 44.7329C74.2273 44.7329 74.4985 44.7329 75.041 44.7329C74.8896 45.02 74.7507 45.2456 74.6248 45.4097C74.4985 45.5703 74.3472 45.7168 74.1707 45.8496C73.6851 46.231 73.1096 46.4219 72.4441 46.4219C71.9082 46.4219 71.4194 46.3003 70.9778 46.0576C70.5364 45.8115 70.1895 45.4756 69.9373 45.0498C69.6851 44.6211 69.5588 44.1479 69.5588 43.6309C69.5588 43.1235 69.6833 42.6582 69.9326 42.2358C70.1848 41.813 70.5286 41.4805 70.9636 41.2378C71.3989 40.9917 71.8765 40.8687 72.397 40.8687C72.9961 40.8687 73.5305 41.0249 74.0002 41.3369C74.4734 41.6489 74.8171 42.0718 75.0315 42.6045L74.2273 42.6045C74.0225 42.2578 73.7622 41.9912 73.447 41.8052C73.1316 41.6191 72.7783 41.5264 72.3875 41.5264C71.7976 41.5264 71.2996 41.731 70.8928 42.1411C70.489 42.5508 70.2874 43.0537 70.2874 43.6499C70.2874 44.2397 70.4922 44.7393 70.9021 45.1494C71.3152 45.5562 71.8198 45.7593 72.4158 45.7593C72.7942 45.7593 73.1206 45.6807 73.3948 45.5229C73.6724 45.3652 73.95 45.1021 74.2273 44.7329Z" fill="#696969" fill-opacity="1.000000" fill-rule="nonzero"/>
	<path id="Vector" d="M62.114 46.2939C62.114 46.2939 63.1372 43.9082 65.1838 39.1372C65.1838 39.1372 65.4519 39.1372 65.9878 39.1372C65.9878 39.1372 67.0144 41.5229 69.0671 46.2939C69.0671 46.2939 68.8054 46.2939 68.282 46.2939C68.282 46.2939 67.9368 45.4897 67.2461 43.8813C67.2461 43.8813 66.1345 43.8813 63.9114 43.8813C63.9114 43.8813 63.563 44.6855 62.866 46.2939C62.866 46.2939 62.6155 46.2939 62.114 46.2939ZM64.1858 43.2334C64.1858 43.2334 65.1128 43.2334 66.967 43.2334C66.967 43.2334 66.5083 42.1392 65.5906 39.9507C65.5906 39.9507 65.1223 41.0449 64.1858 43.2334Z" fill="#696969" fill-opacity="1.000000" fill-rule="nonzero"/>
	<path id="Rectangle 3" d="M15.387 50.7979C13.6057 52.6304 10.6763 52.6719 8.84399 50.8906C7.01147 49.1094 6.96973 46.1802 8.75098 44.3477L36.7009 15.5918C38.4822 13.7593 41.4116 13.7178 43.2439 15.499C45.0764 17.2803 45.1182 20.2095 43.3369 22.042L15.387 50.7979Z" fill="#FFB774" fill-opacity="1.000000" fill-rule="nonzero"/>
	<path id="Rectangle 4" d="M9.86108 38.5239C8.07983 40.3564 5.15039 40.3979 3.31812 38.6167C1.4856 36.8354 1.44385 33.9062 3.2251 32.0737L31.175 3.31787C32.9563 1.48535 35.8857 1.44385 37.718 3.2251C39.5505 5.00635 39.5923 7.93555 37.811 9.76807L9.86108 38.5239Z" fill="#FFFFFF" fill-opacity="1.000000" fill-rule="nonzero"/>
	<path id="Vector 9" d="M41.3352 28.3794L41.3352 39.4844C41.3352 41.438 40.1013 45.3452 35.1658 45.3452C30.2302 45.3452 26.1172 45.3452 24.6777 45.3452L41.3352 28.3794Z" fill="#FFB774" fill-opacity="1.000000" fill-rule="evenodd"/>
	<path id="Vector 10" d="M4.93555 25.603L4.93555 14.498C4.93555 12.5444 6.16943 8.63721 11.105 8.63721C16.0405 8.63721 20.1536 8.63721 21.593 8.63721L4.93555 25.603Z" fill="#FFFFFF" fill-opacity="1.000000" fill-rule="evenodd"/>
</svg>
