<svg width="27.000000" height="18.000000" viewBox="0 0 27 18" fill="none" xmlns="http://www.w3.org/2000/svg" xmlns:xlink="http://www.w3.org/1999/xlink">
	<desc>
			Created with Pixso.
	</desc>
	<defs/>
	<path id="Icon" d="M27 1.5C27 0.67157 26.3286 0 25.5 0L1.5 0C0.671387 0 0 0.67157 0 1.5C0 2.32843 0.671387 3 1.5 3L25.5 3C26.3286 3 27 2.32843 27 1.5ZM27 9C27 8.17157 26.3286 7.5 25.5 7.5L10.5 7.5C9.67139 7.5 9 8.17157 9 9C9 9.82843 9.67139 10.5 10.5 10.5L25.5 10.5C26.3286 10.5 27 9.82843 27 9ZM25.5 15C26.3286 15 27 15.6716 27 16.5C27 17.3284 26.3286 18 25.5 18L19.5 18C18.6714 18 18 17.3284 18 16.5C18 15.6716 18.6714 15 19.5 15L25.5 15Z" fill="#000000" fill-opacity="1.000000" fill-rule="evenodd"/>
</svg>
