<svg width="20.000000" height="20.000000" viewBox="0 0 20 20" fill="none" xmlns="http://www.w3.org/2000/svg" xmlns:xlink="http://www.w3.org/1999/xlink">
	<desc>
			Created with Pixso.
	</desc>
	<defs/>
	<path id="Icon" d="M4.30371 1.99792C4.30371 1.99791 4.30396 1.99817 4.30444 1.99878L4.30371 1.99792ZM4.34692 2.06621L6.354 5.26004C6.11157 5.48999 5.84692 5.71777 5.56226 5.96291C5.31738 6.1736 5.05786 6.39711 4.78442 6.64586C4.10693 7.26237 3.97607 8.25394 4.41455 9.0256C6.73315 13.1062 9.89575 14.963 11.3108 15.6296C12.1631 16.0312 13.0894 15.7143 13.605 15.058L14.9941 13.2899C14.9949 13.2888 14.9949 13.2891 14.9944 13.2894C14.9941 13.2895 14.9951 13.2889 14.9973 13.2885C14.9995 13.2882 15.0015 13.2882 15.0032 13.2885C15.0044 13.2888 15.0063 13.2892 15.009 13.291C15.8186 13.7906 16.9478 14.4694 17.9849 15.0442C17.7986 16.1689 17.3708 16.824 16.8989 17.2246C16.4036 17.6451 15.7627 17.8665 15.0481 17.9464C13.6213 18.106 12.1729 17.6731 11.8516 17.5677C11.4971 17.3864 9.55347 16.3634 7.47705 14.7056C5.33618 12.9961 3.18921 10.7178 2.36816 8.10492C1.76807 6.1953 1.99438 4.8515 2.46582 3.92459C2.92188 3.02852 3.65967 2.42033 4.34692 2.06621ZM3.62061 0.175964C4.56665 -0.27269 5.54468 0.195099 6.00049 0.920029L8.10034 4.26123C8.5249 4.93671 8.55396 5.92415 7.86377 6.60059C7.56787 6.89047 7.15649 7.2468 6.77344 7.57835C6.56323 7.76036 6.36182 7.93491 6.19263 8.08691C8.18823 11.5617 10.856 13.1693 12.0693 13.7572L13.4202 12.0378C14.0579 11.226 15.1934 11.0363 16.0581 11.5699C16.8579 12.0636 17.9639 12.7281 18.9661 13.2829C19.6343 13.653 20.1125 14.4244 19.9771 15.2954C19.7336 16.8596 19.0981 17.999 18.1926 18.7678C17.3022 19.5237 16.2415 19.8444 15.2698 19.953C13.3586 20.1668 11.5305 19.588 11.1968 19.4763C11.1121 19.448 11.042 19.4181 10.9666 19.3798C10.6082 19.1977 8.49634 18.0965 6.23022 16.2872C3.98755 14.4967 1.4585 11.9066 0.455078 8.71365C-0.281982 6.36823 -0.0639648 4.46651 0.680176 3.00439C1.41113 1.5679 2.59473 0.662567 3.62061 0.175964Z" fill="#094235" fill-opacity="1.000000" fill-rule="evenodd"/>
</svg>
