<svg width="190.000000" height="54.115692" viewBox="0 0 190 54.1157" fill="none" xmlns="http://www.w3.org/2000/svg" xmlns:xlink="http://www.w3.org/1999/xlink">
	<desc>
			Created with Pixso.
	</desc>
	<defs/>
	<path id="Vector" d="M185.936 23.8752C185.936 25.918 185.144 27.5922 183.561 28.8977C182.074 30.1065 180.285 30.7108 178.194 30.7108C177.492 30.7108 176.822 30.6565 176.181 30.5477C175.818 30.4872 175.033 30.2515 173.824 29.8405C172.76 29.49 172.023 29.3147 171.612 29.3147C171.007 29.3147 170.639 29.7801 170.506 30.7108L169.835 30.7108L169.835 22.2796L170.506 22.2796C170.784 23.8631 171.14 25.0598 171.575 25.8697C172.144 26.9455 173.026 27.7977 174.223 28.4263C175.311 29.0065 176.507 29.2966 177.813 29.2966C179.118 29.2966 180.236 28.9581 181.167 28.2812C182.195 27.5438 182.708 26.5405 182.708 25.2713C182.708 23.9417 182.025 22.757 180.659 21.7175C179.825 21.0768 178.441 20.2367 176.507 19.1972C174.585 18.1455 173.189 17.2752 172.319 16.5862C170.506 15.1598 169.599 13.4554 169.599 11.473C169.599 9.56316 170.33 7.99174 171.793 6.75879C173.183 5.58627 174.851 5 176.797 5C178.115 5 179.499 5.32034 180.95 5.961C181.639 6.26318 182.116 6.41428 182.382 6.41428C183.01 6.41428 183.428 5.94284 183.633 5L184.304 5L184.304 13.5038L183.633 13.5038C183.222 10.4456 182.031 8.37856 180.061 7.30273C179.021 6.73462 177.946 6.45053 176.834 6.45053C175.709 6.45053 174.718 6.789 173.86 7.46593C172.941 8.20328 172.482 9.12195 172.482 10.222C172.482 10.9593 172.742 11.6423 173.262 12.2708C174.023 13.1774 175.806 14.3862 178.611 15.8972C180.557 16.9368 181.802 17.6439 182.346 18.0186C183.736 18.9615 184.709 19.9768 185.265 21.0647C185.712 21.9592 185.936 22.8961 185.936 23.8752Z" fill="#094235" fill-opacity="1.000000" fill-rule="nonzero"/>
	<path id="Vector" d="M165.828 17.7104C165.828 21.2884 164.716 24.3224 162.491 26.8125C160.183 29.4114 157.263 30.7108 153.734 30.7108C150.144 30.7108 147.225 29.4356 144.976 26.885C142.825 24.4433 141.749 21.4032 141.749 17.7648C141.749 13.8604 143.078 10.6752 145.738 8.20932C148.047 6.06976 150.809 5 154.024 5C157.421 5 160.261 6.28131 162.546 8.84393C164.734 11.3099 165.828 14.2653 165.828 17.7104ZM161.676 18.1999C161.676 14.8999 161.162 12.2527 160.134 10.2582C158.793 7.63515 156.641 6.32361 153.679 6.32361C151.479 6.32361 149.715 7.13954 148.385 8.77141C146.729 10.8022 145.901 13.7758 145.901 17.6922C145.901 21.7175 146.759 24.8059 148.476 26.9576C149.781 28.6015 151.522 29.4235 153.698 29.4235C156.562 29.4235 158.678 28.2026 160.044 25.7609C161.132 23.8268 161.676 21.3065 161.676 18.1999Z" fill="#094235" fill-opacity="1.000000" fill-rule="nonzero"/>
	<path id="Vector" d="M140.77 30.1488L134.206 30.1488L125.884 18.6532C125.267 18.6774 124.766 18.6895 124.379 18.6895C124.052 18.6895 123.696 18.6774 123.309 18.6532L123.309 25.7972C123.309 27.3323 123.478 28.2933 123.817 28.6801C124.288 29.212 124.977 29.4779 125.884 29.4779L126.845 29.4779L126.845 30.1488L116.31 30.1488L116.31 29.4779L117.235 29.4779C118.274 29.4779 119.018 29.1395 119.465 28.4625C119.719 28.0757 119.846 27.1873 119.846 25.7972L119.846 9.91373C119.846 8.36649 119.677 7.4055 119.338 7.03078C118.867 6.4989 118.166 6.23297 117.235 6.23297L116.31 6.23297L116.31 5.5621L125.267 5.5621C127.455 5.5621 129.063 5.6709 130.09 5.88849C131.831 6.26318 133.203 7.04286 134.206 8.22748C135.064 9.25494 135.493 10.4758 135.493 11.8901C135.493 15.1901 133.475 17.2873 129.438 18.1818L134.514 25.2351C135.542 26.6735 136.412 27.6526 137.125 28.1724C138.068 28.8856 139.283 29.3208 140.77 29.4779L140.77 30.1488ZM131.414 12.1258C131.414 10.5665 130.93 9.31538 129.963 8.37253C128.996 7.41759 127.727 6.94012 126.156 6.94012C125.455 6.94012 124.506 7.05495 123.309 7.28462L123.309 17.5109L123.817 17.5109C124.046 17.523 124.216 17.5291 124.324 17.5291C126.295 17.5291 127.908 17.1302 129.166 16.3324C130.664 15.3895 131.414 13.9873 131.414 12.1258Z" fill="#094235" fill-opacity="1.000000" fill-rule="nonzero"/>
	<path id="Vector" d="M115.131 6.23297L114.261 6.23297C113.222 6.23297 112.484 6.54727 112.049 7.17583C111.783 7.56264 111.65 8.44505 111.65 9.82307L111.65 30.5477L110.997 30.5477L94.7876 10.7478L94.7876 25.8878C94.7876 27.4109 94.9507 28.3537 95.2771 28.7164C95.7244 29.2241 96.4316 29.4779 97.3987 29.4779L98.2688 29.4779L98.2688 30.1488L89.7107 30.1488L89.7107 29.4779L90.563 29.4779C91.6145 29.4779 92.3579 29.1636 92.7932 28.5351C93.0591 28.1483 93.1919 27.2658 93.1919 25.8878L93.1919 8.78957C92.5513 8.04012 92.074 7.54451 91.7595 7.30275C91.3123 6.94012 90.708 6.63791 89.9465 6.39618C89.6079 6.28738 89.0762 6.23297 88.3508 6.23297L88.3508 5.5621L95.0234 5.5621L110.054 24.0021L110.054 9.82307C110.054 8.31209 109.885 7.36923 109.547 6.99451C109.1 6.48682 108.393 6.23297 107.426 6.23297L106.573 6.23297L106.573 5.5621L115.131 5.5621L115.131 6.23297Z" fill="#094235" fill-opacity="1.000000" fill-rule="nonzero"/>
	<path id="Vector" d="M88.4053 30.1488L78.7046 30.1488L78.7046 29.4779C80.3728 29.3933 81.2068 28.8916 81.2068 27.973C81.2068 27.4411 80.9651 26.601 80.4817 25.4526L78.9949 21.9169L69.4756 21.9169L67.8074 25.7971C67.3965 26.7521 67.1909 27.4653 67.1909 27.9367C67.1909 28.8312 68.1399 29.3449 70.0376 29.4779L70.0376 30.1488L62.2954 30.1488L62.2954 29.4779C63.323 29.2966 63.9878 29.0609 64.2898 28.7708C64.8943 28.2026 65.5771 27.0241 66.3389 25.2351L74.9875 5L75.6223 5L84.1804 25.4526C84.7607 26.8307 85.2563 27.7554 85.6672 28.2268C86.3201 28.9883 87.2327 29.4054 88.4053 29.4779L88.4053 30.1488ZM78.4871 20.5752L74.3169 10.639L70.0376 20.5752L78.4871 20.5752Z" fill="#094235" fill-opacity="1.000000" fill-rule="nonzero"/>
	<path id="Vector" d="M186.679 44.733C186.679 44.733 186.914 44.733 187.384 44.733C187.403 45.061 187.499 45.3148 187.673 45.4946C187.846 45.6711 188.083 45.7594 188.382 45.7594C188.644 45.7594 188.858 45.6743 189.026 45.504C189.193 45.3306 189.276 45.1098 189.276 44.8418C189.276 44.599 189.208 44.4114 189.073 44.2789C188.94 44.1465 188.666 43.9951 188.25 43.8249C187.868 43.664 187.636 43.5631 187.554 43.5221C187.476 43.4811 187.381 43.4102 187.271 43.3093C187.006 43.0633 186.873 42.748 186.873 42.3633C186.873 41.9313 187.014 41.5749 187.294 41.2943C187.578 41.0105 187.938 40.8686 188.373 40.8686C188.799 40.8686 189.15 41.001 189.427 41.2659C189.708 41.5308 189.855 41.8761 189.867 42.3018L189.139 42.3018C189.12 42.0495 189.043 41.8572 188.907 41.7247C188.775 41.5923 188.594 41.5261 188.363 41.5261C188.152 41.5261 187.971 41.6002 187.819 41.7484C187.671 41.8966 187.597 42.0779 187.597 42.2923C187.597 42.595 187.763 42.8316 188.094 43.0018C188.475 43.1627 188.805 43.3014 189.082 43.4181C189.694 43.6735 190 44.1244 190 44.7709C190 45.2565 189.85 45.6538 189.551 45.9628C189.251 46.2687 188.862 46.4216 188.382 46.4216C187.868 46.4216 187.457 46.2687 187.148 45.9628C186.842 45.657 186.686 45.247 186.679 44.733Z" fill="#696969" fill-opacity="1.000000" fill-rule="nonzero"/>
	<path id="Vector" d="M185.928 43.8816C185.928 43.8816 184.331 43.8816 181.136 43.8816C181.165 44.4051 181.379 44.8497 181.78 45.2155C182.18 45.5781 182.653 45.7594 183.198 45.7594C183.602 45.7594 183.974 45.6491 184.315 45.4283C184.655 45.2045 184.9 44.9112 185.048 44.5486L185.795 44.5486C185.6 45.1067 185.266 45.5592 184.792 45.9061C184.32 46.2498 183.794 46.4216 183.218 46.4216C182.833 46.4216 182.467 46.3491 182.12 46.2041C181.773 46.059 181.475 45.8619 181.226 45.6128C180.977 45.3637 180.78 45.0657 180.635 44.7188C180.49 44.372 180.417 44.0062 180.417 43.6215C180.417 43.1169 180.539 42.6534 180.781 42.2308C181.024 41.8083 181.355 41.4756 181.775 41.2328C182.194 40.99 182.656 40.8686 183.161 40.8686C183.684 40.8686 184.165 40.9979 184.603 41.2565C185.045 41.515 185.381 41.8666 185.611 42.3112C185.728 42.5351 185.81 42.7653 185.857 43.0018C185.904 43.2352 185.928 43.5284 185.928 43.8816ZM181.155 43.2336L185.213 43.2336C185.094 42.707 184.849 42.2908 184.48 41.9849C184.115 41.679 183.675 41.5261 183.161 41.5261C182.659 41.5261 182.224 41.6837 181.855 41.9991C181.486 42.3112 181.253 42.7228 181.155 43.2336Z" fill="#696969" fill-opacity="1.000000" fill-rule="nonzero"/>
	<path id="Vector" d="M178.62 44.733C178.62 44.733 178.891 44.733 179.434 44.733C179.282 45.02 179.143 45.2454 179.017 45.4094C178.891 45.5702 178.74 45.7169 178.563 45.8493C178.078 46.2309 177.502 46.4216 176.837 46.4216C176.301 46.4216 175.812 46.3002 175.37 46.0574C174.929 45.8115 174.582 45.4756 174.33 45.0499C174.078 44.6211 173.951 44.1481 173.951 43.6309C173.951 43.1232 174.076 42.6581 174.325 42.2356C174.577 41.813 174.921 41.4803 175.356 41.2375C175.792 40.9916 176.269 40.8686 176.79 40.8686C177.389 40.8686 177.923 41.0247 178.393 41.3369C178.866 41.649 179.21 42.0716 179.424 42.6045L178.62 42.6045C178.415 42.2576 178.155 41.9912 177.84 41.8051C177.524 41.6191 177.171 41.5261 176.78 41.5261C176.19 41.5261 175.692 41.731 175.285 42.141C174.882 42.5509 174.68 43.0539 174.68 43.6498C174.68 44.2395 174.885 44.7393 175.295 45.1493C175.708 45.556 176.212 45.7594 176.808 45.7594C177.187 45.7594 177.513 45.6806 177.787 45.5229C178.065 45.3653 178.343 45.102 178.62 44.733Z" fill="#696969" fill-opacity="1.000000" fill-rule="nonzero"/>
	<path id="Vector" d="M172.022 46.2939C172.022 46.2939 172.022 44.5281 172.022 40.9963C172.022 40.9963 172.261 40.9963 172.741 40.9963C172.741 40.9963 172.741 42.7622 172.741 46.2939C172.741 46.2939 172.501 46.2939 172.022 46.2939ZM172.022 40.3578C172.022 40.3578 172.022 39.951 172.022 39.1374C172.022 39.1374 172.261 39.1374 172.741 39.1374C172.741 39.1374 172.741 39.5442 172.741 40.3578C172.741 40.3578 172.501 40.3578 172.022 40.3578Z" fill="#696969" fill-opacity="1.000000" fill-rule="nonzero"/>
	<path id="Vector" d="M168.157 46.294C168.157 46.294 167.415 44.5281 165.93 40.9963C165.93 40.9963 166.173 40.9963 166.658 40.9963C166.658 40.9963 167.278 42.4816 168.517 45.452C168.517 45.452 169.151 43.9668 170.418 40.9963C170.418 40.9963 170.66 40.9963 171.142 40.9963C171.142 40.9963 170.4 42.7622 168.914 46.294C168.914 46.294 168.662 46.294 168.157 46.294Z" fill="#696969" fill-opacity="1.000000" fill-rule="nonzero"/>
	<path id="Vector" d="M163.044 46.2939C163.044 46.2939 163.044 44.5281 163.044 40.9963C163.044 40.9963 163.284 40.9963 163.763 40.9963C163.763 40.9963 163.763 41.247 163.763 41.7484C163.902 41.4583 164.09 41.2438 164.326 41.1051C164.566 40.9663 164.878 40.8875 165.263 40.8686L165.263 41.5781C164.263 41.6727 163.763 42.2151 163.763 43.2052C163.763 43.2052 163.763 44.2348 163.763 46.2939C163.763 46.2939 163.524 46.2939 163.044 46.2939Z" fill="#696969" fill-opacity="1.000000" fill-rule="nonzero"/>
	<path id="Vector" d="M161.857 43.8816C161.857 43.8816 160.26 43.8816 157.066 43.8816C157.094 44.4051 157.309 44.8497 157.709 45.2155C158.11 45.5781 158.583 45.7594 159.128 45.7594C159.532 45.7594 159.904 45.6491 160.244 45.4283C160.585 45.2045 160.829 44.9112 160.978 44.5486L161.725 44.5486C161.53 45.1067 161.195 45.5592 160.722 45.9061C160.249 46.2498 159.724 46.4216 159.147 46.4216C158.762 46.4216 158.396 46.3491 158.05 46.2041C157.703 46.059 157.405 45.8619 157.156 45.6128C156.907 45.3637 156.709 45.0657 156.564 44.7188C156.419 44.372 156.347 44.0062 156.347 43.6215C156.347 43.1169 156.468 42.6534 156.711 42.2308C156.954 41.8083 157.285 41.4756 157.704 41.2328C158.124 40.99 158.586 40.8686 159.09 40.8686C159.614 40.8686 160.095 40.9979 160.533 41.2565C160.974 41.515 161.31 41.8666 161.541 42.3112C161.657 42.5351 161.739 42.7653 161.786 43.0018C161.834 43.2352 161.857 43.5284 161.857 43.8816ZM157.085 43.2336L161.143 43.2336C161.023 42.707 160.779 42.2908 160.41 41.9849C160.044 41.679 159.604 41.5261 159.09 41.5261C158.589 41.5261 158.154 41.6837 157.785 41.9991C157.416 42.3112 157.183 42.7228 157.085 43.2336Z" fill="#696969" fill-opacity="1.000000" fill-rule="nonzero"/>
	<path id="Vector" d="M151.135 44.2884C151.135 44.2884 151.39 44.2884 151.901 44.2884C151.923 44.5155 151.961 44.7031 152.015 44.8513C152.071 44.9963 152.153 45.1319 152.26 45.2581C152.39 45.4157 152.554 45.5387 152.752 45.627C152.954 45.7153 153.167 45.7595 153.391 45.7595C153.801 45.7595 154.138 45.6254 154.403 45.3574C154.671 45.0894 154.805 44.7488 154.805 44.3357C154.805 43.8816 154.645 43.5395 154.323 43.3093C154.093 43.1516 153.72 42.9971 153.207 42.8458C152.79 42.7165 152.499 42.6124 152.332 42.5336C152.167 42.4516 152.015 42.3428 151.873 42.2072C151.712 42.059 151.587 41.873 151.499 41.6491C151.411 41.422 151.366 41.1839 151.366 40.9348C151.366 40.3735 151.552 39.9131 151.925 39.5537C152.3 39.191 152.776 39.0097 153.353 39.0097C153.94 39.0097 154.417 39.1879 154.786 39.5442C155.155 39.9005 155.346 40.3688 155.359 40.949L154.611 40.949C154.586 40.5612 154.457 40.2505 154.223 40.0172C153.993 39.7839 153.697 39.6672 153.334 39.6672C152.975 39.6672 152.678 39.7854 152.445 40.0219C152.212 40.2553 152.095 40.5533 152.095 40.9159C152.095 41.0799 152.125 41.236 152.185 41.3842C152.245 41.5324 152.327 41.6538 152.431 41.7484C152.529 41.8304 152.647 41.9013 152.786 41.9612C152.927 42.0211 153.162 42.1 153.49 42.1977C153.85 42.305 154.123 42.3996 154.309 42.4816C154.498 42.5635 154.67 42.6597 154.824 42.7701C155.048 42.9404 155.221 43.1595 155.344 43.4276C155.471 43.6956 155.534 43.9857 155.534 44.2979C155.534 44.9065 155.329 45.4126 154.919 45.8162C154.509 46.2198 153.993 46.4217 153.372 46.4217C152.729 46.4217 152.204 46.2277 151.797 45.8399C151.39 45.4489 151.169 44.9317 151.135 44.2884Z" fill="#696969" fill-opacity="1.000000" fill-rule="nonzero"/>
	<path id="Vector" d="M143.269 46.294C143.269 46.294 143.884 45.3937 145.114 43.5931C145.114 43.5931 144.499 42.7275 143.269 40.9963C143.269 40.9963 143.54 40.9963 144.083 40.9963C144.083 40.9963 144.562 41.6774 145.521 43.0397C145.521 43.0397 145.995 42.3586 146.944 40.9963C146.944 40.9963 147.219 40.9963 147.767 40.9963C147.767 40.9963 147.149 41.8619 145.913 43.5931C145.913 43.5931 146.531 44.4934 147.767 46.294C147.767 46.294 147.493 46.294 146.944 46.294C146.944 46.294 146.47 45.586 145.521 44.1702C145.521 44.1702 145.041 44.8781 144.083 46.294C144.083 46.294 143.812 46.294 143.269 46.294Z" fill="#696969" fill-opacity="1.000000" fill-rule="nonzero"/>
	<path id="Vector" d="M142.394 40.9963C142.394 40.9963 142.394 42.7622 142.394 46.2939C142.394 46.2939 142.155 46.2939 141.675 46.2939C141.675 46.2939 141.675 45.9833 141.675 45.3621C141.395 45.7405 141.097 46.0117 140.781 46.1757C140.469 46.3397 140.089 46.4216 139.641 46.4216C139.102 46.4216 138.615 46.3034 138.18 46.0669C137.748 45.8272 137.409 45.4977 137.163 45.0783C136.917 44.6558 136.794 44.1828 136.794 43.6593C136.794 43.1358 136.915 42.6613 137.158 42.2356C137.401 41.8099 137.735 41.4756 138.161 41.2328C138.587 40.99 139.061 40.8686 139.585 40.8686C140.048 40.8686 140.446 40.9537 140.777 41.124C141.111 41.2911 141.41 41.5607 141.675 41.9328L141.675 40.9963L142.394 40.9963ZM139.575 41.5261C139.008 41.5261 138.523 41.731 138.123 42.141C137.723 42.5509 137.522 43.0476 137.522 43.6309C137.522 44.2269 137.727 44.7314 138.137 45.1445C138.547 45.5545 139.045 45.7594 139.632 45.7594C140.209 45.7594 140.693 45.556 141.084 45.1493C141.478 44.7393 141.675 44.2332 141.675 43.6309C141.675 43.0286 141.475 42.5273 141.075 42.1268C140.674 41.7263 140.174 41.5261 139.575 41.5261Z" fill="#696969" fill-opacity="1.000000" fill-rule="nonzero"/>
	<path id="Vector" d="M134.235 46.2939C134.235 46.2939 134.235 44.1245 134.235 39.7854C134.235 39.7854 133.689 39.7854 132.598 39.7854C132.598 39.7854 132.598 39.5694 132.598 39.1374C132.598 39.1374 133.929 39.1374 136.591 39.1374C136.591 39.1374 136.591 39.3534 136.591 39.7854C136.591 39.7854 136.045 39.7854 134.954 39.7854C134.954 39.7854 134.954 41.9549 134.954 46.2939C134.954 46.2939 134.714 46.2939 134.235 46.2939Z" fill="#696969" fill-opacity="1.000000" fill-rule="nonzero"/>
	<path id="Vector" d="M127.959 41.6349C127.959 41.6349 128.224 41.6349 128.753 41.6349C128.753 41.6349 128.313 42.4768 127.434 44.1607C127.434 44.1607 128.038 44.7488 129.245 45.925C129.245 45.925 129.081 46.0906 128.753 46.4217C128.753 46.4217 128.201 45.8856 127.098 44.8134C126.817 45.3779 126.505 45.7878 126.161 46.0433C125.821 46.2955 125.412 46.4217 124.936 46.4217C124.293 46.4217 123.755 46.2135 123.323 45.7973C122.894 45.3779 122.68 44.856 122.68 44.2317C122.68 43.5695 122.951 43.0271 123.493 42.6045C123.702 42.4437 123.979 42.275 124.326 42.0984C124.026 41.7831 123.818 41.5182 123.702 41.3038C123.588 41.0862 123.531 40.8513 123.531 40.599C123.531 40.1544 123.694 39.7791 124.019 39.4733C124.346 39.1642 124.749 39.0097 125.225 39.0097C125.72 39.0097 126.131 39.1658 126.459 39.478C126.787 39.787 126.951 40.1764 126.951 40.6463C126.951 41.1729 126.726 41.5923 126.275 41.9045C126.187 41.977 125.947 42.1126 125.556 42.3113L126.913 43.6499L127.959 41.6349ZM126.563 44.2979L124.837 42.614C124.304 42.8726 123.929 43.1296 123.711 43.385C123.493 43.6373 123.385 43.9447 123.385 44.3073C123.385 44.7141 123.53 45.0594 123.82 45.3432C124.113 45.627 124.469 45.7689 124.889 45.7689C125.233 45.7689 125.532 45.657 125.788 45.4331C126.043 45.2092 126.302 44.8308 126.563 44.2979ZM125.031 41.8004C125.457 41.6333 125.77 41.452 125.972 41.2565C126.174 41.061 126.275 40.8387 126.275 40.5895C126.275 40.3215 126.177 40.0992 125.981 39.9226C125.786 39.746 125.54 39.6577 125.244 39.6577C124.963 39.6577 124.727 39.7476 124.534 39.9273C124.345 40.1039 124.25 40.3215 124.25 40.5801C124.25 40.763 124.309 40.9474 124.425 41.1335C124.545 41.3195 124.747 41.5418 125.031 41.8004Z" fill="#696969" fill-opacity="1.000000" fill-rule="nonzero"/>
	<path id="Vector" d="M118.442 40.9963C118.442 40.9963 118.442 42.4453 118.442 45.3432C118.442 45.8635 118.404 46.2813 118.329 46.5966C118.256 46.912 118.13 47.1895 117.95 47.4291C117.723 47.7319 117.424 47.9652 117.052 48.1292C116.679 48.2932 116.262 48.3752 115.798 48.3752C115.13 48.3752 114.567 48.2112 114.109 47.8832C113.656 47.5553 113.331 47.0807 113.135 46.4595L113.83 46.4595C113.947 46.6676 114.042 46.8237 114.114 46.9277C114.19 47.0318 114.277 47.128 114.374 47.2163C114.746 47.5505 115.215 47.7177 115.779 47.7177C116.192 47.7177 116.55 47.6341 116.853 47.467C117.156 47.2999 117.376 47.0634 117.515 46.7575C117.657 46.4579 117.728 46.0637 117.728 45.575L117.728 45.2202C117.52 45.627 117.25 45.9297 116.919 46.1284C116.588 46.3239 116.183 46.4216 115.704 46.4216C115.319 46.4216 114.955 46.3507 114.611 46.2088C114.27 46.0669 113.977 45.8745 113.731 45.6317C113.488 45.3858 113.296 45.0925 113.154 44.7519C113.012 44.4114 112.941 44.0503 112.941 43.6688C112.941 43.139 113.058 42.6613 113.291 42.2356C113.524 41.8067 113.846 41.4725 114.256 41.2328C114.669 40.99 115.131 40.8686 115.642 40.8686C116.093 40.8686 116.487 40.9537 116.824 41.124C117.162 41.2943 117.463 41.5639 117.728 41.9328L117.728 40.9963L118.442 40.9963ZM115.633 41.5261C115.074 41.5261 114.608 41.7263 114.232 42.1268C113.857 42.5241 113.67 43.0192 113.67 43.612C113.67 44.2269 113.862 44.7393 114.247 45.1493C114.635 45.556 115.12 45.7594 115.704 45.7594C116.281 45.7594 116.761 45.5529 117.146 45.1398C117.534 44.7236 117.728 44.208 117.728 43.5931C117.728 42.9971 117.529 42.5036 117.132 42.1126C116.735 41.7216 116.235 41.5261 115.633 41.5261Z" fill="#696969" fill-opacity="1.000000" fill-rule="nonzero"/>
	<path id="Vector" d="M107.038 46.2939C107.038 46.2939 107.038 44.5281 107.038 40.9963C107.038 40.9963 107.278 40.9963 107.757 40.9963C107.757 40.9963 107.757 41.2249 107.757 41.6822C108.192 41.1398 108.76 40.8686 109.46 40.8686C109.835 40.8686 110.177 40.9395 110.487 41.0814C110.796 41.2202 111.054 41.4236 111.262 41.6916C111.433 41.9187 111.552 42.1678 111.622 42.439C111.691 42.7101 111.726 43.0681 111.726 43.5127L111.726 46.2939L111.011 46.2939C111.011 46.2939 111.011 45.3669 111.011 43.5127C111.011 43.1563 110.982 42.8694 110.922 42.6518C110.865 42.4311 110.769 42.2372 110.633 42.07C110.333 41.7074 109.914 41.5261 109.375 41.5261C109.085 41.5261 108.818 41.586 108.576 41.7058C108.336 41.8256 108.147 41.9928 108.008 42.2072C107.917 42.3522 107.852 42.5131 107.814 42.6897C107.776 42.8631 107.757 43.0933 107.757 43.3802L107.757 46.2939L107.038 46.2939Z" fill="#696969" fill-opacity="1.000000" fill-rule="nonzero"/>
	<path id="Vector" d="M104.905 46.2939C104.905 46.2939 104.905 44.5281 104.905 40.9963C104.905 40.9963 105.145 40.9963 105.624 40.9963C105.624 40.9963 105.624 42.7622 105.624 46.2939C105.624 46.2939 105.385 46.2939 104.905 46.2939ZM104.905 40.3578C104.905 40.3578 104.905 39.951 104.905 39.1374C104.905 39.1374 105.145 39.1374 105.624 39.1374C105.624 39.1374 105.624 39.5442 105.624 40.3578C105.624 40.3578 105.385 40.3578 104.905 40.3578Z" fill="#696969" fill-opacity="1.000000" fill-rule="nonzero"/>
	<path id="Vector" d="M102.077 46.2939C102.077 46.2939 102.077 44.7441 102.077 41.6443C102.077 41.6443 101.697 41.6443 100.937 41.6443C100.937 41.6443 100.937 41.4283 100.937 40.9963C100.937 40.9963 101.317 40.9963 102.077 40.9963C102.077 40.9963 102.077 40.3767 102.077 39.1374C102.077 39.1374 102.317 39.1374 102.796 39.1374C102.796 39.1374 102.796 39.757 102.796 40.9963C102.796 40.9963 103.193 40.9963 103.988 40.9963C103.988 40.9963 103.988 41.2123 103.988 41.6443C103.988 41.6443 103.591 41.6443 102.796 41.6443C102.796 41.6443 102.796 43.1942 102.796 46.2939C102.796 46.2939 102.556 46.2939 102.077 46.2939Z" fill="#696969" fill-opacity="1.000000" fill-rule="nonzero"/>
	<path id="Vector" d="M95.3228 46.2939C95.3228 46.2939 95.3228 44.5281 95.3228 40.9963C95.3228 40.9963 95.5625 40.9963 96.0417 40.9963C96.0417 40.9963 96.0417 41.2249 96.0417 41.6822C96.4768 41.1398 97.0444 40.8686 97.7446 40.8686C98.1199 40.8686 98.4619 40.9395 98.771 41.0814C99.0801 41.2202 99.3386 41.4236 99.5466 41.6916C99.717 41.9187 99.8367 42.1678 99.9062 42.439C99.9756 42.7101 100.01 43.0681 100.01 43.5127L100.01 46.2939L99.2959 46.2939C99.2959 46.2939 99.2959 45.3669 99.2959 43.5127C99.2959 43.1563 99.2661 42.8694 99.2061 42.6518C99.1494 42.4311 99.0532 42.2372 98.9175 42.07C98.6179 41.7074 98.1987 41.5261 97.6594 41.5261C97.3694 41.5261 97.1028 41.586 96.8601 41.7058C96.6204 41.8256 96.4312 41.9928 96.2925 42.2072C96.2009 42.3522 96.1362 42.5131 96.0984 42.6897C96.0605 42.8631 96.0417 43.0933 96.0417 43.3802L96.0417 46.2939L95.3228 46.2939Z" fill="#696969" fill-opacity="1.000000" fill-rule="nonzero"/>
	<path id="Vector" d="M93.9038 40.9963C93.9038 40.9963 93.9038 42.7622 93.9038 46.294C93.9038 46.294 93.6658 46.294 93.1897 46.294C93.1897 46.294 93.1897 46.0196 93.1897 45.4709C93.01 45.7989 92.783 46.0401 92.5085 46.1946C92.2341 46.346 91.8921 46.4217 91.4822 46.4217C91.0723 46.4217 90.708 46.346 90.3894 46.1946C90.0742 46.0401 89.8186 45.8178 89.6233 45.5277C89.3647 45.1556 89.2354 44.5974 89.2354 43.8533L89.2354 40.9963C89.2354 40.9963 89.4751 40.9963 89.9543 40.9963C89.9543 40.9963 89.9543 41.9486 89.9543 43.8533C89.9543 44.4335 90.0442 44.8592 90.2239 45.1304C90.3501 45.329 90.5266 45.4835 90.7537 45.5939C90.9839 45.7043 91.2424 45.7595 91.5293 45.7595C91.8101 45.7595 92.0654 45.7027 92.2957 45.5892C92.5291 45.4757 92.7197 45.3133 92.8679 45.102C93.0825 44.7835 93.1897 44.3215 93.1897 43.7161L93.1897 40.9963L93.9038 40.9963Z" fill="#696969" fill-opacity="1.000000" fill-rule="nonzero"/>
	<path id="Vector" d="M85.3 40.8686C85.8142 40.8686 86.2776 40.99 86.6907 41.2328C87.1069 41.4725 87.4319 41.8051 87.665 42.2308C87.9016 42.6565 88.0198 43.1327 88.0198 43.6593C88.0198 44.4539 87.7644 45.113 87.2537 45.6365C86.7427 46.1599 86.0979 46.4216 85.3191 46.4216C84.7861 46.4216 84.3037 46.3018 83.8716 46.0622C83.4397 45.8225 83.1006 45.4914 82.8547 45.0689C82.6118 44.6463 82.4905 44.1733 82.4905 43.6498C82.4905 42.8457 82.7554 42.182 83.2852 41.6585C83.8149 41.1319 84.4866 40.8686 85.3 40.8686ZM85.2434 41.5261C84.6631 41.5261 84.1807 41.7295 83.7959 42.1362C83.4114 42.5399 83.219 43.0476 83.219 43.6593C83.219 44.2648 83.416 44.7661 83.8101 45.1635C84.2043 45.5608 84.7009 45.7594 85.3 45.7594C85.8835 45.7594 86.3613 45.5639 86.7334 45.1729C87.1086 44.7787 87.2961 44.2774 87.2961 43.6688C87.2961 43.0444 87.1038 42.532 86.7192 42.1315C86.3345 41.7279 85.8425 41.5261 85.2434 41.5261Z" fill="#696969" fill-opacity="1.000000" fill-rule="nonzero"/>
	<path id="Vector" d="M80.6931 44.733C80.6931 44.733 80.9644 44.733 81.5068 44.733C81.3555 45.02 81.2166 45.2454 81.0906 45.4094C80.9644 45.5702 80.813 45.7169 80.6365 45.8493C80.1509 46.2309 79.5754 46.4216 78.9099 46.4216C78.374 46.4216 77.8853 46.3002 77.4436 46.0574C77.0022 45.8115 76.6553 45.4756 76.4031 45.0499C76.1509 44.6211 76.0247 44.1481 76.0247 43.6309C76.0247 43.1232 76.1492 42.6581 76.3984 42.2356C76.6506 41.813 76.9944 41.4803 77.4294 41.2375C77.8647 40.9916 78.3423 40.8686 78.8628 40.8686C79.4619 40.8686 79.9963 41.0247 80.4661 41.3369C80.9392 41.649 81.283 42.0716 81.4973 42.6045L80.6931 42.6045C80.4883 42.2576 80.228 41.9912 79.9128 41.8051C79.5974 41.6191 79.2441 41.5261 78.8533 41.5261C78.2634 41.5261 77.7654 41.731 77.3586 42.141C76.9548 42.5509 76.7532 43.0539 76.7532 43.6498C76.7532 44.2395 76.958 44.7393 77.3679 45.1493C77.781 45.556 78.2856 45.7594 78.8816 45.7594C79.26 45.7594 79.5864 45.6806 79.8606 45.5229C80.1382 45.3653 80.4158 45.102 80.6931 44.733Z" fill="#696969" fill-opacity="1.000000" fill-rule="nonzero"/>
	<path id="Vector" d="M74.2273 44.733C74.2273 44.733 74.4985 44.733 75.041 44.733C74.8896 45.02 74.7507 45.2454 74.6248 45.4094C74.4985 45.5702 74.3472 45.7169 74.1707 45.8493C73.6851 46.2309 73.1096 46.4216 72.4441 46.4216C71.9082 46.4216 71.4194 46.3002 70.9778 46.0574C70.5364 45.8115 70.1895 45.4756 69.9373 45.0499C69.6851 44.6211 69.5588 44.1481 69.5588 43.6309C69.5588 43.1232 69.6833 42.6581 69.9326 42.2356C70.1848 41.813 70.5286 41.4803 70.9636 41.2375C71.3989 40.9916 71.8765 40.8686 72.397 40.8686C72.9961 40.8686 73.5305 41.0247 74.0002 41.3369C74.4734 41.649 74.8171 42.0716 75.0315 42.6045L74.2273 42.6045C74.0225 42.2576 73.7622 41.9912 73.447 41.8051C73.1316 41.6191 72.7783 41.5261 72.3875 41.5261C71.7976 41.5261 71.2996 41.731 70.8928 42.141C70.489 42.5509 70.2874 43.0539 70.2874 43.6498C70.2874 44.2395 70.4922 44.7393 70.9021 45.1493C71.3152 45.556 71.8198 45.7594 72.4158 45.7594C72.7942 45.7594 73.1206 45.6806 73.3948 45.5229C73.6724 45.3653 73.95 45.102 74.2273 44.733Z" fill="#696969" fill-opacity="1.000000" fill-rule="nonzero"/>
	<path id="Vector" d="M62.114 46.2939C62.114 46.2939 63.1372 43.9084 65.1838 39.1374C65.1838 39.1374 65.4519 39.1374 65.9878 39.1374C65.9878 39.1374 67.0144 41.5229 69.0671 46.2939C69.0671 46.2939 68.8054 46.2939 68.282 46.2939C68.282 46.2939 67.9368 45.4899 67.2461 43.8816C67.2461 43.8816 66.1345 43.8816 63.9114 43.8816C63.9114 43.8816 63.563 44.6857 62.866 46.2939C62.866 46.2939 62.6155 46.2939 62.114 46.2939ZM64.1858 43.2336C64.1858 43.2336 65.1128 43.2336 66.967 43.2336C66.967 43.2336 66.5083 42.1394 65.5906 39.951C65.5906 39.951 65.1223 41.0452 64.1858 43.2336Z" fill="#696969" fill-opacity="1.000000" fill-rule="nonzero"/>
	<path id="Rectangle 3" d="M15.387 50.7977C13.6057 52.6302 10.6763 52.6718 8.84399 50.8907C7.01147 49.1096 6.96973 46.1802 8.75098 44.3477L36.7009 15.5919C38.4822 13.7595 41.4116 13.7178 43.2439 15.499C45.0764 17.2801 45.1182 20.2095 43.3369 22.042L15.387 50.7977Z" fill="#FFB774" fill-opacity="1.000000" fill-rule="nonzero"/>
	<path id="Rectangle 4" d="M9.86108 38.5238C8.07983 40.3562 5.15039 40.3979 3.31812 38.6167C1.4856 36.8356 1.44385 33.9062 3.2251 32.0737L31.175 3.31799C32.9563 1.4855 35.8857 1.44391 37.718 3.22501C39.5505 5.00613 39.5923 7.93553 37.811 9.76801L9.86108 38.5238Z" fill="#094235" fill-opacity="1.000000" fill-rule="nonzero"/>
	<path id="Vector 9" d="M41.3352 28.3792L41.3352 39.4842C41.3352 41.4378 40.1013 45.3451 35.1658 45.3451C30.2302 45.3451 26.1172 45.3451 24.6777 45.3451L41.3352 28.3792Z" fill="#FFB774" fill-opacity="1.000000" fill-rule="evenodd"/>
	<path id="Vector 10" d="M4.93555 25.603L4.93555 14.4981C4.93555 12.5444 6.16943 8.63713 11.105 8.63713C16.0405 8.63713 20.1536 8.63713 21.593 8.63713L4.93555 25.603Z" fill="#094235" fill-opacity="1.000000" fill-rule="evenodd"/>
</svg>
