<svg width="48.000000" height="48.000000" viewBox="0 0 48 48" fill="none" xmlns="http://www.w3.org/2000/svg" xmlns:xlink="http://www.w3.org/1999/xlink">
	<desc>
			Created with Pixso.
	</desc>
	<defs/>
	<path d="M40.5 40.5L7.5 40.5" stroke="#FFFFFF" stroke-opacity="1.000000" stroke-width="2.000000" stroke-linejoin="round" stroke-linecap="round"/>
	<path d="M27 15C27 14.1716 27.6716 13.5 28.5 13.5L36 13.5C36.8284 13.5 37.5 14.1716 37.5 15L37.5 33C37.5 33.8284 36.8284 34.5 36 34.5L28.5 34.5C27.6716 34.5 27 33.8284 27 33L27 15Z" stroke="#FFFFFF" stroke-opacity="1.000000" stroke-width="2.000000" stroke-linejoin="round"/>
	<path d="M19.5 6C20.3284 6 21 6.67163 21 7.5L21 33C21 33.8284 20.3284 34.5 19.5 34.5L12 34.5C11.1716 34.5 10.5 33.8284 10.5 33L10.5 7.5C10.5 6.67163 11.1716 6 12 6L19.5 6Z" stroke="#FFFFFF" stroke-opacity="1.000000" stroke-width="2.000000" stroke-linejoin="round"/>
</svg>
