<svg width="42.000000" height="42.000000" viewBox="0 0 42 42" fill="none" xmlns="http://www.w3.org/2000/svg" xmlns:xlink="http://www.w3.org/1999/xlink">
	<desc>
			Created with Pixso.
	</desc>
	<defs/>
	<path d="M2.625 35.4375L39.375 35.4375" stroke="#FFFFFF" stroke-opacity="1.000000" stroke-width="2.000000" stroke-linejoin="round" stroke-linecap="round"/>
	<path d="M23.625 35.4375L23.625 6.5625C23.625 6.21436 23.4868 5.88062 23.2405 5.6344C22.9944 5.38831 22.6606 5.25 22.3125 5.25L6.5625 5.25C6.21436 5.25 5.88062 5.38831 5.63452 5.6344C5.38818 5.88062 5.25 6.21436 5.25 6.5625L5.25 35.4375" stroke="#FFFFFF" stroke-opacity="1.000000" stroke-width="2.000000" stroke-linejoin="round" stroke-linecap="round"/>
	<path d="M36.75 35.4375L36.75 17.0625C36.75 16.7144 36.6118 16.3806 36.3655 16.1344C36.1194 15.8883 35.7856 15.75 35.4375 15.75L23.625 15.75" stroke="#FFFFFF" stroke-opacity="1.000000" stroke-width="2.000000" stroke-linejoin="round" stroke-linecap="round"/>
	<path d="M10.5 11.8125L15.75 11.8125" stroke="#FFFFFF" stroke-opacity="1.000000" stroke-width="2.000000" stroke-linejoin="round" stroke-linecap="round"/>
	<path d="M13.125 22.3125L18.375 22.3125" stroke="#FFFFFF" stroke-opacity="1.000000" stroke-width="2.000000" stroke-linejoin="round" stroke-linecap="round"/>
	<path d="M10.5 28.875L15.75 28.875" stroke="#FFFFFF" stroke-opacity="1.000000" stroke-width="2.000000" stroke-linejoin="round" stroke-linecap="round"/>
	<path d="M28.875 28.875L31.5 28.875" stroke="#FFFFFF" stroke-opacity="1.000000" stroke-width="2.000000" stroke-linejoin="round" stroke-linecap="round"/>
	<path d="M28.875 22.3125L31.5 22.3125" stroke="#FFFFFF" stroke-opacity="1.000000" stroke-width="2.000000" stroke-linejoin="round" stroke-linecap="round"/>
</svg>
