<svg width="42.000000" height="42.000000" viewBox="0 0 42 42" fill="none" xmlns="http://www.w3.org/2000/svg" xmlns:xlink="http://www.w3.org/1999/xlink">
	<desc>
			Created with Pixso.
	</desc>
	<defs/>
	<path d="M24.9375 5.25L24.9375 14.4375L34.125 14.4375" stroke="#FFFFFF" stroke-opacity="1.000000" stroke-width="2.000000" stroke-linejoin="round" stroke-linecap="round"/>
	<path d="M24.2812 21L28.2188 24.9375L24.2812 28.875" stroke="#FFFFFF" stroke-opacity="1.000000" stroke-width="2.000000" stroke-linejoin="round" stroke-linecap="round"/>
	<path d="M17.7188 21L13.7812 24.9375L17.7188 28.875" stroke="#FFFFFF" stroke-opacity="1.000000" stroke-width="2.000000" stroke-linejoin="round" stroke-linecap="round"/>
	<path d="M33.7405 36.3656C33.9868 36.1194 34.125 35.7856 34.125 35.4375L34.125 14.4375L24.9375 5.25L9.1875 5.25C8.83936 5.25 8.50562 5.38831 8.25952 5.6344C8.01318 5.88062 7.875 6.21436 7.875 6.5625L7.875 35.4375C7.875 35.7856 8.01318 36.1194 8.25952 36.3656C8.50562 36.6117 8.83936 36.75 9.1875 36.75L32.8125 36.75C33.1606 36.75 33.4944 36.6117 33.7405 36.3656Z" stroke="#FFFFFF" stroke-opacity="1.000000" stroke-width="2.000000" stroke-linejoin="round"/>
</svg>
