<svg width="35.523926" height="35.205322" viewBox="0 0 35.5239 35.2053" fill="none" xmlns="http://www.w3.org/2000/svg" xmlns:xlink="http://www.w3.org/1999/xlink">
	<desc>
			Created with Pixso.
	</desc>
	<defs/>
	<path d="M23.5 34.12L10.6599 34.12C8.31982 34.12 6.42993 32.23 6.42993 29.89L6.42993 9" stroke="#FFFFFF" stroke-opacity="1.000000" stroke-width="2.000000"/>
	<path d="M3.58008 1L25.28 1C27.55 1 29.4001 2.83997 29.4001 5.12L29.4001 14.39" stroke="#FFFFFF" stroke-opacity="1.000000" stroke-width="2.000000"/>
	<path d="M1 8.28003L1 3.70996C1 2.20996 2.20996 1 3.70996 1C5.20996 1 6.41992 2.20996 6.41992 3.70996L6.41992 8.28003L1 8.28003Z" stroke="#FFFFFF" stroke-opacity="1.000000" stroke-width="2.000000"/>
	<path d="M33.1001 23.8198L32.6702 25.9698L30.52 26.3999L28.7002 27.6199L26.8801 26.3999L24.73 25.9698L24.3 23.8198L23.0801 21.9999L24.3 20.1799L24.73 18.0299L26.8801 17.5999L28.7002 16.3799L30.52 17.5999L32.6702 18.0299L33.1001 20.1799L34.3201 21.9999L33.1001 23.8198Z" stroke="#FFFFFF" stroke-opacity="1.000000" stroke-width="2.000000"/>
	<path d="M31.8101 25.8501L31.8101 33.3301L28.7102 31.2501L25.6101 33.3301L25.6101 25.8501" stroke="#FFFFFF" stroke-opacity="1.000000" stroke-width="2.000000"/>
	<path d="M12.0701 7.25L22.28 7.25" stroke="#FFFFFF" stroke-opacity="1.000000" stroke-width="2.000000"/>
	<path d="M12.0701 12.5L22.28 12.5" stroke="#FFFFFF" stroke-opacity="1.000000" stroke-width="2.000000"/>
	<path d="M12.0701 17.6899L22.28 17.6899" stroke="#FFFFFF" stroke-opacity="1.000000" stroke-width="2.000000"/>
	<path d="M12.0701 22.77L18.8401 22.77" stroke="#FFFFFF" stroke-opacity="1.000000" stroke-width="2.000000"/>
	<path d="M12.0701 27.96L18.8401 27.96" stroke="#FFFFFF" stroke-opacity="1.000000" stroke-width="2.000000"/>
</svg>
