<svg width="43.000000" height="43.000000" viewBox="0 0 43 43" fill="none" xmlns="http://www.w3.org/2000/svg" xmlns:xlink="http://www.w3.org/1999/xlink">
	<desc>
			Created with Pixso.
	</desc>
	<defs/>
	<path d="M34.9375 6.71875C35.6797 6.71875 36.2812 7.32031 36.2812 8.0625L36.2812 34.9375C36.2812 35.6797 35.6797 36.2812 34.9375 36.2812L8.0625 36.2812C7.32031 36.2812 6.71875 35.6797 6.71875 34.9375L6.71875 8.0625C6.71875 7.32031 7.32031 6.71875 8.0625 6.71875L34.9375 6.71875Z" stroke="#FFFFFF" stroke-opacity="1.000000" stroke-width="2.000000" stroke-linejoin="round"/>
	<path d="M29.5625 4.03125L29.5625 9.40625" stroke="#FFFFFF" stroke-opacity="1.000000" stroke-width="2.000000" stroke-linejoin="round" stroke-linecap="round"/>
	<path d="M13.4375 4.03125L13.4375 9.40625" stroke="#FFFFFF" stroke-opacity="1.000000" stroke-width="2.000000" stroke-linejoin="round" stroke-linecap="round"/>
	<path d="M6.71875 14.7812L36.2812 14.7812" stroke="#FFFFFF" stroke-opacity="1.000000" stroke-width="2.000000" stroke-linejoin="round" stroke-linecap="round"/>
	<path d="M15.4531 21.5L20.1562 21.5L17.4688 24.8594C17.9111 24.8586 18.3467 24.967 18.7368 25.175C19.1274 25.3829 19.4604 25.6841 19.7065 26.0516C19.9526 26.4191 20.104 26.8417 20.1479 27.2819C20.1914 27.7219 20.1255 28.166 19.9565 28.5747C19.7876 28.9834 19.52 29.344 19.1782 29.6245C18.8359 29.905 18.4302 30.0969 17.9966 30.183C17.5625 30.269 17.1143 30.2467 16.6909 30.118C16.2681 29.9893 15.8833 29.7581 15.5708 29.4449" stroke="#FFFFFF" stroke-opacity="1.000000" stroke-width="2.000000" stroke-linejoin="round" stroke-linecap="round"/>
	<path d="M24.1875 23.5156L26.875 21.5L26.875 30.2344" stroke="#FFFFFF" stroke-opacity="1.000000" stroke-width="2.000000" stroke-linejoin="round" stroke-linecap="round"/>
</svg>
