<svg width="43.000000" height="43.000000" viewBox="0 0 43 43" fill="none" xmlns="http://www.w3.org/2000/svg" xmlns:xlink="http://www.w3.org/1999/xlink">
	<desc>
			Created with Pixso.
	</desc>
	<defs/>
	<path d="M9.80029 35.8877C9.54834 35.6357 9.40674 35.2939 9.40674 34.9375L9.40674 27.7653C8.66943 28.1169 7.85254 28.2676 7.03809 28.202C6.34863 28.1514 5.6792 27.9493 5.07666 27.6105C4.47412 27.2715 3.9541 26.804 3.55273 26.2411C3.15186 25.6782 2.87939 25.0338 2.75586 24.3538C2.63184 23.6737 2.65967 22.9747 2.83643 22.3066C3.01367 21.6384 3.33594 21.0176 3.78027 20.4882C4.22461 19.9586 4.78027 19.5337 5.40771 19.2433C6.03467 18.953 6.71826 18.8046 7.40967 18.8085C8.10059 18.8124 8.78271 18.9686 9.40674 19.2661L9.40674 12.0938C9.40674 11.7374 9.54834 11.3956 9.80029 11.1437C10.0522 10.8916 10.394 10.75 10.7505 10.75L18.5942 10.75C18.2427 10.0128 18.0923 9.1958 18.1577 8.38171C18.2085 7.69238 18.4102 7.02258 18.749 6.42017C19.0884 5.81775 19.5557 5.29749 20.1187 4.89636C20.6816 4.49512 21.3257 4.22302 22.0059 4.09924C22.686 3.97546 23.3848 4.00305 24.0532 4.18018C24.7212 4.3573 25.3423 4.67944 25.8716 5.12378C26.4009 5.56812 26.8262 6.12366 27.1162 6.75098C27.4067 7.3783 27.5552 8.06189 27.5513 8.75305C27.5474 9.44421 27.3911 10.1261 27.0938 10.75L34.938 10.75C35.2939 10.75 35.6357 10.8916 35.8882 11.1437C36.1401 11.3956 36.2817 11.7374 36.2817 12.0938L36.2817 19.2661C35.5444 18.9144 34.7275 18.7638 33.9131 18.8293C33.2236 18.88 32.5542 19.0819 31.9517 19.4209C31.3491 19.7598 30.8291 20.2274 30.4277 20.7903C30.0269 21.3531 29.7544 21.9976 29.6309 22.6776C29.5068 23.3577 29.5347 24.0566 29.7114 24.7247C29.8887 25.3928 30.2109 26.0138 30.6553 26.5432C31.0996 27.0728 31.6553 27.4977 32.2827 27.788C32.9097 28.0784 33.5933 28.2268 34.2847 28.2229C34.9756 28.219 35.6577 28.0627 36.2817 27.7653L36.2817 34.9375C36.2817 35.2939 36.1401 35.6357 35.8882 35.8877C35.6357 36.1398 35.2939 36.2812 34.938 36.2812L10.7505 36.2812C10.394 36.2812 10.0522 36.1398 9.80029 35.8877Z" stroke="#FFFFFF" stroke-opacity="1.000000" stroke-width="2.000000" stroke-linejoin="round"/>
</svg>
